<svg width="33" height="33" viewBox="0 0 33 33" xmlns="http://www.w3.org/2000/svg" xmlns:xlink="http://www.w3.org/1999/xlink">
    <defs>
        <path d="M3.77 5.684C-1.927 12.44-1.07 22.533 5.684 28.23c6.755 5.697 16.849 4.84 22.546-1.914 5.697-6.755 4.84-16.85-1.914-22.546A15.938 15.938 0 0 0 16.008 0 15.963 15.963 0 0 0 3.77 5.684z" id="t3l39agmca"/>
    </defs>
    <g transform="translate(.645 .58)" fill="none" fill-rule="evenodd">
        <mask id="m0yqjjg6lb" fill="#fff">
            <use xlink:href="#t3l39agmca"/>
        </mask>
        <path fill="#009B3A" mask="url(#m0yqjjg6lb)" d="M-7.237 32.336h46.7V-.354h-46.7z"/>
        <path fill="#FEDF00" mask="url(#m0yqjjg6lb)" d="M-3.244 15.99 16.08 3.657l19.386 12.37-19.354 12.347z"/>
        <path d="M24.06 15.954a8.175 8.175 0 1 0-16.35 0 8.175 8.175 0 0 0 16.35 0" fill="#FFF" mask="url(#m0yqjjg6lb)"/>
        <path d="M23.571 18.442s-5.893-6.129-15.6-4.542a8.175 8.175 0 0 0 15.704 4.541h-.104z" fill="#002776" mask="url(#m0yqjjg6lb)"/>
        <path d="M23.977 17.127a8.175 8.175 0 0 0-15.565-4.49c.767-.128 9.092-1.355 15.565 4.49" fill="#002776" mask="url(#m0yqjjg6lb)"/>
        <path fill="#FFF" mask="url(#m0yqjjg6lb)" d="m18.416 13.122-.07.211h-.23l.187.133-.07.216.183-.13.184.13-.07-.215.184-.128-.228-.004zM9.213 14.15l-.077.238h-.26l.21.15-.078.243.205-.147.207.147-.078-.242.207-.145-.257-.004zM9.954 17.576l-.078.238h-.259l.21.15-.078.242.205-.147.207.147-.079-.242.207-.144-.257-.004zM8.918 18.352l-.068.207h-.227l.183.132-.068.212.18-.129.18.129-.068-.212.181-.126-.224-.004zM12.774 15.989l-.068.207h-.226l.183.132-.068.212.179-.129.181.129-.069-.212.182-.126-.225-.004zM11.635 18.422l-.068.208h-.227l.183.131-.068.212.18-.128.18.128-.068-.211.181-.126-.224-.004zM12.607 19.953l-.076.231h-.253l.204.147-.075.236.2-.143.202.143-.077-.235.202-.141-.25-.005zM10.748 17.24l-.041.126h-.138l.111.08-.041.13.11-.078.11.078-.042-.129.11-.077-.136-.002zM11.394 19.286l-.056.17h-.186l.15.107-.055.174.147-.105.148.105-.056-.173.148-.104-.184-.003zM15.057 17.754l-.056.17h-.186l.15.108-.055.174.147-.105.148.105-.056-.173.148-.104-.184-.003zM17.688 20.29l-.056.17h-.185l.15.108-.056.174.147-.105.149.105-.057-.173.149-.104-.184-.003zM18.088 15.315l-.056.17h-.185l.15.108-.056.174.147-.105.149.105-.057-.173.149-.104-.184-.003zM15.886 16.97l-.067.203h-.222l.18.129-.067.208.176-.126.178.126-.068-.207.178-.125-.22-.003zM16.832 17.71l-.067.204h-.222l.18.128-.067.209.176-.126.178.126-.068-.208.178-.124-.22-.004zM15.886 19.286l-.076.231h-.252l.204.146-.076.237.2-.143.202.143-.077-.236.202-.14-.25-.005zM15.477 18.399l-.041.126h-.139l.112.08-.041.13.109-.078.11.078-.041-.129.11-.077-.137-.002zM15.886 22.24l-.027.08h-.088l.071.052-.026.083.07-.05.07.05-.027-.083.071-.049-.087-.001zM18.33 21.165l-.068.204h-.222l.18.129-.067.208.176-.126.178.126-.068-.207.178-.125-.22-.003zM21.435 19.9l-.066.204h-.223l.18.128-.067.209.176-.126.178.126-.067-.208.177-.124-.22-.004zM21.955 19.286l-.067.203h-.222l.18.13-.067.208.176-.126.178.126-.068-.208.178-.124-.22-.004zM22.752 18.701l-.048.147h-.16l.13.092-.049.15.127-.091.127.09-.048-.148.127-.09-.158-.002zM21.609 18.493l-.076.231h-.252l.204.146-.076.237.2-.143.202.143-.077-.236.202-.14-.25-.005zM20.79 20.407l-.048.146h-.16l.13.092-.049.15.127-.09.127.09-.048-.15.127-.088-.158-.003zM19.948 20.247l-.048.146h-.16l.13.092-.049.15.127-.09.127.09-.048-.149.127-.089-.158-.003zM19.028 20.548l-.048.146h-.16l.13.093-.048.15.126-.091.128.09-.049-.149.128-.089-.158-.002zM19.948 21.88l-.048.146h-.16l.13.093-.049.15.127-.091.127.09-.048-.149.127-.089-.158-.002zM19.976 20.969l-.067.204h-.222l.18.128-.067.209.176-.126.178.126-.068-.208.178-.124-.22-.004z"/>
        <path d="m13.025 12.749.193.016-.068.775-.132-.011.042-.493-.01-.002-.186.478-.008.002c-.115-.006-.115-.006-.138-.12l-.078-.391-.008-.03-.046.518-.133-.011.068-.775.193.016.11.544.2-.516M11.494 12.66l.667.023-.007.144-.53-.017-.008.154.44.016v.132l-.443-.014v.2l.554.02v.143l-.7-.024.027-.777M20.326 15.65l.492.278-.07.127-.609-.345.383-.677.58.329-.071.125-.464-.262-.076.135.386.219-.066.116-.386-.219-.099.174M16.86 13.917l.357.1c.014.005.03.01.045.011.074.012.136-.02.158-.08a.114.114 0 0 0-.077-.148c-.131-.042-.264-.077-.4-.116l-.083.233m-.059.168-.119.335-.187-.052.332-.9c.158.043.31.086.464.13.038.01.075.02.112.032.142.045.231.15.235.276.003.13-.08.24-.223.29l-.026.009c.058.138.01.27-.035.405l-.168-.047.04-.179a.263.263 0 0 0 .006-.047c.004-.109-.015-.132-.129-.166l-.302-.086M9.706 13.218l.399-.024c.041-.003.084-.005.124-.014.071-.017.12-.084.111-.147a.142.142 0 0 0-.14-.123c-.172.004-.344.015-.518.024l.024.284m.016.203.032.407-.233.017-.07-1.1c.153-.01.298-.02.442-.028.089-.006.178-.012.266-.015.19-.006.339.073.405.213.065.138.024.282-.112.395l-.02.019c.133.126.14.285.157.449l-.21.012c-.013-.068-.022-.133-.037-.196a.47.47 0 0 0-.044-.11c-.05-.09-.062-.094-.177-.086-.13.009-.261.015-.399.023M19.673 15c.12.054.236.108.353.157a.13.13 0 0 0 .16-.047c.031-.05.022-.12-.033-.148-.118-.06-.24-.114-.365-.172l-.115.21m-.083.15-.165.3-.166-.074.455-.8c.009.002.016.001.022.004.165.074.33.147.493.223.13.061.19.176.168.303-.02.115-.119.204-.255.23l-.023.008c.033.138-.039.252-.099.375a49.2 49.2 0 0 0-.152-.068c.014-.032.03-.06.041-.09.014-.034.029-.07.038-.105.028-.111.013-.14-.097-.189l-.26-.116M21.966 16.542l.14.1c-.034.06-.016.112.029.152.041.037.09.068.139.094.032.017.071.018.098-.016.026-.033.015-.068-.007-.096-.037-.05-.08-.096-.118-.144-.036-.044-.073-.087-.102-.135-.04-.067-.043-.136.006-.202.051-.07.12-.104.204-.083.136.033.25.107.33.222.06.083.055.17-.004.252l-.135-.096c.04-.072.007-.124-.045-.168a.447.447 0 0 0-.09-.059c-.043-.021-.078-.011-.105.021-.028.034-.011.064.01.09.03.04.066.077.098.116.038.047.08.092.113.142.042.063.058.133.014.203a.207.207 0 0 1-.198.108c-.163-.008-.381-.188-.414-.343a.194.194 0 0 1 .037-.158M21.847 16.104l-.14-.088c.034-.061.013-.11-.033-.148a.574.574 0 0 0-.116-.073c-.037-.018-.074-.009-.1.027-.025.035-.009.064.014.09.036.041.076.079.114.12.037.04.076.078.108.123.06.082.064.154.017.224a.206.206 0 0 1-.228.095.564.564 0 0 1-.34-.223c-.064-.087-.068-.174-.015-.252l.143.09c-.033.07-.003.123.05.163.039.03.084.056.13.076.032.014.072.015.098-.02.026-.036.01-.07-.013-.1-.025-.033-.055-.063-.083-.094-.047-.051-.097-.1-.139-.155-.06-.078-.061-.149-.014-.22a.191.191 0 0 1 .217-.087c.127.03.236.094.319.195.068.084.07.175.01.257" fill="#049C3D" mask="url(#m0yqjjg6lb)"/>
        <path d="M10.715 13.59c.134 0 .258.007.38-.001a.307.307 0 0 0 .29-.246.7.7 0 0 0 .001-.202c-.016-.126-.097-.225-.23-.245-.145-.023-.298-.005-.44-.005v.7zm-.228.215-.02-1.135h.07l.491-.006c.341-.006.578.202.58.511 0 .08.005.163-.012.241-.047.225-.26.385-.511.389-.196.003-.393 0-.598 0z" fill="#039C3C" mask="url(#m0yqjjg6lb)"/>
        <path d="m18.954 14.82-.115-.051.044-.1.272.114-.157.358a25.976 25.976 0 0 1-.101-.044l.033-.08c-.06.002-.12.015-.176.006-.137-.021-.224-.108-.263-.24a.418.418 0 0 1 .221-.487.328.328 0 0 1 .47.25c.005.033.005.068.008.109-.05-.021-.09-.037-.13-.057-.01-.004-.017-.018-.02-.029-.018-.077-.058-.137-.138-.156-.086-.02-.157.014-.212.078a.264.264 0 0 0-.065.23c.014.073.05.13.124.153.076.024.142.002.205-.054M15.887 13.735c.135.036.267.073.4.107a.138.138 0 0 0 .176-.108.144.144 0 0 0-.105-.172c-.093-.027-.186-.052-.28-.077l-.122-.03-.069.28m-.346.557.286-1.09c.13.034.254.066.378.1.08.021.16.041.239.068.178.06.274.242.228.428a.337.337 0 0 1-.4.256c-.144-.033-.285-.075-.434-.116l-.103.406-.194-.052M23.688 17.376c.002-.198-.153-.326-.353-.29a.431.431 0 0 0-.338.41c.006.173.14.3.305.287a.422.422 0 0 0 .386-.407m-.914.115c0-.387.367-.695.74-.62.213.043.366.21.398.434.048.343-.259.694-.611.698a.5.5 0 0 1-.527-.512" fill="#049C3D" mask="url(#m0yqjjg6lb)"/>
        <path d="M18.448 14.449c0-.16-.06-.27-.164-.319a.316.316 0 0 0-.31.019.4.4 0 0 0-.183.45c.063.203.29.278.473.155a.389.389 0 0 0 .184-.305m.237-.03a.63.63 0 0 1-.432.58.534.534 0 0 1-.621-.205c-.23-.348.008-.836.44-.903a.522.522 0 0 1 .596.406c.008.04.011.08.017.121" fill="#049C3D" mask="url(#m0yqjjg6lb)"/>
        <path d="M9.372 13.407a.41.41 0 0 0-.094-.267c-.155-.18-.426-.156-.537.048a.385.385 0 0 0 .086.461.319.319 0 0 0 .454-.017.353.353 0 0 0 .09-.225m-.413-.602c.353.002.608.224.642.5a.575.575 0 0 1-.074.377.567.567 0 0 1-.862.12.572.572 0 0 1-.039-.834.514.514 0 0 1 .333-.163" fill="#039C3C" mask="url(#m0yqjjg6lb)"/>
        <path d="m14.292 13.125-.02.12.36.063-.022.13-.361-.06-.03.173.442.078-.022.13-.575-.098.119-.69.56.096-.022.131-.43-.073" fill="#049C3D" mask="url(#m0yqjjg6lb)"/>
    </g>
</svg>
