<svg width="476" height="87" viewBox="0 0 476 87" fill="none" xmlns="http://www.w3.org/2000/svg">
<g clip-path="url(#clip0_2016_141)">
<path fill-rule="evenodd" clip-rule="evenodd" d="M0 24.3237C0 10.9419 10.7759 0.0938721 24.0687 0.0938721H38.2518V81.9998H24.0687C10.7759 81.9998 0 71.1517 0 57.7698V24.3237Z" fill="url(#paint0_linear_2016_141)"/>
<path fill-rule="evenodd" clip-rule="evenodd" d="M42.5022 67.7218C42.5022 54.3399 53.2781 43.4918 66.5707 43.4918H82.5755V57.7701C82.5755 71.1517 71.7996 81.9998 58.5067 81.9998H42.5022V67.7218Z" fill="url(#paint1_linear_2016_141)"/>
<path fill-rule="evenodd" clip-rule="evenodd" d="M42.4854 15.1998C42.4854 28.5816 53.2613 39.4297 66.5539 39.4297H82.6575V24.2295C82.6575 10.8477 71.8815 -0.000366211 58.5887 -0.000366211H42.4854V15.1998Z" fill="url(#paint2_linear_2016_141)"/>
</g>
<path d="M134.933 59.12C134.933 61.28 134.393 63.26 133.313 65.06C132.233 66.86 130.793 68.3 128.993 69.38C127.193 70.46 125.213 71 123.053 71H106.853C104.693 71 102.683 70.46 100.823 69.38C99.0232 68.3 97.5832 66.86 96.5032 65.06C95.4232 63.26 94.8832 61.28 94.8832 59.12V22.13C94.8832 19.91 95.4232 17.9 96.5032 16.1C97.5832 14.3 99.0232 12.86 100.823 11.78C102.683 10.7 104.693 10.16 106.853 10.16H123.053C125.213 10.16 127.193 10.7 128.993 11.78C130.793 12.86 132.233 14.3 133.313 16.1C134.393 17.9 134.933 19.91 134.933 22.13V24.56C134.933 25.7 134.543 26.66 133.763 27.44C132.983 28.22 131.993 28.61 130.793 28.61H128.363C127.223 28.61 126.233 28.22 125.393 27.44C124.613 26.66 124.223 25.7 124.223 24.56V22.13C124.223 21.29 123.833 20.87 123.053 20.87H106.853C106.073 20.87 105.683 21.29 105.683 22.13V59.12C105.683 59.42 105.803 59.72 106.043 60.02C106.283 60.26 106.553 60.38 106.853 60.38H123.053C123.353 60.38 123.623 60.26 123.863 60.02C124.103 59.72 124.223 59.42 124.223 59.12V56.42C124.223 55.28 124.613 54.32 125.393 53.54C126.233 52.7 127.223 52.28 128.363 52.28H130.793C131.993 52.28 132.983 52.7 133.763 53.54C134.543 54.32 134.933 55.28 134.933 56.42V59.12ZM182.306 59.12C182.306 61.28 181.766 63.26 180.686 65.06C179.606 66.86 178.166 68.3 176.366 69.38C174.566 70.46 172.586 71 170.426 71H154.226C152.066 71 150.056 70.46 148.196 69.38C146.396 68.3 144.956 66.86 143.876 65.06C142.796 63.26 142.256 61.28 142.256 59.12V22.13C142.256 19.91 142.796 17.9 143.876 16.1C144.956 14.3 146.396 12.86 148.196 11.78C150.056 10.7 152.066 10.16 154.226 10.16H170.426C172.586 10.16 174.566 10.7 176.366 11.78C178.166 12.86 179.606 14.3 180.686 16.1C181.766 17.9 182.306 19.91 182.306 22.13V24.56C182.306 25.7 181.916 26.66 181.136 27.44C180.356 28.22 179.366 28.61 178.166 28.61H175.736C174.596 28.61 173.606 28.22 172.766 27.44C171.986 26.66 171.596 25.7 171.596 24.56V22.13C171.596 21.29 171.206 20.87 170.426 20.87H154.226C153.446 20.87 153.056 21.29 153.056 22.13V59.12C153.056 59.42 153.176 59.72 153.416 60.02C153.656 60.26 153.926 60.38 154.226 60.38H170.426C170.726 60.38 170.996 60.26 171.236 60.02C171.476 59.72 171.596 59.42 171.596 59.12V56.42C171.596 55.28 171.986 54.32 172.766 53.54C173.606 52.7 174.596 52.28 175.736 52.28H178.166C179.366 52.28 180.356 52.7 181.136 53.54C181.916 54.32 182.306 55.28 182.306 56.42V59.12ZM229.769 35.27C229.769 37.43 229.229 39.41 228.149 41.21C227.129 43.01 225.719 44.45 223.919 45.53C222.119 46.61 220.109 47.15 217.889 47.15H201.329C200.609 47.15 200.249 47.54 200.249 48.32V66.86C200.249 68 199.829 68.99 198.989 69.83C198.209 70.61 197.249 71 196.109 71H193.679C192.539 71 191.549 70.61 190.709 69.83C189.929 68.99 189.539 68 189.539 66.86V14.3C189.539 13.1 189.929 12.11 190.709 11.33C191.549 10.55 192.539 10.16 193.679 10.16H217.889C220.109 10.16 222.119 10.7 223.919 11.78C225.719 12.86 227.129 14.3 228.149 16.1C229.229 17.9 229.769 19.91 229.769 22.13V35.27ZM219.149 35.27V22.13C219.149 21.29 218.729 20.87 217.889 20.87H201.329C200.609 20.87 200.249 21.26 200.249 22.04V35.27C200.249 36.05 200.609 36.44 201.329 36.44H217.889C218.729 36.44 219.149 36.05 219.149 35.27ZM269.582 60.92C269.582 63.74 268.592 66.14 266.612 68.12C264.692 70.04 262.352 71 259.592 71H247.082C244.322 71 241.952 70.04 239.972 68.12C237.992 66.14 237.002 63.74 237.002 60.92V51.11C237.002 49.25 237.452 47.6 238.352 46.16C239.312 44.66 240.542 43.46 242.042 42.56C243.542 41.66 245.222 41.21 247.082 41.21H257.702C258.002 41.21 258.272 41.09 258.512 40.85C258.812 40.61 258.962 40.31 258.962 39.95V36.35C258.962 35.99 258.812 35.69 258.512 35.45C258.272 35.21 258.002 35.09 257.702 35.09H247.082C245.942 35.09 244.952 34.7 244.112 33.92C243.332 33.14 242.942 32.18 242.942 31.04V28.61C242.942 27.41 243.332 26.42 244.112 25.64C244.952 24.8 245.942 24.38 247.082 24.38H259.592C261.452 24.38 263.132 24.83 264.632 25.73C266.132 26.63 267.332 27.86 268.232 29.42C269.132 30.92 269.582 32.6 269.582 34.46V60.92ZM258.962 59.21V53C258.962 52.7 258.812 52.43 258.512 52.19C258.272 51.95 258.002 51.83 257.702 51.83H248.972C248.672 51.83 248.372 51.95 248.072 52.19C247.832 52.43 247.712 52.7 247.712 53V59.21C247.712 59.51 247.832 59.78 248.072 60.02C248.372 60.26 248.672 60.38 248.972 60.38H257.702C258.002 60.38 258.272 60.26 258.512 60.02C258.812 59.78 258.962 59.51 258.962 59.21ZM307.055 29.6L294.725 76.94C294.065 79.4 292.715 81.41 290.675 82.97C288.635 84.59 286.295 85.4 283.655 85.4H281.135C279.995 85.4 279.005 84.98 278.165 84.14C277.385 83.36 276.995 82.4 276.995 81.26V78.74C276.995 77.6 277.385 76.64 278.165 75.86C279.005 75.08 279.995 74.69 281.135 74.69H283.655C284.015 74.69 284.255 74.51 284.375 74.15L286.355 66.41C286.535 65.93 286.535 65.42 286.355 64.88L277.175 29.6C276.695 28.22 276.935 27.05 277.895 26.09C278.675 24.95 279.725 24.38 281.045 24.38H283.655C284.615 24.38 285.455 24.68 286.175 25.28C286.895 25.82 287.375 26.57 287.615 27.53L291.665 42.92C291.725 43.16 291.875 43.28 292.115 43.28C292.355 43.28 292.505 43.16 292.565 42.92L296.615 27.53C296.915 26.57 297.395 25.82 298.055 25.28C298.775 24.68 299.585 24.38 300.485 24.38H303.095C304.475 24.38 305.555 24.95 306.335 26.09C307.235 27.05 307.475 28.22 307.055 29.6ZM358.264 66.86C358.264 68 357.844 68.99 357.004 69.83C356.224 70.61 355.264 71 354.124 71H351.604C350.464 71 349.474 70.61 348.634 69.83C347.854 68.99 347.464 68 347.464 66.86V36.35C347.464 35.51 347.074 35.09 346.294 35.09H342.784C342.064 35.09 341.704 35.51 341.704 36.35V66.86C341.704 68 341.284 68.99 340.444 69.83C339.664 70.61 338.704 71 337.564 71H335.134C333.994 71 333.004 70.61 332.164 69.83C331.384 68.99 330.994 68 330.994 66.86V36.35C330.994 35.51 330.634 35.09 329.914 35.09H326.404C325.624 35.09 325.234 35.51 325.234 36.35V66.86C325.234 68 324.814 68.99 323.974 69.83C323.194 70.61 322.234 71 321.094 71H318.574C317.434 71 316.444 70.61 315.604 69.83C314.824 68.99 314.434 68 314.434 66.86V34.46C314.434 32.6 314.884 30.92 315.784 29.42C316.744 27.86 317.974 26.63 319.474 25.73C320.974 24.83 322.654 24.38 324.514 24.38H331.624C332.944 24.38 334.144 24.65 335.224 25.19C335.944 25.37 336.694 25.37 337.474 25.19C338.554 24.65 339.754 24.38 341.074 24.38H348.184C350.044 24.38 351.724 24.83 353.224 25.73C354.724 26.63 355.924 27.86 356.824 29.42C357.784 30.92 358.264 32.6 358.264 34.46V66.86ZM398.078 44.27C398.078 46.07 397.628 47.75 396.728 49.31C395.828 50.81 394.628 52.04 393.128 53C391.628 53.9 389.948 54.35 388.088 54.35H377.468C377.168 54.35 376.868 54.47 376.568 54.71C376.328 54.89 376.208 55.13 376.208 55.43V59.21C376.208 59.51 376.328 59.78 376.568 60.02C376.868 60.26 377.168 60.38 377.468 60.38H388.088C389.228 60.38 390.188 60.77 390.968 61.55C391.808 62.33 392.228 63.32 392.228 64.52V66.86C392.228 68 391.808 68.99 390.968 69.83C390.188 70.61 389.228 71 388.088 71H375.578C372.818 71 370.448 70.04 368.468 68.12C366.488 66.14 365.498 63.74 365.498 60.92V34.46C365.498 32.6 365.948 30.92 366.848 29.42C367.808 27.92 369.038 26.72 370.538 25.82C372.038 24.86 373.718 24.38 375.578 24.38H388.088C389.948 24.38 391.628 24.86 393.128 25.82C394.628 26.72 395.828 27.92 396.728 29.42C397.628 30.92 398.078 32.6 398.078 34.46V44.27ZM387.458 42.47V36.35C387.458 35.99 387.308 35.69 387.008 35.45C386.768 35.21 386.498 35.09 386.198 35.09H377.468C377.168 35.09 376.868 35.21 376.568 35.45C376.328 35.69 376.208 35.99 376.208 36.35V42.47C376.208 42.71 376.328 42.95 376.568 43.19C376.868 43.43 377.168 43.55 377.468 43.55H386.198C386.498 43.55 386.768 43.43 387.008 43.19C387.308 42.95 387.458 42.71 387.458 42.47ZM437.981 66.86C437.981 68 437.591 68.99 436.811 69.83C436.031 70.61 435.071 71 433.931 71H431.411C430.271 71 429.311 70.61 428.531 69.83C427.751 68.99 427.361 68 427.361 66.86V36.35C427.361 35.99 427.211 35.69 426.911 35.45C426.671 35.21 426.401 35.09 426.101 35.09H417.371C417.071 35.09 416.771 35.21 416.471 35.45C416.231 35.69 416.111 35.99 416.111 36.35V66.86C416.111 68 415.721 68.99 414.941 69.83C414.161 70.61 413.201 71 412.061 71H409.541C408.401 71 407.411 70.61 406.571 69.83C405.791 68.99 405.401 68 405.401 66.86V34.46C405.401 32.6 405.851 30.92 406.751 29.42C407.711 27.86 408.941 26.63 410.441 25.73C411.941 24.83 413.621 24.38 415.481 24.38H427.991C429.851 24.38 431.531 24.83 433.031 25.73C434.531 26.63 435.731 27.86 436.631 29.42C437.531 30.92 437.981 32.6 437.981 34.46V66.86ZM472.033 66.86C472.033 68 471.643 68.99 470.863 69.83C470.083 70.61 469.123 71 467.983 71H455.383C452.623 71 450.253 70.04 448.273 68.12C446.353 66.14 445.393 63.74 445.393 60.92V14.3C445.393 13.1 445.783 12.11 446.563 11.33C447.343 10.55 448.303 10.16 449.443 10.16H451.963C453.103 10.16 454.063 10.55 454.843 11.33C455.683 12.11 456.103 13.1 456.103 14.3V23.3C456.103 24.02 456.493 24.38 457.273 24.38H467.983C469.123 24.38 470.083 24.8 470.863 25.64C471.643 26.42 472.033 27.41 472.033 28.61V31.04C472.033 32.06 471.643 33.02 470.863 33.92C469.963 34.7 469.003 35.09 467.983 35.09H457.273C456.493 35.09 456.103 35.51 456.103 36.35V59.21C456.103 59.99 456.493 60.38 457.273 60.38H467.983C469.123 60.38 470.083 60.77 470.863 61.55C471.643 62.33 472.033 63.32 472.033 64.52V66.86Z" fill="#3C6FF5"/>
<defs>
<linearGradient id="paint0_linear_2016_141" x1="3825.18" y1="814.73" x2="1070.75" y2="1845.22" gradientUnits="userSpaceOnUse">
<stop stop-color="#3C6FF5"/>
<stop offset="1" stop-color="#3C6FF5"/>
</linearGradient>
<linearGradient id="paint1_linear_2016_141" x1="4049.84" y1="426.492" x2="2109.1" y2="2044.38" gradientUnits="userSpaceOnUse">
<stop stop-color="#3C6FF5"/>
<stop offset="1" stop-color="#3C6FF5"/>
</linearGradient>
<linearGradient id="paint2_linear_2016_141" x1="4059.7" y1="392.171" x2="2080.48" y2="2007.52" gradientUnits="userSpaceOnUse">
<stop stop-color="#3C6FF5"/>
<stop offset="1" stop-color="#3C6FF5"/>
</linearGradient>
<clipPath id="clip0_2016_141">
<rect width="84" height="82" fill="white"/>
</clipPath>
</defs>
</svg>
