<svg width="293" height="71" viewBox="0 0 293 71" fill="none" xmlns="http://www.w3.org/2000/svg">
<mask id="path-1-inside-1_2062_18" fill="white">
<path d="M0 16C0 7.16344 7.16344 0 16 0H277C285.837 0 293 7.16344 293 16V55C293 63.8366 285.837 71 277 71H16C7.16344 71 0 63.8366 0 55V16Z"/>
</mask>
<path d="M0 16C0 7.16344 7.16344 0 16 0H277C285.837 0 293 7.16344 293 16V55C293 63.8366 285.837 71 277 71H16C7.16344 71 0 63.8366 0 55V16Z" fill="url(#paint0_linear_2062_18)"/>
<path d="M0 16C0 6.33502 7.83502 -1.5 17.5 -1.5H275.5C285.165 -1.5 293 6.33502 293 16C293 7.99187 285.837 1.5 277 1.5H16C7.16344 1.5 0 7.99187 0 16ZM293 71H0H293ZM0 71V0V71ZM293 0V71V0Z" fill="#5A9FFA" mask="url(#path-1-inside-1_2062_18)"/>
<mask id="path-3-outside-2_2062_18" maskUnits="userSpaceOnUse" x="15" y="23" width="265" height="25" fill="black">
<rect fill="white" x="15" y="23" width="265" height="25"/>
<path d="M26.9536 42.79C28.1736 42.79 29.2236 42.59 30.1036 42.19C30.9836 41.77 31.9036 41.11 32.8636 40.21L35.1436 42.55C32.9236 45.01 30.2236 46.24 27.0436 46.24C23.8836 46.24 21.2536 45.22 19.1536 43.18C17.0736 41.14 16.0336 38.56 16.0336 35.44C16.0336 32.32 17.0936 29.72 19.2136 27.64C21.3536 25.56 24.0436 24.52 27.2836 24.52C30.5436 24.52 33.2636 25.72 35.4436 28.12L33.1936 30.58C32.1936 29.62 31.2436 28.95 30.3436 28.57C29.4636 28.19 28.4236 28 27.2236 28C25.1036 28 23.3236 28.69 21.8836 30.07C20.4436 31.43 19.7236 33.18 19.7236 35.32C19.7236 37.44 20.4336 39.22 21.8536 40.66C23.2936 42.08 24.9936 42.79 26.9536 42.79ZM42.7135 41.8C43.6735 42.76 44.8835 43.24 46.3435 43.24C47.8035 43.24 49.0035 42.76 49.9435 41.8C50.9035 40.82 51.3835 39.56 51.3835 38.02C51.3835 36.48 50.9035 35.23 49.9435 34.27C49.0035 33.29 47.8035 32.8 46.3435 32.8C44.8835 32.8 43.6735 33.29 42.7135 34.27C41.7735 35.23 41.3035 36.48 41.3035 38.02C41.3035 39.56 41.7735 40.82 42.7135 41.8ZM52.3435 43.87C50.7435 45.45 48.7435 46.24 46.3435 46.24C43.9435 46.24 41.9435 45.45 40.3435 43.87C38.7435 42.27 37.9435 40.32 37.9435 38.02C37.9435 35.72 38.7435 33.78 40.3435 32.2C41.9435 30.6 43.9435 29.8 46.3435 29.8C48.7435 29.8 50.7435 30.6 52.3435 32.2C53.9435 33.78 54.7435 35.72 54.7435 38.02C54.7435 40.32 53.9435 42.27 52.3435 43.87ZM61.9238 37.36V46H58.5638V30.04H61.9238V32.95C62.4638 31.97 63.2038 31.2 64.1438 30.64C65.1038 30.08 66.1338 29.8 67.2338 29.8C69.0338 29.8 70.4838 30.35 71.5838 31.45C72.7038 32.55 73.2638 34.14 73.2638 36.22V46H69.9038V37.24C69.9038 34.3 68.6838 32.83 66.2438 32.83C65.0838 32.83 64.0738 33.22 63.2138 34C62.3538 34.76 61.9238 35.88 61.9238 37.36ZM81.3183 37.36V46H77.9583V30.04H81.3183V32.95C81.8583 31.97 82.5983 31.2 83.5383 30.64C84.4983 30.08 85.5283 29.8 86.6283 29.8C88.4283 29.8 89.8783 30.35 90.9783 31.45C92.0983 32.55 92.6583 34.14 92.6583 36.22V46H89.2983V37.24C89.2983 34.3 88.0783 32.83 85.6383 32.83C84.4783 32.83 83.4683 33.22 82.6083 34C81.7483 34.76 81.3183 35.88 81.3183 37.36ZM112.203 39.49H99.6929C99.7729 40.65 100.303 41.59 101.283 42.31C102.263 43.01 103.383 43.36 104.643 43.36C106.643 43.36 108.163 42.73 109.203 41.47L111.123 43.57C109.403 45.35 107.163 46.24 104.403 46.24C102.163 46.24 100.253 45.5 98.6729 44.02C97.1129 42.52 96.3329 40.52 96.3329 38.02C96.3329 35.5 97.1329 33.5 98.7329 32.02C100.333 30.54 102.213 29.8 104.373 29.8C106.553 29.8 108.403 30.46 109.923 31.78C111.443 33.08 112.203 34.88 112.203 37.18V39.49ZM99.6929 36.85H108.843C108.843 35.51 108.423 34.48 107.583 33.76C106.743 33.04 105.703 32.68 104.463 32.68C103.243 32.68 102.143 33.06 101.163 33.82C100.183 34.56 99.6929 35.57 99.6929 36.85ZM122.978 46.24C120.758 46.24 118.848 45.49 117.248 43.99C115.648 42.47 114.848 40.49 114.848 38.05C114.848 35.61 115.678 33.63 117.338 32.11C119.018 30.57 121.058 29.8 123.458 29.8C125.858 29.8 127.888 30.63 129.548 32.29L127.568 34.72C126.188 33.52 124.798 32.92 123.398 32.92C121.998 32.92 120.778 33.39 119.738 34.33C118.718 35.25 118.208 36.45 118.208 37.93C118.208 39.39 118.718 40.63 119.738 41.65C120.758 42.67 122.008 43.18 123.488 43.18C124.988 43.18 126.398 42.5 127.718 41.14L129.698 43.3C127.758 45.26 125.518 46.24 122.978 46.24ZM137.323 32.74V40.84C137.323 41.6 137.523 42.21 137.923 42.67C138.323 43.11 138.883 43.33 139.603 43.33C140.323 43.33 141.013 42.98 141.673 42.28L143.053 44.65C141.873 45.71 140.563 46.24 139.123 46.24C137.703 46.24 136.483 45.75 135.463 44.77C134.463 43.77 133.963 42.43 133.963 40.75V32.74H131.953V30.04H133.963V25.03H137.323V30.04H141.523V32.74H137.323ZM156.672 41.23L154.572 46H150.792L160.032 25.03H163.812L173.052 46H169.272L167.172 41.23H156.672ZM165.732 37.96L161.922 29.32L158.112 37.96H165.732ZM182.568 46.24C180.348 46.24 178.438 45.49 176.838 43.99C175.238 42.47 174.438 40.49 174.438 38.05C174.438 35.61 175.268 33.63 176.928 32.11C178.608 30.57 180.648 29.8 183.048 29.8C185.448 29.8 187.478 30.63 189.138 32.29L187.158 34.72C185.778 33.52 184.388 32.92 182.988 32.92C181.588 32.92 180.368 33.39 179.328 34.33C178.308 35.25 177.798 36.45 177.798 37.93C177.798 39.39 178.308 40.63 179.328 41.65C180.348 42.67 181.598 43.18 183.078 43.18C184.578 43.18 185.988 42.5 187.308 41.14L189.288 43.3C187.348 45.26 185.108 46.24 182.568 46.24ZM199.853 46.24C197.633 46.24 195.723 45.49 194.123 43.99C192.523 42.47 191.723 40.49 191.723 38.05C191.723 35.61 192.553 33.63 194.213 32.11C195.893 30.57 197.933 29.8 200.333 29.8C202.733 29.8 204.763 30.63 206.423 32.29L204.443 34.72C203.063 33.52 201.673 32.92 200.273 32.92C198.873 32.92 197.653 33.39 196.613 34.33C195.593 35.25 195.083 36.45 195.083 37.93C195.083 39.39 195.593 40.63 196.613 41.65C197.633 42.67 198.883 43.18 200.363 43.18C201.863 43.18 203.273 42.5 204.593 41.14L206.573 43.3C204.633 45.26 202.393 46.24 199.853 46.24ZM213.778 41.8C214.738 42.76 215.948 43.24 217.408 43.24C218.868 43.24 220.068 42.76 221.008 41.8C221.968 40.82 222.448 39.56 222.448 38.02C222.448 36.48 221.968 35.23 221.008 34.27C220.068 33.29 218.868 32.8 217.408 32.8C215.948 32.8 214.738 33.29 213.778 34.27C212.838 35.23 212.368 36.48 212.368 38.02C212.368 39.56 212.838 40.82 213.778 41.8ZM223.408 43.87C221.808 45.45 219.808 46.24 217.408 46.24C215.008 46.24 213.008 45.45 211.408 43.87C209.808 42.27 209.008 40.32 209.008 38.02C209.008 35.72 209.808 33.78 211.408 32.2C213.008 30.6 215.008 29.8 217.408 29.8C219.808 29.8 221.808 30.6 223.408 32.2C225.008 33.78 225.808 35.72 225.808 38.02C225.808 40.32 225.008 42.27 223.408 43.87ZM240.788 38.68V30.04H244.148V46H240.788V43.09C240.248 44.07 239.498 44.84 238.538 45.4C237.598 45.96 236.578 46.24 235.478 46.24C233.678 46.24 232.218 45.69 231.098 44.59C229.998 43.49 229.448 41.9 229.448 39.82V30.04H232.808V38.8C232.808 41.74 234.028 43.21 236.468 43.21C237.628 43.21 238.638 42.83 239.498 42.07C240.358 41.29 240.788 40.16 240.788 38.68ZM252.383 37.36V46H249.023V30.04H252.383V32.95C252.923 31.97 253.663 31.2 254.603 30.64C255.563 30.08 256.593 29.8 257.693 29.8C259.493 29.8 260.943 30.35 262.043 31.45C263.163 32.55 263.723 34.14 263.723 36.22V46H260.363V37.24C260.363 34.3 259.143 32.83 256.703 32.83C255.543 32.83 254.533 33.22 253.673 34C252.813 34.76 252.383 35.88 252.383 37.36ZM272.557 32.74V40.84C272.557 41.6 272.757 42.21 273.157 42.67C273.557 43.11 274.117 43.33 274.837 43.33C275.557 43.33 276.247 42.98 276.907 42.28L278.287 44.65C277.107 45.71 275.797 46.24 274.357 46.24C272.937 46.24 271.717 45.75 270.697 44.77C269.697 43.77 269.197 42.43 269.197 40.75V32.74H267.187V30.04H269.197V25.03H272.557V30.04H276.757V32.74H272.557Z"/>
</mask>
<path d="M26.9536 42.79C28.1736 42.79 29.2236 42.59 30.1036 42.19C30.9836 41.77 31.9036 41.11 32.8636 40.21L35.1436 42.55C32.9236 45.01 30.2236 46.24 27.0436 46.24C23.8836 46.24 21.2536 45.22 19.1536 43.18C17.0736 41.14 16.0336 38.56 16.0336 35.44C16.0336 32.32 17.0936 29.72 19.2136 27.64C21.3536 25.56 24.0436 24.52 27.2836 24.52C30.5436 24.52 33.2636 25.72 35.4436 28.12L33.1936 30.58C32.1936 29.62 31.2436 28.95 30.3436 28.57C29.4636 28.19 28.4236 28 27.2236 28C25.1036 28 23.3236 28.69 21.8836 30.07C20.4436 31.43 19.7236 33.18 19.7236 35.32C19.7236 37.44 20.4336 39.22 21.8536 40.66C23.2936 42.08 24.9936 42.79 26.9536 42.79ZM42.7135 41.8C43.6735 42.76 44.8835 43.24 46.3435 43.24C47.8035 43.24 49.0035 42.76 49.9435 41.8C50.9035 40.82 51.3835 39.56 51.3835 38.02C51.3835 36.48 50.9035 35.23 49.9435 34.27C49.0035 33.29 47.8035 32.8 46.3435 32.8C44.8835 32.8 43.6735 33.29 42.7135 34.27C41.7735 35.23 41.3035 36.48 41.3035 38.02C41.3035 39.56 41.7735 40.82 42.7135 41.8ZM52.3435 43.87C50.7435 45.45 48.7435 46.24 46.3435 46.24C43.9435 46.24 41.9435 45.45 40.3435 43.87C38.7435 42.27 37.9435 40.32 37.9435 38.02C37.9435 35.72 38.7435 33.78 40.3435 32.2C41.9435 30.6 43.9435 29.8 46.3435 29.8C48.7435 29.8 50.7435 30.6 52.3435 32.2C53.9435 33.78 54.7435 35.72 54.7435 38.02C54.7435 40.32 53.9435 42.27 52.3435 43.87ZM61.9238 37.36V46H58.5638V30.04H61.9238V32.95C62.4638 31.97 63.2038 31.2 64.1438 30.64C65.1038 30.08 66.1338 29.8 67.2338 29.8C69.0338 29.8 70.4838 30.35 71.5838 31.45C72.7038 32.55 73.2638 34.14 73.2638 36.22V46H69.9038V37.24C69.9038 34.3 68.6838 32.83 66.2438 32.83C65.0838 32.83 64.0738 33.22 63.2138 34C62.3538 34.76 61.9238 35.88 61.9238 37.36ZM81.3183 37.36V46H77.9583V30.04H81.3183V32.95C81.8583 31.97 82.5983 31.2 83.5383 30.64C84.4983 30.08 85.5283 29.8 86.6283 29.8C88.4283 29.8 89.8783 30.35 90.9783 31.45C92.0983 32.55 92.6583 34.14 92.6583 36.22V46H89.2983V37.24C89.2983 34.3 88.0783 32.83 85.6383 32.83C84.4783 32.83 83.4683 33.22 82.6083 34C81.7483 34.76 81.3183 35.88 81.3183 37.36ZM112.203 39.49H99.6929C99.7729 40.65 100.303 41.59 101.283 42.31C102.263 43.01 103.383 43.36 104.643 43.36C106.643 43.36 108.163 42.73 109.203 41.47L111.123 43.57C109.403 45.35 107.163 46.24 104.403 46.24C102.163 46.24 100.253 45.5 98.6729 44.02C97.1129 42.52 96.3329 40.52 96.3329 38.02C96.3329 35.5 97.1329 33.5 98.7329 32.02C100.333 30.54 102.213 29.8 104.373 29.8C106.553 29.8 108.403 30.46 109.923 31.78C111.443 33.08 112.203 34.88 112.203 37.18V39.49ZM99.6929 36.85H108.843C108.843 35.51 108.423 34.48 107.583 33.76C106.743 33.04 105.703 32.68 104.463 32.68C103.243 32.68 102.143 33.06 101.163 33.82C100.183 34.56 99.6929 35.57 99.6929 36.85ZM122.978 46.24C120.758 46.24 118.848 45.49 117.248 43.99C115.648 42.47 114.848 40.49 114.848 38.05C114.848 35.61 115.678 33.63 117.338 32.11C119.018 30.57 121.058 29.8 123.458 29.8C125.858 29.8 127.888 30.63 129.548 32.29L127.568 34.72C126.188 33.52 124.798 32.92 123.398 32.92C121.998 32.92 120.778 33.39 119.738 34.33C118.718 35.25 118.208 36.45 118.208 37.93C118.208 39.39 118.718 40.63 119.738 41.65C120.758 42.67 122.008 43.18 123.488 43.18C124.988 43.18 126.398 42.5 127.718 41.14L129.698 43.3C127.758 45.26 125.518 46.24 122.978 46.24ZM137.323 32.74V40.84C137.323 41.6 137.523 42.21 137.923 42.67C138.323 43.11 138.883 43.33 139.603 43.33C140.323 43.33 141.013 42.98 141.673 42.28L143.053 44.65C141.873 45.71 140.563 46.24 139.123 46.24C137.703 46.24 136.483 45.75 135.463 44.77C134.463 43.77 133.963 42.43 133.963 40.75V32.74H131.953V30.04H133.963V25.03H137.323V30.04H141.523V32.74H137.323ZM156.672 41.23L154.572 46H150.792L160.032 25.03H163.812L173.052 46H169.272L167.172 41.23H156.672ZM165.732 37.96L161.922 29.32L158.112 37.96H165.732ZM182.568 46.24C180.348 46.24 178.438 45.49 176.838 43.99C175.238 42.47 174.438 40.49 174.438 38.05C174.438 35.61 175.268 33.63 176.928 32.11C178.608 30.57 180.648 29.8 183.048 29.8C185.448 29.8 187.478 30.63 189.138 32.29L187.158 34.72C185.778 33.52 184.388 32.92 182.988 32.92C181.588 32.92 180.368 33.39 179.328 34.33C178.308 35.25 177.798 36.45 177.798 37.93C177.798 39.39 178.308 40.63 179.328 41.65C180.348 42.67 181.598 43.18 183.078 43.18C184.578 43.18 185.988 42.5 187.308 41.14L189.288 43.3C187.348 45.26 185.108 46.24 182.568 46.24ZM199.853 46.24C197.633 46.24 195.723 45.49 194.123 43.99C192.523 42.47 191.723 40.49 191.723 38.05C191.723 35.61 192.553 33.63 194.213 32.11C195.893 30.57 197.933 29.8 200.333 29.8C202.733 29.8 204.763 30.63 206.423 32.29L204.443 34.72C203.063 33.52 201.673 32.92 200.273 32.92C198.873 32.92 197.653 33.39 196.613 34.33C195.593 35.25 195.083 36.45 195.083 37.93C195.083 39.39 195.593 40.63 196.613 41.65C197.633 42.67 198.883 43.18 200.363 43.18C201.863 43.18 203.273 42.5 204.593 41.14L206.573 43.3C204.633 45.26 202.393 46.24 199.853 46.24ZM213.778 41.8C214.738 42.76 215.948 43.24 217.408 43.24C218.868 43.24 220.068 42.76 221.008 41.8C221.968 40.82 222.448 39.56 222.448 38.02C222.448 36.48 221.968 35.23 221.008 34.27C220.068 33.29 218.868 32.8 217.408 32.8C215.948 32.8 214.738 33.29 213.778 34.27C212.838 35.23 212.368 36.48 212.368 38.02C212.368 39.56 212.838 40.82 213.778 41.8ZM223.408 43.87C221.808 45.45 219.808 46.24 217.408 46.24C215.008 46.24 213.008 45.45 211.408 43.87C209.808 42.27 209.008 40.32 209.008 38.02C209.008 35.72 209.808 33.78 211.408 32.2C213.008 30.6 215.008 29.8 217.408 29.8C219.808 29.8 221.808 30.6 223.408 32.2C225.008 33.78 225.808 35.72 225.808 38.02C225.808 40.32 225.008 42.27 223.408 43.87ZM240.788 38.68V30.04H244.148V46H240.788V43.09C240.248 44.07 239.498 44.84 238.538 45.4C237.598 45.96 236.578 46.24 235.478 46.24C233.678 46.24 232.218 45.69 231.098 44.59C229.998 43.49 229.448 41.9 229.448 39.82V30.04H232.808V38.8C232.808 41.74 234.028 43.21 236.468 43.21C237.628 43.21 238.638 42.83 239.498 42.07C240.358 41.29 240.788 40.16 240.788 38.68ZM252.383 37.36V46H249.023V30.04H252.383V32.95C252.923 31.97 253.663 31.2 254.603 30.64C255.563 30.08 256.593 29.8 257.693 29.8C259.493 29.8 260.943 30.35 262.043 31.45C263.163 32.55 263.723 34.14 263.723 36.22V46H260.363V37.24C260.363 34.3 259.143 32.83 256.703 32.83C255.543 32.83 254.533 33.22 253.673 34C252.813 34.76 252.383 35.88 252.383 37.36ZM272.557 32.74V40.84C272.557 41.6 272.757 42.21 273.157 42.67C273.557 43.11 274.117 43.33 274.837 43.33C275.557 43.33 276.247 42.98 276.907 42.28L278.287 44.65C277.107 45.71 275.797 46.24 274.357 46.24C272.937 46.24 271.717 45.75 270.697 44.77C269.697 43.77 269.197 42.43 269.197 40.75V32.74H267.187V30.04H269.197V25.03H272.557V30.04H276.757V32.74H272.557Z" fill="white"/>
<path d="M30.1036 42.19L30.5174 43.1004L30.5259 43.0965L30.5344 43.0925L30.1036 42.19ZM32.8636 40.21L33.5799 39.5121L32.8953 38.8096L32.1797 39.4805L32.8636 40.21ZM35.1436 42.55L35.886 43.22L36.5143 42.5238L35.8599 41.8521L35.1436 42.55ZM19.1536 43.18L18.4534 43.8939L18.4568 43.8973L19.1536 43.18ZM19.2136 27.64L18.5166 26.9229L18.5133 26.9262L19.2136 27.64ZM35.4436 28.12L36.1815 28.7949L36.7967 28.1223L36.1839 27.4476L35.4436 28.12ZM33.1936 30.58L32.5011 31.3014L33.2401 32.0108L33.9315 31.2549L33.1936 30.58ZM30.3436 28.57L29.9472 29.4881L29.9547 29.4912L30.3436 28.57ZM21.8836 30.07L22.5703 30.797L22.5755 30.792L21.8836 30.07ZM21.8536 40.66L21.1415 41.3622L21.1515 41.372L21.8536 40.66ZM26.9536 43.79C28.2802 43.79 29.4781 43.5728 30.5174 43.1004L29.6898 41.2796C28.9691 41.6072 28.0671 41.79 26.9536 41.79V43.79ZM30.5344 43.0925C31.5332 42.6158 32.537 41.887 33.5476 40.9395L32.1797 39.4805C31.2703 40.333 30.4341 40.9242 29.6729 41.2875L30.5344 43.0925ZM32.1474 40.9079L34.4274 43.2479L35.8599 41.8521L33.5799 39.5121L32.1474 40.9079ZM34.4012 41.88C32.3618 44.1399 29.9274 45.24 27.0436 45.24V47.24C30.5199 47.24 33.4854 45.8801 35.886 43.22L34.4012 41.88ZM27.0436 45.24C24.1211 45.24 21.7481 44.3062 19.8504 42.4627L18.4568 43.8973C20.7592 46.1338 23.6461 47.24 27.0436 47.24V45.24ZM19.8538 42.4661C17.9802 40.6284 17.0336 38.3126 17.0336 35.44H15.0336C15.0336 38.8074 16.1671 41.6516 18.4534 43.8939L19.8538 42.4661ZM17.0336 35.44C17.0336 32.5734 17.9962 30.2354 19.914 28.3538L18.5133 26.9262C16.1911 29.2046 15.0336 32.0666 15.0336 35.44H17.0336ZM19.9106 28.3571C21.8471 26.4749 24.2794 25.52 27.2836 25.52V23.52C23.8078 23.52 20.8602 24.6451 18.5167 26.9229L19.9106 28.3571ZM27.2836 25.52C30.2635 25.52 32.7141 26.6023 34.7034 28.7924L36.1839 27.4476C33.8131 24.8377 30.8238 23.52 27.2836 23.52V25.52ZM34.7057 27.4451L32.4557 29.9051L33.9315 31.2549L36.1815 28.7949L34.7057 27.4451ZM33.8862 29.8586C32.832 28.8466 31.7817 28.0917 30.7326 27.6487L29.9547 29.4912C30.7056 29.8083 31.5552 30.3934 32.5011 31.3014L33.8862 29.8586ZM30.7401 27.6519C29.7076 27.2061 28.5268 27 27.2236 27V29C28.3205 29 29.2197 29.1739 29.9472 29.4881L30.7401 27.6519ZM27.2236 27C24.8637 27 22.8304 27.7776 21.1917 29.348L22.5755 30.792C23.8169 29.6024 25.3436 29 27.2236 29V27ZM21.197 29.343C19.5397 30.9082 18.7236 32.9295 18.7236 35.32H20.7236C20.7236 33.4305 21.3475 31.9518 22.5703 30.797L21.197 29.343ZM18.7236 35.32C18.7236 37.6887 19.5274 39.7252 21.1416 41.3621L22.5657 39.9579C21.3399 38.7148 20.7236 37.1913 20.7236 35.32H18.7236ZM21.1515 41.372C22.772 42.97 24.7217 43.79 26.9536 43.79V41.79C25.2656 41.79 23.8153 41.19 22.5558 39.948L21.1515 41.372ZM42.7135 41.8L41.9918 42.4922L41.999 42.4997L42.0064 42.5071L42.7135 41.8ZM49.9435 41.8L49.2291 41.1002L49.229 41.1004L49.9435 41.8ZM49.9435 34.27L49.2218 34.9622L49.229 34.9697L49.2364 34.9771L49.9435 34.27ZM42.7135 34.27L41.9991 33.5702L41.999 33.5704L42.7135 34.27ZM52.3435 43.87L53.0461 44.5816L53.0506 44.5771L52.3435 43.87ZM40.3435 43.87L39.6364 44.5771L39.6408 44.5815L40.3435 43.87ZM40.3435 32.2L41.0461 32.9116L41.0506 32.9071L40.3435 32.2ZM52.3435 32.2L51.6364 32.9071L51.6408 32.9115L52.3435 32.2ZM42.0064 42.5071C43.169 43.6697 44.6404 44.24 46.3435 44.24V42.24C45.1266 42.24 44.178 41.8503 43.4206 41.0929L42.0064 42.5071ZM46.3435 44.24C48.0466 44.24 49.5126 43.6694 50.658 42.4996L49.229 41.1004C48.4944 41.8506 47.5604 42.24 46.3435 42.24V44.24ZM50.6578 42.4998C51.824 41.3093 52.3835 39.7867 52.3835 38.02H50.3835C50.3835 39.3333 49.983 40.3307 49.2291 41.1002L50.6578 42.4998ZM52.3835 38.02C52.3835 36.2536 51.8239 34.7362 50.6506 33.5629L49.2364 34.9771C49.9831 35.7238 50.3835 36.7064 50.3835 38.02H52.3835ZM50.6652 33.5778C49.5214 32.3853 48.0531 31.8 46.3435 31.8V33.8C47.5538 33.8 48.4856 34.1947 49.2218 34.9622L50.6652 33.5778ZM46.3435 31.8C44.6339 31.8 43.1602 32.3849 41.9991 33.5702L43.4278 34.9698C44.1867 34.1951 45.1331 33.8 46.3435 33.8V31.8ZM41.999 33.5704C40.8489 34.7449 40.3035 36.2598 40.3035 38.02H42.3035C42.3035 36.7002 42.698 35.7151 43.428 34.9696L41.999 33.5704ZM40.3035 38.02C40.3035 39.7806 40.8489 41.3007 41.9918 42.4922L43.4352 41.1078C42.6981 40.3393 42.3035 39.3394 42.3035 38.02H40.3035ZM51.6408 43.1585C50.2415 44.5403 48.5 45.24 46.3435 45.24V47.24C48.9869 47.24 51.2455 46.3597 53.0461 44.5815L51.6408 43.1585ZM46.3435 45.24C44.1869 45.24 42.4455 44.5403 41.0461 43.1585L39.6408 44.5815C41.4415 46.3597 43.7 47.24 46.3435 47.24V45.24ZM41.0506 43.1629C39.6416 41.7539 38.9435 40.0597 38.9435 38.02H36.9435C36.9435 40.5803 37.8454 42.7861 39.6364 44.5771L41.0506 43.1629ZM38.9435 38.02C38.9435 35.9805 39.6412 34.2989 41.0461 32.9115L39.6408 31.4885C37.8457 33.2611 36.9435 35.4595 36.9435 38.02H38.9435ZM41.0506 32.9071C42.4508 31.5069 44.1908 30.8 46.3435 30.8V28.8C43.6961 28.8 41.4362 29.6931 39.6364 31.4929L41.0506 32.9071ZM46.3435 30.8C48.4961 30.8 50.2362 31.5069 51.6364 32.9071L53.0506 31.4929C51.2508 29.6931 48.9908 28.8 46.3435 28.8V30.8ZM51.6408 32.9115C53.0457 34.2989 53.7435 35.9805 53.7435 38.02H55.7435C55.7435 35.4595 54.8412 33.2611 53.0461 31.4885L51.6408 32.9115ZM53.7435 38.02C53.7435 40.0597 53.0454 41.7539 51.6364 43.1629L53.0506 44.5771C54.8416 42.7861 55.7435 40.5803 55.7435 38.02H53.7435ZM61.9238 46V47H62.9238V46H61.9238ZM58.5638 46H57.5638V47H58.5638V46ZM58.5638 30.04V29.04H57.5638V30.04H58.5638ZM61.9238 30.04H62.9238V29.04H61.9238V30.04ZM61.9238 32.95H60.9238L62.7996 33.4326L61.9238 32.95ZM64.1438 30.64L63.6399 29.7762L63.632 29.7809L64.1438 30.64ZM71.5838 31.45L70.8767 32.1571L70.8831 32.1634L71.5838 31.45ZM73.2638 46V47H74.2638V46H73.2638ZM69.9038 46H68.9038V47H69.9038V46ZM63.2138 34L63.876 34.7494L63.8856 34.7407L63.2138 34ZM60.9238 37.36V46H62.9238V37.36H60.9238ZM61.9238 45H58.5638V47H61.9238V45ZM59.5638 46V30.04H57.5638V46H59.5638ZM58.5638 31.04H61.9238V29.04H58.5638V31.04ZM60.9238 30.04V32.95H62.9238V30.04H60.9238ZM62.7996 33.4326C63.2559 32.6045 63.8718 31.966 64.6556 31.4991L63.632 29.7809C62.5358 30.434 61.6717 31.3355 61.048 32.4674L62.7996 33.4326ZM64.6477 31.5038C65.4564 31.032 66.3128 30.8 67.2338 30.8V28.8C65.9548 28.8 64.7512 29.128 63.6399 29.7762L64.6477 31.5038ZM67.2338 30.8C68.8137 30.8 69.9939 31.2743 70.8767 32.1571L72.2909 30.7429C70.9737 29.4257 69.2539 28.8 67.2338 28.8V30.8ZM70.8831 32.1634C71.7555 33.0203 72.2638 34.3178 72.2638 36.22H74.2638C74.2638 33.9622 73.6521 32.0797 72.2845 30.7366L70.8831 32.1634ZM72.2638 36.22V46H74.2638V36.22H72.2638ZM73.2638 45H69.9038V47H73.2638V45ZM70.9038 46V37.24H68.9038V46H70.9038ZM70.9038 37.24C70.9038 35.6565 70.5791 34.2828 69.7583 33.2939C68.9079 32.2692 67.6721 31.83 66.2438 31.83V33.83C67.2555 33.83 67.8497 34.1258 68.2193 34.5711C68.6185 35.0522 68.9038 35.8835 68.9038 37.24H70.9038ZM66.2438 31.83C64.8352 31.83 63.5858 32.3126 62.542 33.2593L63.8856 34.7407C64.5618 34.1274 65.3324 33.83 66.2438 33.83V31.83ZM62.5516 33.2507C61.4184 34.2521 60.9238 35.6819 60.9238 37.36H62.9238C62.9238 36.0781 63.2892 35.2679 63.876 34.7493L62.5516 33.2507ZM81.3183 46V47H82.3183V46H81.3183ZM77.9583 46H76.9583V47H77.9583V46ZM77.9583 30.04V29.04H76.9583V30.04H77.9583ZM81.3183 30.04H82.3183V29.04H81.3183V30.04ZM81.3183 32.95H80.3183L82.1942 33.4326L81.3183 32.95ZM83.5383 30.64L83.0344 29.7762L83.0265 29.7809L83.5383 30.64ZM90.9783 31.45L90.2712 32.1571L90.2776 32.1634L90.9783 31.45ZM92.6583 46V47H93.6583V46H92.6583ZM89.2983 46H88.2983V47H89.2983V46ZM82.6083 34L83.2706 34.7494L83.2801 34.7407L82.6083 34ZM80.3183 37.36V46H82.3183V37.36H80.3183ZM81.3183 45H77.9583V47H81.3183V45ZM78.9583 46V30.04H76.9583V46H78.9583ZM77.9583 31.04H81.3183V29.04H77.9583V31.04ZM80.3183 30.04V32.95H82.3183V30.04H80.3183ZM82.1942 33.4326C82.6505 32.6045 83.2663 31.966 84.0501 31.4991L83.0265 29.7809C81.9303 30.434 81.0662 31.3355 80.4425 32.4674L82.1942 33.4326ZM84.0422 31.5038C84.8509 31.032 85.7073 30.8 86.6283 30.8V28.8C85.3493 28.8 84.1457 29.128 83.0344 29.7762L84.0422 31.5038ZM86.6283 30.8C88.2082 30.8 89.3884 31.2743 90.2712 32.1571L91.6854 30.7429C90.3682 29.4257 88.6484 28.8 86.6283 28.8V30.8ZM90.2776 32.1634C91.15 33.0203 91.6583 34.3178 91.6583 36.22H93.6583C93.6583 33.9622 93.0466 32.0797 91.679 30.7366L90.2776 32.1634ZM91.6583 36.22V46H93.6583V36.22H91.6583ZM92.6583 45H89.2983V47H92.6583V45ZM90.2983 46V37.24H88.2983V46H90.2983ZM90.2983 37.24C90.2983 35.6565 89.9736 34.2828 89.1528 33.2939C88.3024 32.2692 87.0666 31.83 85.6383 31.83V33.83C86.65 33.83 87.2442 34.1258 87.6138 34.5711C88.013 35.0522 88.2983 35.8835 88.2983 37.24H90.2983ZM85.6383 31.83C84.2297 31.83 82.9803 32.3126 81.9365 33.2593L83.2801 34.7407C83.9563 34.1274 84.7269 33.83 85.6383 33.83V31.83ZM81.9461 33.2507C80.8129 34.2521 80.3183 35.6819 80.3183 37.36H82.3183C82.3183 36.0781 82.6837 35.2679 83.2705 34.7493L81.9461 33.2507ZM112.203 39.49V40.49H113.203V39.49H112.203ZM99.6929 39.49V38.49H98.6215L98.6952 39.5588L99.6929 39.49ZM101.283 42.31L100.691 43.116L100.702 43.1237L101.283 42.31ZM109.203 41.47L109.941 40.7952L109.164 39.9458L108.432 40.8334L109.203 41.47ZM111.123 43.57L111.842 44.2649L112.495 43.5889L111.861 42.8952L111.123 43.57ZM98.6729 44.02L97.9797 44.7409L97.9892 44.7498L98.6729 44.02ZM98.7329 32.02L98.0538 31.2859L98.0538 31.2859L98.7329 32.02ZM109.923 31.78L109.267 32.5351L109.273 32.54L109.923 31.78ZM99.6929 36.85H98.6929V37.85H99.6929V36.85ZM108.843 36.85V37.85H109.843V36.85H108.843ZM101.163 33.82L101.766 34.6181L101.776 34.6102L101.163 33.82ZM112.203 38.49H99.6929V40.49H112.203V38.49ZM98.6952 39.5588C98.7965 41.0272 99.4862 42.2309 100.691 43.1159L101.875 41.5041C101.119 40.9491 100.749 40.2728 100.69 39.4212L98.6952 39.5588ZM100.702 43.1237C101.859 43.9507 103.185 44.36 104.643 44.36V42.36C103.581 42.36 102.666 42.0693 101.864 41.4963L100.702 43.1237ZM104.643 44.36C106.868 44.36 108.702 43.6479 109.974 42.1066L108.432 40.8334C107.624 41.8121 106.418 42.36 104.643 42.36V44.36ZM108.465 42.1448L110.385 44.2448L111.861 42.8952L109.941 40.7952L108.465 42.1448ZM110.404 42.8751C108.895 44.4367 106.926 45.24 104.403 45.24V47.24C107.4 47.24 109.911 46.2633 111.842 44.2649L110.404 42.8751ZM104.403 45.24C102.407 45.24 100.744 44.59 99.3565 43.2902L97.9892 44.7498C99.7615 46.41 101.919 47.24 104.403 47.24V45.24ZM99.366 43.2992C98.0329 42.0174 97.3329 40.294 97.3329 38.02H95.3329C95.3329 40.746 96.1928 43.0226 97.9797 44.7408L99.366 43.2992ZM97.3329 38.02C97.3329 35.731 98.0491 34.0147 99.4119 32.7541L98.0538 31.2859C96.2166 32.9853 95.3329 35.269 95.3329 38.02H97.3329ZM99.4119 32.7541C100.829 31.4433 102.467 30.8 104.373 30.8V28.8C101.959 28.8 99.8368 29.6367 98.0538 31.2859L99.4119 32.7541ZM104.373 30.8C106.333 30.8 107.945 31.3866 109.267 32.535L110.579 31.025C108.861 29.5334 106.772 28.8 104.373 28.8V30.8ZM109.273 32.54C110.536 33.6204 111.203 35.1235 111.203 37.18H113.203C113.203 34.6365 112.35 32.5396 110.573 31.02L109.273 32.54ZM111.203 37.18V39.49H113.203V37.18H111.203ZM99.6929 37.85H108.843V35.85H99.6929V37.85ZM109.843 36.85C109.843 35.2856 109.342 33.9506 108.234 33.0007L106.932 34.5193C107.504 35.0094 107.843 35.7344 107.843 36.85H109.843ZM108.234 33.0007C107.19 32.1065 105.911 31.68 104.463 31.68V33.68C105.495 33.68 106.295 33.9735 106.932 34.5193L108.234 33.0007ZM104.463 31.68C103.017 31.68 101.702 32.1362 100.55 33.0298L101.776 34.6102C102.583 33.9838 103.469 33.68 104.463 33.68V31.68ZM100.56 33.022C99.3178 33.9601 98.6929 35.2719 98.6929 36.85H100.693C100.693 35.8681 101.048 35.1599 101.765 34.618L100.56 33.022ZM117.248 43.99L116.559 44.715L116.564 44.7195L117.248 43.99ZM117.338 32.11L118.013 32.8475L118.013 32.8472L117.338 32.11ZM129.548 32.29L130.323 32.9217L130.894 32.2215L130.255 31.5829L129.548 32.29ZM127.568 34.72L126.912 35.4746L127.691 36.1521L128.343 35.3517L127.568 34.72ZM119.738 34.33L120.408 35.0726L120.408 35.0719L119.738 34.33ZM119.738 41.65L119.031 42.3571L119.031 42.3571L119.738 41.65ZM127.718 41.14L128.455 40.4643L127.739 39.6828L127 40.4435L127.718 41.14ZM129.698 43.3L130.408 44.0035L131.079 43.3265L130.435 42.6243L129.698 43.3ZM122.978 45.24C121.008 45.24 119.344 44.5844 117.932 43.2605L116.564 44.7195C118.352 46.3956 120.507 47.24 122.978 47.24V45.24ZM117.937 43.265C116.557 41.9548 115.848 40.2479 115.848 38.05H113.848C113.848 40.7321 114.738 42.9852 116.559 44.715L117.937 43.265ZM115.848 38.05C115.848 35.8641 116.579 34.161 118.013 32.8475L116.662 31.3725C114.777 33.099 113.848 35.3559 113.848 38.05H115.848ZM118.013 32.8472C119.499 31.4858 121.293 30.8 123.458 30.8V28.8C120.822 28.8 118.537 29.6542 116.662 31.3728L118.013 32.8472ZM123.458 30.8C125.599 30.8 127.373 31.5293 128.841 32.9971L130.255 31.5829C128.403 29.7307 126.116 28.8 123.458 28.8V30.8ZM128.773 31.6583L126.793 34.0883L128.343 35.3517L130.323 32.9217L128.773 31.6583ZM128.224 33.9654C126.719 32.6566 125.105 31.92 123.398 31.92V33.92C124.491 33.92 125.657 34.3834 126.912 35.4746L128.224 33.9654ZM123.398 31.92C121.75 31.92 120.291 32.4822 119.067 33.5881L120.408 35.0719C121.265 34.2978 122.246 33.92 123.398 33.92V31.92ZM119.068 33.5874C117.82 34.7129 117.208 36.1915 117.208 37.93H119.208C119.208 36.7085 119.615 35.7871 120.408 35.0726L119.068 33.5874ZM117.208 37.93C117.208 39.6516 117.821 41.147 119.031 42.3571L120.445 40.9429C119.615 40.113 119.208 39.1284 119.208 37.93H117.208ZM119.031 42.3571C120.244 43.57 121.75 44.18 123.488 44.18V42.18C122.265 42.18 121.272 41.77 120.445 40.9429L119.031 42.3571ZM123.488 44.18C125.325 44.18 126.98 43.3364 128.435 41.8365L127 40.4435C125.816 41.6636 124.65 42.18 123.488 42.18V44.18ZM126.981 41.8157L128.961 43.9757L130.435 42.6243L128.455 40.4643L126.981 41.8157ZM128.987 42.5965C127.217 44.3847 125.227 45.24 122.978 45.24V47.24C125.809 47.24 128.298 46.1353 130.408 44.0035L128.987 42.5965ZM137.323 32.74V31.74H136.323V32.74H137.323ZM137.923 42.67L137.168 43.3262L137.176 43.3345L137.183 43.3427L137.923 42.67ZM141.673 42.28L142.537 41.7768L141.864 40.6201L140.945 41.594L141.673 42.28ZM143.053 44.65L143.721 45.3939L144.327 44.8501L143.917 44.1468L143.053 44.65ZM135.463 44.77L134.756 45.4771L134.763 45.4842L134.77 45.4911L135.463 44.77ZM133.963 32.74H134.963V31.74H133.963V32.74ZM131.953 32.74H130.953V33.74H131.953V32.74ZM131.953 30.04V29.04H130.953V30.04H131.953ZM133.963 30.04V31.04H134.963V30.04H133.963ZM133.963 25.03V24.03H132.963V25.03H133.963ZM137.323 25.03H138.323V24.03H137.323V25.03ZM137.323 30.04H136.323V31.04H137.323V30.04ZM141.523 30.04H142.523V29.04H141.523V30.04ZM141.523 32.74V33.74H142.523V32.74H141.523ZM136.323 32.74V40.84H138.323V32.74H136.323ZM136.323 40.84C136.323 41.7795 136.574 42.6425 137.168 43.3262L138.678 42.0138C138.472 41.7775 138.323 41.4205 138.323 40.84H136.323ZM137.183 43.3427C137.812 44.0344 138.666 44.33 139.603 44.33V42.33C139.1 42.33 138.834 42.1856 138.663 41.9973L137.183 43.3427ZM139.603 44.33C140.682 44.33 141.618 43.7962 142.401 42.966L140.945 41.594C140.408 42.1638 139.964 42.33 139.603 42.33V44.33ZM140.809 42.7832L142.189 45.1532L143.917 44.1468L142.537 41.7768L140.809 42.7832ZM142.385 43.9061C141.368 44.8193 140.29 45.24 139.123 45.24V47.24C140.835 47.24 142.378 46.6007 143.721 45.3939L142.385 43.9061ZM139.123 45.24C137.96 45.24 136.989 44.8492 136.156 44.0489L134.77 45.4911C135.977 46.6508 137.446 47.24 139.123 47.24V45.24ZM136.17 44.0629C135.392 43.2852 134.963 42.2183 134.963 40.75H132.963C132.963 42.6417 133.534 44.2548 134.756 45.4771L136.17 44.0629ZM134.963 40.75V32.74H132.963V40.75H134.963ZM133.963 31.74H131.953V33.74H133.963V31.74ZM132.953 32.74V30.04H130.953V32.74H132.953ZM131.953 31.04H133.963V29.04H131.953V31.04ZM134.963 30.04V25.03H132.963V30.04H134.963ZM133.963 26.03H137.323V24.03H133.963V26.03ZM136.323 25.03V30.04H138.323V25.03H136.323ZM137.323 31.04H141.523V29.04H137.323V31.04ZM140.523 30.04V32.74H142.523V30.04H140.523ZM141.523 31.74H137.323V33.74H141.523V31.74ZM156.672 41.23V40.23H156.02L155.757 40.8271L156.672 41.23ZM154.572 46V47H155.224L155.487 46.4029L154.572 46ZM150.792 46L149.877 45.5968L149.259 47H150.792V46ZM160.032 25.03V24.03H159.38L159.117 24.6268L160.032 25.03ZM163.812 25.03L164.727 24.6268L164.464 24.03H163.812V25.03ZM173.052 46V47H174.585L173.967 45.5968L173.052 46ZM169.272 46L168.357 46.4029L168.62 47H169.272V46ZM167.172 41.23L168.087 40.8271L167.824 40.23H167.172V41.23ZM165.732 37.96V38.96H167.266L166.647 37.5565L165.732 37.96ZM161.922 29.32L162.837 28.9165L161.922 26.8416L161.007 28.9165L161.922 29.32ZM158.112 37.96L157.197 37.5565L156.578 38.96H158.112V37.96ZM155.757 40.8271L153.657 45.5971L155.487 46.4029L157.587 41.6329L155.757 40.8271ZM154.572 45H150.792V47H154.572V45ZM151.707 46.4032L160.947 25.4332L159.117 24.6268L149.877 45.5968L151.707 46.4032ZM160.032 26.03H163.812V24.03H160.032V26.03ZM162.897 25.4332L172.137 46.4032L173.967 45.5968L164.727 24.6268L162.897 25.4332ZM173.052 45H169.272V47H173.052V45ZM170.187 45.5971L168.087 40.8271L166.257 41.6329L168.357 46.4029L170.187 45.5971ZM167.172 40.23H156.672V42.23H167.172V40.23ZM166.647 37.5565L162.837 28.9165L161.007 29.7235L164.817 38.3635L166.647 37.5565ZM161.007 28.9165L157.197 37.5565L159.027 38.3635L162.837 29.7235L161.007 28.9165ZM158.112 38.96H165.732V36.96H158.112V38.96ZM176.838 43.99L176.149 44.715L176.154 44.7195L176.838 43.99ZM176.928 32.11L177.603 32.8475L177.603 32.8472L176.928 32.11ZM189.138 32.29L189.913 32.9217L190.483 32.2215L189.845 31.5829L189.138 32.29ZM187.158 34.72L186.501 35.4746L187.281 36.1521L187.933 35.3517L187.158 34.72ZM179.328 34.33L179.997 35.0726L179.998 35.0719L179.328 34.33ZM179.328 41.65L178.621 42.3571L178.621 42.3571L179.328 41.65ZM187.308 41.14L188.045 40.4643L187.328 39.6828L186.59 40.4435L187.308 41.14ZM189.288 43.3L189.998 44.0035L190.668 43.3265L190.025 42.6243L189.288 43.3ZM182.568 45.24C180.598 45.24 178.934 44.5844 177.522 43.2605L176.154 44.7195C177.942 46.3956 180.097 47.24 182.568 47.24V45.24ZM177.526 43.265C176.147 41.9548 175.438 40.2479 175.438 38.05H173.438C173.438 40.7321 174.328 42.9852 176.149 44.715L177.526 43.265ZM175.438 38.05C175.438 35.8641 176.169 34.161 177.603 32.8475L176.252 31.3725C174.367 33.099 173.438 35.3559 173.438 38.05H175.438ZM177.603 32.8472C179.088 31.4858 180.883 30.8 183.048 30.8V28.8C180.412 28.8 178.127 29.6542 176.252 31.3728L177.603 32.8472ZM183.048 30.8C185.189 30.8 186.963 31.5293 188.431 32.9971L189.845 31.5829C187.993 29.7307 185.706 28.8 183.048 28.8V30.8ZM188.362 31.6583L186.382 34.0883L187.933 35.3517L189.913 32.9217L188.362 31.6583ZM187.814 33.9654C186.309 32.6566 184.695 31.92 182.988 31.92V33.92C184.081 33.92 185.247 34.3834 186.501 35.4746L187.814 33.9654ZM182.988 31.92C181.339 31.92 179.881 32.4822 178.657 33.5881L179.998 35.0719C180.855 34.2978 181.836 33.92 182.988 33.92V31.92ZM178.658 33.5874C177.41 34.7129 176.798 36.1915 176.798 37.93H178.798C178.798 36.7085 179.205 35.7871 179.997 35.0726L178.658 33.5874ZM176.798 37.93C176.798 39.6516 177.41 41.147 178.621 42.3571L180.035 40.9429C179.205 40.113 178.798 39.1284 178.798 37.93H176.798ZM178.621 42.3571C179.833 43.57 181.34 44.18 183.078 44.18V42.18C181.855 42.18 180.862 41.77 180.035 40.9429L178.621 42.3571ZM183.078 44.18C184.915 44.18 186.569 43.3364 188.025 41.8365L186.59 40.4435C185.406 41.6636 184.24 42.18 183.078 42.18V44.18ZM186.57 41.8157L188.55 43.9757L190.025 42.6243L188.045 40.4643L186.57 41.8157ZM188.577 42.5965C186.807 44.3847 184.816 45.24 182.568 45.24V47.24C185.399 47.24 187.888 46.1353 189.998 44.0035L188.577 42.5965ZM194.123 43.99L193.434 44.715L193.439 44.7195L194.123 43.99ZM194.213 32.11L194.888 32.8475L194.888 32.8472L194.213 32.11ZM206.423 32.29L207.198 32.9217L207.769 32.2215L207.13 31.5829L206.423 32.29ZM204.443 34.72L203.787 35.4746L204.566 36.1521L205.218 35.3517L204.443 34.72ZM196.613 34.33L197.283 35.0726L197.283 35.0719L196.613 34.33ZM196.613 41.65L195.906 42.3571L195.906 42.3571L196.613 41.65ZM204.593 41.14L205.33 40.4643L204.614 39.6828L203.875 40.4435L204.593 41.14ZM206.573 43.3L207.283 44.0035L207.954 43.3265L207.31 42.6243L206.573 43.3ZM199.853 45.24C197.883 45.24 196.219 44.5844 194.807 43.2605L193.439 44.7195C195.227 46.3956 197.382 47.24 199.853 47.24V45.24ZM194.812 43.265C193.432 41.9548 192.723 40.2479 192.723 38.05H190.723C190.723 40.7321 191.613 42.9852 193.434 44.715L194.812 43.265ZM192.723 38.05C192.723 35.8641 193.454 34.161 194.888 32.8475L193.537 31.3725C191.652 33.099 190.723 35.3559 190.723 38.05H192.723ZM194.888 32.8472C196.374 31.4858 198.168 30.8 200.333 30.8V28.8C197.697 28.8 195.412 29.6542 193.537 31.3728L194.888 32.8472ZM200.333 30.8C202.474 30.8 204.248 31.5293 205.716 32.9971L207.13 31.5829C205.278 29.7307 202.991 28.8 200.333 28.8V30.8ZM205.648 31.6583L203.668 34.0883L205.218 35.3517L207.198 32.9217L205.648 31.6583ZM205.099 33.9654C203.594 32.6566 201.98 31.92 200.273 31.92V33.92C201.366 33.92 202.532 34.3834 203.787 35.4746L205.099 33.9654ZM200.273 31.92C198.625 31.92 197.166 32.4822 195.942 33.5881L197.283 35.0719C198.14 34.2978 199.121 33.92 200.273 33.92V31.92ZM195.943 33.5874C194.695 34.7129 194.083 36.1915 194.083 37.93H196.083C196.083 36.7085 196.49 35.7871 197.283 35.0726L195.943 33.5874ZM194.083 37.93C194.083 39.6516 194.696 41.147 195.906 42.3571L197.32 40.9429C196.49 40.113 196.083 39.1284 196.083 37.93H194.083ZM195.906 42.3571C197.119 43.57 198.625 44.18 200.363 44.18V42.18C199.14 42.18 198.147 41.77 197.32 40.9429L195.906 42.3571ZM200.363 44.18C202.2 44.18 203.855 43.3364 205.31 41.8365L203.875 40.4435C202.691 41.6636 201.525 42.18 200.363 42.18V44.18ZM203.856 41.8157L205.836 43.9757L207.31 42.6243L205.33 40.4643L203.856 41.8157ZM205.862 42.5965C204.092 44.3847 202.102 45.24 199.853 45.24V47.24C202.684 47.24 205.173 46.1353 207.283 44.0035L205.862 42.5965ZM213.778 41.8L213.056 42.4922L213.063 42.4997L213.071 42.5071L213.778 41.8ZM221.008 41.8L220.294 41.1002L220.293 41.1004L221.008 41.8ZM221.008 34.27L220.286 34.9622L220.293 34.9697L220.301 34.9771L221.008 34.27ZM213.778 34.27L213.064 33.5702L213.063 33.5704L213.778 34.27ZM223.408 43.87L224.111 44.5816L224.115 44.5771L223.408 43.87ZM211.408 43.87L210.701 44.5771L210.705 44.5815L211.408 43.87ZM211.408 32.2L212.111 32.9116L212.115 32.9071L211.408 32.2ZM223.408 32.2L222.701 32.9071L222.705 32.9115L223.408 32.2ZM213.071 42.5071C214.233 43.6697 215.705 44.24 217.408 44.24V42.24C216.191 42.24 215.242 41.8503 214.485 41.0929L213.071 42.5071ZM217.408 44.24C219.111 44.24 220.577 43.6694 221.722 42.4996L220.293 41.1004C219.559 41.8506 218.625 42.24 217.408 42.24V44.24ZM221.722 42.4998C222.888 41.3093 223.448 39.7867 223.448 38.02H221.448C221.448 39.3333 221.047 40.3307 220.294 41.1002L221.722 42.4998ZM223.448 38.02C223.448 36.2536 222.888 34.7362 221.715 33.5629L220.301 34.9771C221.048 35.7238 221.448 36.7064 221.448 38.02H223.448ZM221.73 33.5778C220.586 32.3853 219.118 31.8 217.408 31.8V33.8C218.618 33.8 219.55 34.1947 220.286 34.9622L221.73 33.5778ZM217.408 31.8C215.698 31.8 214.225 32.3849 213.064 33.5702L214.492 34.9698C215.251 34.1951 216.198 33.8 217.408 33.8V31.8ZM213.063 33.5704C211.913 34.7449 211.368 36.2598 211.368 38.02H213.368C213.368 36.7002 213.762 35.7151 214.492 34.9696L213.063 33.5704ZM211.368 38.02C211.368 39.7806 211.913 41.3007 213.056 42.4922L214.5 41.1078C213.763 40.3393 213.368 39.3394 213.368 38.02H211.368ZM222.705 43.1585C221.306 44.5403 219.564 45.24 217.408 45.24V47.24C220.051 47.24 222.31 46.3597 224.111 44.5815L222.705 43.1585ZM217.408 45.24C215.251 45.24 213.51 44.5403 212.111 43.1585L210.705 44.5815C212.506 46.3597 214.764 47.24 217.408 47.24V45.24ZM212.115 43.1629C210.706 41.7539 210.008 40.0597 210.008 38.02H208.008C208.008 40.5803 208.91 42.7861 210.701 44.5771L212.115 43.1629ZM210.008 38.02C210.008 35.9805 210.706 34.2989 212.111 32.9115L210.705 31.4885C208.91 33.2611 208.008 35.4595 208.008 38.02H210.008ZM212.115 32.9071C213.515 31.5069 215.255 30.8 217.408 30.8V28.8C214.761 28.8 212.501 29.6931 210.701 31.4929L212.115 32.9071ZM217.408 30.8C219.561 30.8 221.301 31.5069 222.701 32.9071L224.115 31.4929C222.315 29.6931 220.055 28.8 217.408 28.8V30.8ZM222.705 32.9115C224.11 34.2989 224.808 35.9805 224.808 38.02H226.808C226.808 35.4595 225.906 33.2611 224.111 31.4885L222.705 32.9115ZM224.808 38.02C224.808 40.0597 224.11 41.7539 222.701 43.1629L224.115 44.5771C225.906 42.7861 226.808 40.5803 226.808 38.02H224.808ZM240.788 30.04V29.04H239.788V30.04H240.788ZM244.148 30.04H245.148V29.04H244.148V30.04ZM244.148 46V47H245.148V46H244.148ZM240.788 46H239.788V47H240.788V46ZM240.788 43.09H241.788L239.912 42.6074L240.788 43.09ZM238.538 45.4L238.034 44.5362L238.026 44.5409L238.538 45.4ZM231.098 44.59L230.391 45.2971L230.398 45.3034L231.098 44.59ZM229.448 30.04V29.04H228.448V30.04H229.448ZM232.808 30.04H233.808V29.04H232.808V30.04ZM239.498 42.07L240.16 42.8194L240.17 42.8107L239.498 42.07ZM241.788 38.68V30.04H239.788V38.68H241.788ZM240.788 31.04H244.148V29.04H240.788V31.04ZM243.148 30.04V46H245.148V30.04H243.148ZM244.148 45H240.788V47H244.148V45ZM241.788 46V43.09H239.788V46H241.788ZM239.912 42.6074C239.459 43.4302 238.837 44.068 238.034 44.5362L239.042 46.2638C240.159 45.612 241.037 44.7098 241.664 43.5726L239.912 42.6074ZM238.026 44.5409C237.242 45.0082 236.399 45.24 235.478 45.24V47.24C236.757 47.24 237.954 46.9118 239.05 46.2591L238.026 44.5409ZM235.478 45.24C233.899 45.24 232.704 44.7657 231.799 43.8766L230.398 45.3034C231.732 46.6143 233.458 47.24 235.478 47.24V45.24ZM231.805 43.8829C230.949 43.0269 230.448 41.727 230.448 39.82H228.448C228.448 42.073 229.047 43.9531 230.391 45.2971L231.805 43.8829ZM230.448 39.82V30.04H228.448V39.82H230.448ZM229.448 31.04H232.808V29.04H229.448V31.04ZM231.808 30.04V38.8H233.808V30.04H231.808ZM231.808 38.8C231.808 40.3835 232.133 41.7572 232.954 42.7461C233.804 43.7708 235.04 44.21 236.468 44.21V42.21C235.457 42.21 234.862 41.9142 234.493 41.4689C234.094 40.9878 233.808 40.1565 233.808 38.8H231.808ZM236.468 44.21C237.869 44.21 239.116 43.7428 240.16 42.8193L238.836 41.3207C238.161 41.9172 237.387 42.21 236.468 42.21V44.21ZM240.17 42.8107C241.293 41.792 241.788 40.3595 241.788 38.68H239.788C239.788 39.9605 239.423 40.788 238.826 41.3293L240.17 42.8107ZM252.383 46V47H253.383V46H252.383ZM249.023 46H248.023V47H249.023V46ZM249.023 30.04V29.04H248.023V30.04H249.023ZM252.383 30.04H253.383V29.04H252.383V30.04ZM252.383 32.95H251.383L253.259 33.4326L252.383 32.95ZM254.603 30.64L254.099 29.7762L254.091 29.7809L254.603 30.64ZM262.043 31.45L261.336 32.1571L261.342 32.1634L262.043 31.45ZM263.723 46V47H264.723V46H263.723ZM260.363 46H259.363V47H260.363V46ZM253.673 34L254.335 34.7494L254.345 34.7407L253.673 34ZM251.383 37.36V46H253.383V37.36H251.383ZM252.383 45H249.023V47H252.383V45ZM250.023 46V30.04H248.023V46H250.023ZM249.023 31.04H252.383V29.04H249.023V31.04ZM251.383 30.04V32.95H253.383V30.04H251.383ZM253.259 33.4326C253.715 32.6045 254.331 31.966 255.115 31.4991L254.091 29.7809C252.995 30.434 252.131 31.3355 251.507 32.4674L253.259 33.4326ZM255.107 31.5038C255.915 31.032 256.772 30.8 257.693 30.8V28.8C256.414 28.8 255.21 29.128 254.099 29.7762L255.107 31.5038ZM257.693 30.8C259.273 30.8 260.453 31.2743 261.336 32.1571L262.75 30.7429C261.433 29.4257 259.713 28.8 257.693 28.8V30.8ZM261.342 32.1634C262.214 33.0203 262.723 34.3178 262.723 36.22H264.723C264.723 33.9622 264.111 32.0797 262.743 30.7366L261.342 32.1634ZM262.723 36.22V46H264.723V36.22H262.723ZM263.723 45H260.363V47H263.723V45ZM261.363 46V37.24H259.363V46H261.363ZM261.363 37.24C261.363 35.6565 261.038 34.2828 260.217 33.2939C259.367 32.2692 258.131 31.83 256.703 31.83V33.83C257.714 33.83 258.309 34.1258 258.678 34.5711C259.077 35.0522 259.363 35.8835 259.363 37.24H261.363ZM256.703 31.83C255.294 31.83 254.045 32.3126 253.001 33.2593L254.345 34.7407C255.021 34.1274 255.791 33.83 256.703 33.83V31.83ZM253.011 33.2507C251.877 34.2521 251.383 35.6819 251.383 37.36H253.383C253.383 36.0781 253.748 35.2679 254.335 34.7493L253.011 33.2507ZM272.557 32.74V31.74H271.557V32.74H272.557ZM273.157 42.67L272.403 43.3262L272.41 43.3345L272.417 43.3427L273.157 42.67ZM276.907 42.28L277.771 41.7768L277.098 40.6201L276.18 41.594L276.907 42.28ZM278.287 44.65L278.956 45.3939L279.561 44.8501L279.151 44.1468L278.287 44.65ZM270.697 44.77L269.99 45.4771L269.997 45.4842L270.004 45.4911L270.697 44.77ZM269.197 32.74H270.197V31.74H269.197V32.74ZM267.187 32.74H266.187V33.74H267.187V32.74ZM267.187 30.04V29.04H266.187V30.04H267.187ZM269.197 30.04V31.04H270.197V30.04H269.197ZM269.197 25.03V24.03H268.197V25.03H269.197ZM272.557 25.03H273.557V24.03H272.557V25.03ZM272.557 30.04H271.557V31.04H272.557V30.04ZM276.757 30.04H277.757V29.04H276.757V30.04ZM276.757 32.74V33.74H277.757V32.74H276.757ZM271.557 32.74V40.84H273.557V32.74H271.557ZM271.557 40.84C271.557 41.7795 271.808 42.6425 272.403 43.3262L273.912 42.0138C273.706 41.7775 273.557 41.4205 273.557 40.84H271.557ZM272.417 43.3427C273.046 44.0344 273.9 44.33 274.837 44.33V42.33C274.335 42.33 274.068 42.1856 273.897 41.9973L272.417 43.3427ZM274.837 44.33C275.916 44.33 276.852 43.7962 277.635 42.966L276.18 41.594C275.642 42.1638 275.198 42.33 274.837 42.33V44.33ZM276.043 42.7832L277.423 45.1532L279.151 44.1468L277.771 41.7768L276.043 42.7832ZM277.619 43.9061C276.602 44.8193 275.525 45.24 274.357 45.24V47.24C276.07 47.24 277.612 46.6007 278.956 45.3939L277.619 43.9061ZM274.357 45.24C273.194 45.24 272.223 44.8492 271.39 44.0489L270.004 45.4911C271.212 46.6508 272.68 47.24 274.357 47.24V45.24ZM271.404 44.0629C270.627 43.2852 270.197 42.2183 270.197 40.75H268.197C268.197 42.6417 268.768 44.2548 269.99 45.4771L271.404 44.0629ZM270.197 40.75V32.74H268.197V40.75H270.197ZM269.197 31.74H267.187V33.74H269.197V31.74ZM268.187 32.74V30.04H266.187V32.74H268.187ZM267.187 31.04H269.197V29.04H267.187V31.04ZM270.197 30.04V25.03H268.197V30.04H270.197ZM269.197 26.03H272.557V24.03H269.197V26.03ZM271.557 25.03V30.04H273.557V25.03H271.557ZM272.557 31.04H276.757V29.04H272.557V31.04ZM275.757 30.04V32.74H277.757V30.04H275.757ZM276.757 31.74H272.557V33.74H276.757V31.74Z" fill="white" mask="url(#path-3-outside-2_2062_18)"/>
<defs>
<linearGradient id="paint0_linear_2062_18" x1="13.4541" y1="5.82829e-07" x2="288.532" y2="53.5841" gradientUnits="userSpaceOnUse">
<stop offset="0.0189512" stop-color="#0064FB"/>
<stop offset="1" stop-color="#1ECDF8"/>
</linearGradient>
</defs>
</svg>
