<svg width="26" height="25" viewBox="0 0 26 25" fill="none" xmlns="http://www.w3.org/2000/svg">
<path d="M7.6844 12.7603C8.01079 10.6239 8.54898 8.8197 8.82382 8.0602C8.86115 7.95695 8.86742 7.84503 8.84184 7.73826C8.81627 7.63149 8.75997 7.53455 8.67991 7.45942L8.26855 7.07291C7.28046 6.14358 5.65665 6.89028 5.72147 8.24753L5.85494 11.0573C5.89083 11.8096 6.19955 12.523 6.72335 13.0641C6.79604 13.1395 6.88835 13.1932 6.98989 13.219C7.09143 13.2448 7.19815 13.2417 7.29805 13.2102C7.39794 13.1786 7.48704 13.1197 7.5553 13.0403C7.62356 12.9608 7.66827 12.8638 7.6844 12.7603ZM19.563 13.0639C19.4901 13.1394 19.3975 13.1931 19.2957 13.2187C19.1938 13.2444 19.0869 13.2411 18.9868 13.2091C18.8868 13.1772 18.7977 13.1179 18.7296 13.038C18.6615 12.9581 18.6171 12.8607 18.6014 12.7569C18.2713 10.5902 17.731 8.80742 17.4619 8.06204C17.4245 7.95863 17.4181 7.84651 17.4436 7.73952C17.4691 7.63253 17.5254 7.53536 17.6055 7.45999L18.0176 7.07278C19.007 6.14216 20.6296 6.89217 20.5646 8.2474L20.4312 11.0572C20.3954 11.8094 20.0867 12.5227 19.563 13.0639ZM11.289 4.32339L11.289 5.35331C11.2899 5.42769 11.2759 5.50149 11.2481 5.57045C11.2202 5.63941 11.1789 5.70215 11.1266 5.75505C11.0743 5.80794 11.012 5.84993 10.9434 5.87859C10.8747 5.90725 10.8011 5.92201 10.7267 5.92202C10.6523 5.92202 10.5787 5.90727 10.51 5.87861C10.4414 5.84996 10.3791 5.80797 10.3268 5.75508C10.2745 5.70219 10.2332 5.63945 10.2053 5.5705C10.1774 5.50154 10.1635 5.42774 10.1643 5.35336L10.1643 4.32344C10.1643 3.82078 10.7734 3.57475 11.1244 3.92577C11.1767 3.97794 11.2181 4.03992 11.2464 4.10815C11.2746 4.17639 11.2891 4.24954 11.289 4.32339ZM16.1613 4.32339L16.1613 5.35343C16.1613 5.50259 16.102 5.64563 15.9965 5.7511C15.8911 5.85657 15.748 5.91581 15.5989 5.91581C15.4497 5.91581 15.3067 5.85655 15.2012 5.75108C15.0957 5.64561 15.0365 5.50256 15.0365 5.35341L15.0367 4.32329C15.0367 3.82063 15.6458 3.57468 15.9967 3.92564C16.049 3.97783 16.0905 4.03984 16.1187 4.10811C16.147 4.17638 16.1615 4.24956 16.1613 4.32344L16.1613 4.32339ZM13.7054 2.57491L13.7054 6.07197C13.7045 6.22053 13.6449 6.3627 13.5395 6.46743C13.4341 6.57216 13.2916 6.63095 13.143 6.63095C12.9945 6.63095 12.8519 6.57216 12.7466 6.46743C12.6412 6.3627 12.5815 6.22053 12.5806 6.07197L12.5806 2.57491C12.5807 2.07233 13.1897 1.82622 13.5407 2.17721C13.593 2.22938 13.6345 2.29137 13.6627 2.35962C13.691 2.42787 13.7055 2.50104 13.7054 2.57491ZM18.1405 14.7437C18.0602 13.6956 17.9108 12.6538 17.6932 11.6253C17.6692 11.5132 17.6075 11.4126 17.5184 11.3406C17.4292 11.2685 17.318 11.2292 17.2033 11.2293L9.08273 11.2293C8.96807 11.2292 8.85684 11.2685 8.76767 11.3406C8.6785 11.4126 8.61679 11.5132 8.59287 11.6253C8.37022 12.6781 8.21894 13.7447 8.14008 14.8178C8.0124 16.5765 8.34581 18.338 9.10736 19.9284C9.8689 21.5187 11.0322 22.8828 12.4824 23.8859L12.8229 24.1221C12.917 24.1871 13.0286 24.222 13.143 24.222C13.2574 24.222 13.3691 24.1871 13.4631 24.1221L13.8036 23.8859C16.6395 21.9235 18.4213 18.5523 18.1405 14.7437ZM13.143 19.0329C12.6636 19.0329 12.1949 18.8907 11.7963 18.6243C11.3977 18.358 11.087 17.9794 10.9035 17.5365C10.72 17.0935 10.672 16.6061 10.7656 16.1359C10.8591 15.6657 11.09 15.2338 11.429 14.8948C11.768 14.5558 12.1999 14.3249 12.6701 14.2314C13.1403 14.1378 13.6277 14.1858 14.0707 14.3693C14.5136 14.5528 14.8922 14.8635 15.1585 15.2621C15.4249 15.6607 15.5671 16.1294 15.5671 16.6088C15.5664 17.2515 15.3107 17.8676 14.8563 18.3221C14.4018 18.7765 13.7857 19.0322 13.143 19.0329ZM9.63487 10.1046C9.5566 10.1047 9.47939 10.0864 9.40945 10.0513C9.33952 10.0161 9.27882 9.96502 9.23222 9.90213C9.18563 9.83923 9.15445 9.76627 9.14119 9.68913C9.12793 9.61199 9.13296 9.53281 9.15588 9.45796C9.22445 9.23713 9.29352 9.0246 9.36838 8.80553C9.49188 8.44464 9.72519 8.13142 10.0356 7.90977C10.3461 7.68812 10.7181 7.56915 11.0995 7.56952L15.1865 7.56952C15.427 7.56936 15.6652 7.61661 15.8873 7.70856C16.1095 7.8005 16.3114 7.93535 16.4815 8.10538C16.8333 8.45717 16.9212 8.78473 17.1302 9.45801C17.1531 9.53286 17.1581 9.61203 17.1449 9.68917C17.1316 9.76632 17.1004 9.83927 17.0538 9.90216C17.0072 9.96505 16.9465 10.0161 16.8766 10.0513C16.8067 10.0864 16.7294 10.1047 16.6512 10.1046L9.63487 10.1046Z" fill="url(#paint0_linear_130_550)"/>
<defs>
<linearGradient id="paint0_linear_130_550" x1="6.97916" y1="6.28719" x2="19.3068" y2="18.6149" gradientUnits="userSpaceOnUse">
<stop stop-color="#FF685A"/>
<stop offset="0.5" stop-color="#FF7265"/>
<stop offset="1" stop-color="#FF5D4F"/>
</linearGradient>
</defs>
</svg>
