<svg width="251" height="80" viewBox="0 0 251 80" fill="none" xmlns="http://www.w3.org/2000/svg">
<path d="M243 0.5H58.4817C55.9948 0.5 53.6696 1.73275 52.274 3.79115L8.88174 67.7911C5.50525 72.7712 9.07268 79.5 15.0894 79.5H243C247.142 79.5 250.5 76.1421 250.5 72V8C250.5 3.85787 247.142 0.5 243 0.5Z" fill="#2E0B6C" stroke="#36107B"/>
<path d="M94.857 27.5862H93.2414V26.6328V25.6953C93.2414 24.7819 92.5912 24 91.6778 24H76.4139C75.5006 24 74.7586 24.7819 74.7586 25.6953V26.6328V27.5862H73.1065C72.3941 27.5862 71.0345 27.9686 71.0345 29.6221V32.3383C71.0345 35.2815 73.0666 37.7634 75.8087 38.4887C76.983 40.8491 79.0476 42.6439 81.5276 43.3801C81.1222 43.5628 80.8407 43.9651 80.8407 44.4339C80.8407 44.684 80.9235 44.9655 81.06 45.1034H81.0149C80.3917 45.1034 79.8821 45.6552 79.8463 46.2069H78.3364C77.9316 46.2069 77.551 46.3617 77.2646 46.6497C76.9781 46.9375 76.8215 47.3171 76.8236 47.7218L76.849 52.6897H76.1494C75.2543 52.6897 74.4828 53.4153 74.4828 54.3103V54.3793C74.4828 55.2743 75.2543 56 76.1494 56H91.8046C92.6996 56 93.3793 55.2743 93.3793 54.3793V54.3103C93.3793 53.4153 92.6997 52.6897 91.8046 52.6897H91.2428L91.268 47.72C91.2701 47.3152 91.1135 46.9375 90.827 46.6495C90.5407 46.3617 90.16 46.2069 89.7552 46.2069H88.2455C88.2098 45.6552 87.7001 45.1034 87.077 45.1034H87.0319C87.1684 44.9655 87.2495 44.6841 87.2495 44.4339C87.2495 43.965 86.9665 43.5619 86.5611 43.3793C89.0411 42.6432 91.0628 40.8488 92.2371 38.4883C94.9793 37.763 96.9655 35.2815 96.9655 32.3383V29.7171C96.9655 27.9886 95.6138 27.5862 94.857 27.5862ZM73.5172 32.9374V30.069H74.7586V33.9632C74.7586 34.8451 74.86 35.6994 75.0686 36.5128C74.115 35.6128 73.5172 34.3429 73.5172 32.9374ZM86.8854 36.4257L84.0459 34.3628L81.2066 36.4257L82.2912 33.0926L79.4519 31.0345H82.9615L84.0461 27.6967L85.1305 31.0345H88.6401L85.8008 33.0926L86.8854 36.4257ZM94.4828 32.9374C94.4828 34.343 93.885 35.6131 92.9312 36.5131C93.1399 35.6996 93.2414 34.8452 93.2414 33.9632V30.069H94.4828V32.9374Z" fill="url(#paint0_linear_2109_22)"/>
<mask id="path-3-outside-1_2109_22" maskUnits="userSpaceOnUse" x="106" y="26" width="121" height="21" fill="black">
<rect fill="white" x="106" y="26" width="121" height="21"/>
<path d="M117.844 46H113.112L112.328 45.776L108.996 43.452L108.464 42.64L107.064 37.124V36.368L108.884 30.516L109.444 29.788L112.3 27.772L113.112 27.52H116.864L117.676 27.8L120.56 29.9L118.908 32.168L116.416 30.32H113.532L111.432 31.804L109.864 36.816L111.04 41.464L113.56 43.2H117.34L119.356 41.464L121.176 43.592L118.768 45.664L117.844 46ZM132.686 46.168L131.37 46.14L125.91 43.06L125.266 42.192L123.866 37.096L123.894 36.256L125.938 30.656L126.61 29.9L131.426 27.38H132.714L138.37 30.292L139.014 30.992L141.254 36.172V37.208L139.35 42.388L138.678 43.144L132.686 46.168ZM127.786 40.904L132.098 43.34L136.914 40.904L138.454 36.788L136.634 32.56L132.07 30.208L128.374 32.14L126.666 36.788L127.786 40.904ZM145.266 46.084L144.986 40.092V39.896L145.518 33.484L145.35 28.36L147.926 27.52L152.406 34.212L152.49 34.352L155.206 39.504L156.41 41.24L156.438 40.82L155.906 36.116L155.878 35.892L156.158 27.492L158.958 27.576L158.706 35.892L159.238 40.624V40.904L158.874 45.328L156.326 46L152.854 41.044L152.77 40.904L150.026 35.696L148.318 33.148V33.484V33.652L147.786 40.036L148.038 45.944L145.266 46.084ZM175.902 27.548L176.098 30.32L172.318 30.6H172.066L170.47 30.46L170.274 33.568L170.806 39.7L170.834 39.868L170.554 46.084L167.754 45.944L168.034 39.84L167.474 33.708V33.484L167.698 30.152L166.634 30.068L162.378 30.32L162.21 27.548L166.578 27.268H166.802L172.234 27.8L175.902 27.548ZM186.391 42.948H186.531L193.111 43.228L192.971 46L186.475 45.748L180.791 46L179.335 44.684L179.055 39.112V38.888L179.587 33.764L179.335 29.004L180.791 27.548L186.895 27.8L192.971 27.548L193.111 30.32L186.979 30.6H186.839L182.219 30.404L182.387 33.708V33.932L182.247 35.248L185.383 34.94H185.663L190.367 35.388L190.115 38.188L185.523 37.74L181.939 38.104L181.855 39.084L182.051 43.144L186.391 42.948ZM203.748 45.972H202.768L199.716 44.796L199.044 44.236L197.028 41.156L199.408 39.644L201.144 42.36L203.3 43.172L206.212 42.108L206.828 39.952L205.792 38.636L203.076 38.3H203.02L199.744 37.712L198.848 37.152L197.084 34.632L196.972 33.232L198.512 30.012L199.156 29.368L202.656 27.632L203.72 27.576L206.912 28.612L207.5 28.976L209.32 30.908L207.276 32.84L205.708 31.16L203.384 30.404L200.808 31.664L199.828 33.68L200.808 35.052L203.468 35.528L206.716 35.92L207.64 36.452L209.46 38.776L209.712 40.008L208.732 43.564L207.864 44.516L203.748 45.972ZM226.062 27.548L226.258 30.32L222.478 30.6H222.226L220.63 30.46L220.434 33.568L220.966 39.7L220.994 39.868L220.714 46.084L217.914 45.944L218.194 39.84L217.634 33.708V33.484L217.858 30.152L216.794 30.068L212.538 30.32L212.37 27.548L216.738 27.268H216.962L222.394 27.8L226.062 27.548Z"/>
</mask>
<path d="M117.844 46H113.112L112.328 45.776L108.996 43.452L108.464 42.64L107.064 37.124V36.368L108.884 30.516L109.444 29.788L112.3 27.772L113.112 27.52H116.864L117.676 27.8L120.56 29.9L118.908 32.168L116.416 30.32H113.532L111.432 31.804L109.864 36.816L111.04 41.464L113.56 43.2H117.34L119.356 41.464L121.176 43.592L118.768 45.664L117.844 46ZM132.686 46.168L131.37 46.14L125.91 43.06L125.266 42.192L123.866 37.096L123.894 36.256L125.938 30.656L126.61 29.9L131.426 27.38H132.714L138.37 30.292L139.014 30.992L141.254 36.172V37.208L139.35 42.388L138.678 43.144L132.686 46.168ZM127.786 40.904L132.098 43.34L136.914 40.904L138.454 36.788L136.634 32.56L132.07 30.208L128.374 32.14L126.666 36.788L127.786 40.904ZM145.266 46.084L144.986 40.092V39.896L145.518 33.484L145.35 28.36L147.926 27.52L152.406 34.212L152.49 34.352L155.206 39.504L156.41 41.24L156.438 40.82L155.906 36.116L155.878 35.892L156.158 27.492L158.958 27.576L158.706 35.892L159.238 40.624V40.904L158.874 45.328L156.326 46L152.854 41.044L152.77 40.904L150.026 35.696L148.318 33.148V33.484V33.652L147.786 40.036L148.038 45.944L145.266 46.084ZM175.902 27.548L176.098 30.32L172.318 30.6H172.066L170.47 30.46L170.274 33.568L170.806 39.7L170.834 39.868L170.554 46.084L167.754 45.944L168.034 39.84L167.474 33.708V33.484L167.698 30.152L166.634 30.068L162.378 30.32L162.21 27.548L166.578 27.268H166.802L172.234 27.8L175.902 27.548ZM186.391 42.948H186.531L193.111 43.228L192.971 46L186.475 45.748L180.791 46L179.335 44.684L179.055 39.112V38.888L179.587 33.764L179.335 29.004L180.791 27.548L186.895 27.8L192.971 27.548L193.111 30.32L186.979 30.6H186.839L182.219 30.404L182.387 33.708V33.932L182.247 35.248L185.383 34.94H185.663L190.367 35.388L190.115 38.188L185.523 37.74L181.939 38.104L181.855 39.084L182.051 43.144L186.391 42.948ZM203.748 45.972H202.768L199.716 44.796L199.044 44.236L197.028 41.156L199.408 39.644L201.144 42.36L203.3 43.172L206.212 42.108L206.828 39.952L205.792 38.636L203.076 38.3H203.02L199.744 37.712L198.848 37.152L197.084 34.632L196.972 33.232L198.512 30.012L199.156 29.368L202.656 27.632L203.72 27.576L206.912 28.612L207.5 28.976L209.32 30.908L207.276 32.84L205.708 31.16L203.384 30.404L200.808 31.664L199.828 33.68L200.808 35.052L203.468 35.528L206.716 35.92L207.64 36.452L209.46 38.776L209.712 40.008L208.732 43.564L207.864 44.516L203.748 45.972ZM226.062 27.548L226.258 30.32L222.478 30.6H222.226L220.63 30.46L220.434 33.568L220.966 39.7L220.994 39.868L220.714 46.084L217.914 45.944L218.194 39.84L217.634 33.708V33.484L217.858 30.152L216.794 30.068L212.538 30.32L212.37 27.548L216.738 27.268H216.962L222.394 27.8L226.062 27.548Z" fill="url(#paint1_linear_2109_22)"/>
<path d="M117.844 46V46.5H117.932L118.015 46.4699L117.844 46ZM113.112 46L112.975 46.4808L113.042 46.5H113.112V46ZM112.328 45.776L112.042 46.1861L112.11 46.2338L112.191 46.2568L112.328 45.776ZM108.996 43.452L108.578 43.726L108.631 43.8068L108.71 43.8621L108.996 43.452ZM108.464 42.64L107.979 42.763L108 42.8441L108.046 42.914L108.464 42.64ZM107.064 37.124H106.564V37.1865L106.579 37.247L107.064 37.124ZM107.064 36.368L106.587 36.2195L106.564 36.292V36.368H107.064ZM108.884 30.516L108.488 30.2111L108.433 30.2821L108.407 30.3675L108.884 30.516ZM109.444 29.788L109.156 29.3795L109.094 29.4232L109.048 29.4831L109.444 29.788ZM112.3 27.772L112.152 27.2945L112.076 27.3179L112.012 27.3635L112.3 27.772ZM113.112 27.52V27.02H113.036L112.964 27.0425L113.112 27.52ZM116.864 27.52L117.027 27.0473L116.948 27.02H116.864V27.52ZM117.676 27.8L117.97 27.3958L117.91 27.3517L117.839 27.3273L117.676 27.8ZM120.56 29.9L120.964 30.1944L121.259 29.7902L120.854 29.4958L120.56 29.9ZM118.908 32.168L118.61 32.5696L119.015 32.87L119.312 32.4624L118.908 32.168ZM116.416 30.32L116.714 29.9184L116.581 29.82H116.416V30.32ZM113.532 30.32V29.82H113.373L113.243 29.9117L113.532 30.32ZM111.432 31.804L111.143 31.3957L111.005 31.4933L110.955 31.6547L111.432 31.804ZM109.864 36.816L109.387 36.6667L109.345 36.8016L109.379 36.9386L109.864 36.816ZM111.04 41.464L110.555 41.5866L110.601 41.769L110.756 41.8758L111.04 41.464ZM113.56 43.2L113.276 43.6118L113.404 43.7H113.56V43.2ZM117.34 43.2V43.7H117.526L117.666 43.5789L117.34 43.2ZM119.356 41.464L119.736 41.139L119.41 40.7578L119.03 41.0851L119.356 41.464ZM121.176 43.592L121.502 43.971L121.88 43.6459L121.556 43.267L121.176 43.592ZM118.768 45.664L118.939 46.1339L119.025 46.1026L119.094 46.043L118.768 45.664ZM117.844 45.5H113.112V46.5H117.844V45.5ZM113.249 45.5192L112.465 45.2952L112.191 46.2568L112.975 46.4808L113.249 45.5192ZM112.614 45.3659L109.282 43.0419L108.71 43.8621L112.042 46.1861L112.614 45.3659ZM109.414 43.178L108.882 42.366L108.046 42.914L108.578 43.726L109.414 43.178ZM108.949 42.517L107.549 37.001L106.579 37.247L107.979 42.763L108.949 42.517ZM107.564 37.124V36.368H106.564V37.124H107.564ZM107.541 36.5165L109.361 30.6645L108.407 30.3675L106.587 36.2195L107.541 36.5165ZM109.28 30.8209L109.84 30.0929L109.048 29.4831L108.488 30.2111L109.28 30.8209ZM109.732 30.1965L112.588 28.1805L112.012 27.3635L109.156 29.3795L109.732 30.1965ZM112.448 28.2495L113.26 27.9975L112.964 27.0425L112.152 27.2945L112.448 28.2495ZM113.112 28.02H116.864V27.02H113.112V28.02ZM116.701 27.9927L117.513 28.2727L117.839 27.3273L117.027 27.0473L116.701 27.9927ZM117.382 28.2042L120.266 30.3042L120.854 29.4958L117.97 27.3958L117.382 28.2042ZM120.156 29.6056L118.504 31.8736L119.312 32.4624L120.964 30.1944L120.156 29.6056ZM119.206 31.7664L116.714 29.9184L116.118 30.7216L118.61 32.5696L119.206 31.7664ZM116.416 29.82H113.532V30.82H116.416V29.82ZM113.243 29.9117L111.143 31.3957L111.721 32.2123L113.821 30.7283L113.243 29.9117ZM110.955 31.6547L109.387 36.6667L110.341 36.9653L111.909 31.9533L110.955 31.6547ZM109.379 36.9386L110.555 41.5866L111.525 41.3414L110.349 36.6934L109.379 36.9386ZM110.756 41.8758L113.276 43.6118L113.844 42.7882L111.324 41.0522L110.756 41.8758ZM113.56 43.7H117.34V42.7H113.56V43.7ZM117.666 43.5789L119.682 41.8429L119.03 41.0851L117.014 42.8211L117.666 43.5789ZM118.976 41.789L120.796 43.917L121.556 43.267L119.736 41.139L118.976 41.789ZM120.85 43.213L118.442 45.285L119.094 46.043L121.502 43.971L120.85 43.213ZM118.597 45.1941L117.673 45.5301L118.015 46.4699L118.939 46.1339L118.597 45.1941ZM132.686 46.168L132.676 46.6679L132.8 46.6705L132.911 46.6144L132.686 46.168ZM131.37 46.14L131.125 46.5755L131.234 46.6372L131.36 46.6399L131.37 46.14ZM125.91 43.06L125.509 43.3579L125.572 43.4433L125.665 43.4955L125.91 43.06ZM125.266 42.192L124.784 42.3245L124.809 42.4147L124.865 42.4899L125.266 42.192ZM123.866 37.096L123.366 37.0793L123.364 37.1552L123.384 37.2285L123.866 37.096ZM123.894 36.256L123.424 36.0846L123.397 36.1596L123.394 36.2393L123.894 36.256ZM125.938 30.656L125.564 30.3238L125.501 30.395L125.468 30.4846L125.938 30.656ZM126.61 29.9L126.378 29.457L126.297 29.4994L126.236 29.5678L126.61 29.9ZM131.426 27.38V26.88H131.303L131.194 26.937L131.426 27.38ZM132.714 27.38L132.943 26.9355L132.835 26.88H132.714V27.38ZM138.37 30.292L138.738 29.9535L138.678 29.8881L138.599 29.8475L138.37 30.292ZM139.014 30.992L139.473 30.7935L139.439 30.7158L139.382 30.6535L139.014 30.992ZM141.254 36.172H141.754V36.0685L141.713 35.9735L141.254 36.172ZM141.254 37.208L141.723 37.3805L141.754 37.297V37.208H141.254ZM139.35 42.388L139.724 42.7202L139.787 42.6494L139.819 42.5605L139.35 42.388ZM138.678 43.144L138.903 43.5904L138.989 43.5474L139.052 43.4762L138.678 43.144ZM127.786 40.904L127.304 41.0353L127.359 41.2367L127.54 41.3393L127.786 40.904ZM132.098 43.34L131.852 43.7753L132.085 43.9069L132.324 43.7862L132.098 43.34ZM136.914 40.904L137.14 41.3502L137.314 41.2621L137.382 41.0792L136.914 40.904ZM138.454 36.788L138.922 36.9632L138.993 36.7749L138.913 36.5903L138.454 36.788ZM136.634 32.56L137.093 32.3623L137.023 32.1977L136.863 32.1155L136.634 32.56ZM132.07 30.208L132.299 29.7635L132.069 29.6447L131.839 29.7649L132.07 30.208ZM128.374 32.14L128.143 31.6969L127.971 31.7863L127.905 31.9675L128.374 32.14ZM126.666 36.788L126.197 36.6155L126.142 36.7653L126.184 36.9193L126.666 36.788ZM132.697 45.6681L131.381 45.6401L131.36 46.6399L132.676 46.6679L132.697 45.6681ZM131.616 45.7045L126.156 42.6245L125.665 43.4955L131.125 46.5755L131.616 45.7045ZM126.312 42.7621L125.668 41.8941L124.865 42.4899L125.509 43.3579L126.312 42.7621ZM125.748 42.0595L124.348 36.9635L123.384 37.2285L124.784 42.3245L125.748 42.0595ZM124.366 37.1127L124.394 36.2727L123.394 36.2393L123.366 37.0793L124.366 37.1127ZM124.364 36.4274L126.408 30.8274L125.468 30.4846L123.424 36.0846L124.364 36.4274ZM126.312 30.9882L126.984 30.2322L126.236 29.5678L125.564 30.3238L126.312 30.9882ZM126.842 30.343L131.658 27.823L131.194 26.937L126.378 29.457L126.842 30.343ZM131.426 27.88H132.714V26.88H131.426V27.88ZM132.485 27.8245L138.141 30.7365L138.599 29.8475L132.943 26.9355L132.485 27.8245ZM138.002 30.6305L138.646 31.3305L139.382 30.6535L138.738 29.9535L138.002 30.6305ZM138.555 31.1905L140.795 36.3705L141.713 35.9735L139.473 30.7935L138.555 31.1905ZM140.754 36.172V37.208H141.754V36.172H140.754ZM140.785 37.0355L138.881 42.2155L139.819 42.5605L141.723 37.3805L140.785 37.0355ZM138.976 42.0558L138.304 42.8118L139.052 43.4762L139.724 42.7202L138.976 42.0558ZM138.453 42.6976L132.461 45.7216L132.911 46.6144L138.903 43.5904L138.453 42.6976ZM127.54 41.3393L131.852 43.7753L132.344 42.9047L128.032 40.4687L127.54 41.3393ZM132.324 43.7862L137.14 41.3502L136.689 40.4578L131.873 42.8938L132.324 43.7862ZM137.382 41.0792L138.922 36.9632L137.986 36.6128L136.446 40.7288L137.382 41.0792ZM138.913 36.5903L137.093 32.3623L136.175 32.7577L137.995 36.9857L138.913 36.5903ZM136.863 32.1155L132.299 29.7635L131.841 30.6525L136.405 33.0045L136.863 32.1155ZM131.839 29.7649L128.143 31.6969L128.606 32.5831L132.302 30.6511L131.839 29.7649ZM127.905 31.9675L126.197 36.6155L127.136 36.9605L128.844 32.3125L127.905 31.9675ZM126.184 36.9193L127.304 41.0353L128.269 40.7727L127.149 36.6567L126.184 36.9193ZM145.266 46.084L144.766 46.1073L144.79 46.6087L145.291 46.5834L145.266 46.084ZM144.986 40.092H144.486V40.1037L144.486 40.1153L144.986 40.092ZM144.986 39.896L144.487 39.8547L144.486 39.8753V39.896H144.986ZM145.518 33.484L146.016 33.5253L146.018 33.4965L146.017 33.4676L145.518 33.484ZM145.35 28.36L145.195 27.8846L144.838 28.0011L144.85 28.3764L145.35 28.36ZM147.926 27.52L148.341 27.2418L148.131 26.9273L147.771 27.0446L147.926 27.52ZM152.406 34.212L152.834 33.9548L152.828 33.9441L152.821 33.9338L152.406 34.212ZM152.49 34.352L152.932 34.1188L152.925 34.1066L152.918 34.0948L152.49 34.352ZM155.206 39.504L154.763 39.7372L154.777 39.764L154.795 39.7889L155.206 39.504ZM156.41 41.24L155.999 41.5249L156.813 42.6996L156.909 41.2733L156.41 41.24ZM156.438 40.82L156.937 40.8533L156.94 40.8084L156.934 40.7638L156.438 40.82ZM155.906 36.116L156.402 36.0598L156.402 36.054L155.906 36.116ZM155.878 35.892L155.378 35.8753L155.377 35.9148L155.381 35.954L155.878 35.892ZM156.158 27.492L156.173 26.9922L155.675 26.9773L155.658 27.4753L156.158 27.492ZM158.958 27.576L159.457 27.5911L159.473 27.0912L158.973 27.0762L158.958 27.576ZM158.706 35.892L158.206 35.8769L158.205 35.9125L158.209 35.9479L158.706 35.892ZM159.238 40.624H159.738V40.596L159.734 40.5681L159.238 40.624ZM159.238 40.904L159.736 40.945L159.738 40.9245V40.904H159.238ZM158.874 45.328L159.001 45.8115L159.343 45.7213L159.372 45.369L158.874 45.328ZM156.326 46L155.916 46.2869L156.116 46.5724L156.453 46.4835L156.326 46ZM152.854 41.044L152.425 41.3012L152.434 41.3164L152.444 41.3309L152.854 41.044ZM152.77 40.904L152.327 41.1371L152.334 41.1493L152.341 41.1612L152.77 40.904ZM150.026 35.696L150.468 35.4629L150.456 35.4395L150.441 35.4176L150.026 35.696ZM148.318 33.148L148.733 32.8696L147.818 31.5041V33.148H148.318ZM148.318 33.652L148.816 33.6935L148.818 33.6728V33.652H148.318ZM147.786 40.036L147.287 39.9945L147.285 40.0259L147.286 40.0573L147.786 40.036ZM148.038 45.944L148.063 46.4434L148.558 46.4183L148.537 45.9227L148.038 45.944ZM145.765 46.0607L145.485 40.0687L144.486 40.1153L144.766 46.1073L145.765 46.0607ZM145.486 40.092V39.896H144.486V40.092H145.486ZM145.484 39.9373L146.016 33.5253L145.019 33.4427L144.487 39.8547L145.484 39.9373ZM146.017 33.4676L145.849 28.3436L144.85 28.3764L145.018 33.5004L146.017 33.4676ZM145.505 28.8354L148.081 27.9954L147.771 27.0446L145.195 27.8846L145.505 28.8354ZM147.51 27.7982L151.99 34.4902L152.821 33.9338L148.341 27.2418L147.51 27.7982ZM151.977 34.4692L152.061 34.6092L152.918 34.0948L152.834 33.9548L151.977 34.4692ZM152.047 34.5852L154.763 39.7372L155.648 39.2708L152.932 34.1188L152.047 34.5852ZM154.795 39.7889L155.999 41.5249L156.82 40.9551L155.616 39.2191L154.795 39.7889ZM156.909 41.2733L156.937 40.8533L155.939 40.7867L155.911 41.2067L156.909 41.2733ZM156.934 40.7638L156.402 36.0598L155.409 36.1722L155.941 40.8762L156.934 40.7638ZM156.402 36.054L156.374 35.83L155.381 35.954L155.409 36.178L156.402 36.054ZM156.377 35.9087L156.657 27.5087L155.658 27.4753L155.378 35.8753L156.377 35.9087ZM156.143 27.9918L158.943 28.0758L158.973 27.0762L156.173 26.9922L156.143 27.9918ZM158.458 27.5609L158.206 35.8769L159.205 35.9071L159.457 27.5911L158.458 27.5609ZM158.209 35.9479L158.741 40.6799L159.734 40.5681L159.202 35.8361L158.209 35.9479ZM158.738 40.624V40.904H159.738V40.624H158.738ZM158.739 40.863L158.375 45.287L159.372 45.369L159.736 40.945L158.739 40.863ZM158.746 44.8445L156.198 45.5165L156.453 46.4835L159.001 45.8115L158.746 44.8445ZM156.735 45.7131L153.263 40.7571L152.444 41.3309L155.916 46.2869L156.735 45.7131ZM153.282 40.7868L153.198 40.6468L152.341 41.1612L152.425 41.3012L153.282 40.7868ZM153.212 40.6709L150.468 35.4629L149.583 35.9291L152.327 41.1371L153.212 40.6709ZM150.441 35.4176L148.733 32.8696L147.902 33.4264L149.61 35.9744L150.441 35.4176ZM147.818 33.148V33.484H148.818V33.148H147.818ZM147.818 33.484V33.652H148.818V33.484H147.818ZM147.819 33.6105L147.287 39.9945L148.284 40.0775L148.816 33.6935L147.819 33.6105ZM147.286 40.0573L147.538 45.9653L148.537 45.9227L148.285 40.0147L147.286 40.0573ZM148.012 45.4446L145.24 45.5846L145.291 46.5834L148.063 46.4434L148.012 45.4446ZM175.902 27.548L176.401 27.5127L176.366 27.015L175.868 27.0492L175.902 27.548ZM176.098 30.32L176.135 30.8186L176.632 30.7818L176.597 30.2847L176.098 30.32ZM172.318 30.6V31.1H172.336L172.355 31.0986L172.318 30.6ZM172.066 30.6L172.022 31.0981L172.044 31.1H172.066V30.6ZM170.47 30.46L170.514 29.9619L170.003 29.9171L169.971 30.4285L170.47 30.46ZM170.274 33.568L169.775 33.5365L169.773 33.5739L169.776 33.6112L170.274 33.568ZM170.806 39.7L170.308 39.7432L170.31 39.7628L170.313 39.7822L170.806 39.7ZM170.834 39.868L171.333 39.8905L171.336 39.8378L171.327 39.7858L170.834 39.868ZM170.554 46.084L170.529 46.5834L171.031 46.6085L171.053 46.1065L170.554 46.084ZM167.754 45.944L167.255 45.9211L167.232 46.4185L167.729 46.4434L167.754 45.944ZM168.034 39.84L168.533 39.8629L168.535 39.8287L168.532 39.7945L168.034 39.84ZM167.474 33.708H166.974V33.7308L166.976 33.7535L167.474 33.708ZM167.474 33.484L166.975 33.4505L166.974 33.4672V33.484H167.474ZM167.698 30.152L168.197 30.1855L168.23 29.6924L167.737 29.6535L167.698 30.152ZM166.634 30.068L166.673 29.5696L166.639 29.5668L166.604 29.5689L166.634 30.068ZM162.378 30.32L161.879 30.3502L161.909 30.8486L162.408 30.8191L162.378 30.32ZM162.21 27.548L162.178 27.049L161.681 27.0809L161.711 27.5782L162.21 27.548ZM166.578 27.268V26.768H166.562L166.546 26.769L166.578 27.268ZM166.802 27.268L166.851 26.7704L166.826 26.768H166.802V27.268ZM172.234 27.8L172.185 28.2976L172.227 28.3017L172.268 28.2988L172.234 27.8ZM175.403 27.5833L175.599 30.3553L176.597 30.2847L176.401 27.5127L175.403 27.5833ZM176.061 29.8214L172.281 30.1014L172.355 31.0986L176.135 30.8186L176.061 29.8214ZM172.318 30.1H172.066V31.1H172.318V30.1ZM172.11 30.1019L170.514 29.9619L170.426 30.9581L172.022 31.0981L172.11 30.1019ZM169.971 30.4285L169.775 33.5365L170.773 33.5995L170.969 30.4915L169.971 30.4285ZM169.776 33.6112L170.308 39.7432L171.304 39.6568L170.772 33.5248L169.776 33.6112ZM170.313 39.7822L170.341 39.9502L171.327 39.7858L171.299 39.6178L170.313 39.7822ZM170.335 39.8455L170.055 46.0615L171.053 46.1065L171.333 39.8905L170.335 39.8455ZM170.579 45.5846L167.779 45.4446L167.729 46.4434L170.529 46.5834L170.579 45.5846ZM168.253 45.9669L168.533 39.8629L167.535 39.8171L167.255 45.9211L168.253 45.9669ZM168.532 39.7945L167.972 33.6625L166.976 33.7535L167.536 39.8855L168.532 39.7945ZM167.974 33.708V33.484H166.974V33.708H167.974ZM167.973 33.5175L168.197 30.1855L167.199 30.1185L166.975 33.4505L167.973 33.5175ZM167.737 29.6535L166.673 29.5696L166.595 30.5664L167.659 30.6504L167.737 29.6535ZM166.604 29.5689L162.348 29.8209L162.408 30.8191L166.664 30.5671L166.604 29.5689ZM162.877 30.2898L162.709 27.5178L161.711 27.5782L161.879 30.3502L162.877 30.2898ZM162.242 28.047L166.61 27.767L166.546 26.769L162.178 27.049L162.242 28.047ZM166.578 27.768H166.802V26.768H166.578V27.768ZM166.753 27.7656L172.185 28.2976L172.283 27.3024L166.851 26.7704L166.753 27.7656ZM172.268 28.2988L175.936 28.0468L175.868 27.0492L172.2 27.3012L172.268 28.2988ZM186.391 42.948V42.448H186.38L186.368 42.4485L186.391 42.948ZM186.531 42.948L186.552 42.4485L186.541 42.448H186.531V42.948ZM193.111 43.228L193.61 43.2532L193.636 42.7499L193.132 42.7285L193.111 43.228ZM192.971 46L192.951 46.4996L193.445 46.5188L193.47 46.0252L192.971 46ZM186.475 45.748L186.494 45.2484L186.473 45.2476L186.453 45.2485L186.475 45.748ZM180.791 46L180.456 46.3709L180.608 46.5086L180.813 46.4995L180.791 46ZM179.335 44.684L178.835 44.7091L178.846 44.916L179 45.0549L179.335 44.684ZM179.055 39.112H178.555V39.1246L178.555 39.1371L179.055 39.112ZM179.055 38.888L178.558 38.8364L178.555 38.8621V38.888H179.055ZM179.587 33.764L180.084 33.8156L180.088 33.7767L180.086 33.7376L179.587 33.764ZM179.335 29.004L178.981 28.6504L178.824 28.808L178.836 29.0304L179.335 29.004ZM180.791 27.548L180.811 27.0484L180.592 27.0394L180.437 27.1944L180.791 27.548ZM186.895 27.8L186.874 28.2996L186.895 28.3004L186.916 28.2996L186.895 27.8ZM192.971 27.548L193.47 27.5228L193.445 27.0279L192.95 27.0484L192.971 27.548ZM193.111 30.32L193.134 30.8195L193.636 30.7966L193.61 30.2948L193.111 30.32ZM186.979 30.6V31.1H186.99L187.002 31.0995L186.979 30.6ZM186.839 30.6L186.818 31.0996L186.828 31.1H186.839V30.6ZM182.219 30.404L182.24 29.9044L181.692 29.8812L181.719 30.4294L182.219 30.404ZM182.387 33.708H182.887V33.6953L182.886 33.6826L182.387 33.708ZM182.387 33.932L182.884 33.9849L182.887 33.9585V33.932H182.387ZM182.247 35.248L181.75 35.1951L181.685 35.8056L182.296 35.7456L182.247 35.248ZM185.383 34.94V34.44H185.358L185.334 34.4424L185.383 34.94ZM185.663 34.94L185.71 34.4423L185.687 34.44H185.663V34.94ZM190.367 35.388L190.865 35.4328L190.909 34.9374L190.414 34.8903L190.367 35.388ZM190.115 38.188L190.066 38.6856L190.568 38.7346L190.613 38.2328L190.115 38.188ZM185.523 37.74L185.571 37.2424L185.522 37.2375L185.472 37.2426L185.523 37.74ZM181.939 38.104L181.888 37.6066L181.476 37.6484L181.441 38.0613L181.939 38.104ZM181.855 39.084L181.357 39.0413L181.354 39.0747L181.355 39.1081L181.855 39.084ZM182.051 43.144L181.551 43.1681L181.575 43.666L182.073 43.6435L182.051 43.144ZM186.391 43.448H186.531V42.448H186.391V43.448ZM186.51 43.4475L193.09 43.7275L193.132 42.7285L186.552 42.4485L186.51 43.4475ZM192.611 43.2028L192.471 45.9748L193.47 46.0252L193.61 43.2532L192.611 43.2028ZM192.99 45.5004L186.494 45.2484L186.455 46.2476L192.951 46.4996L192.99 45.5004ZM186.453 45.2485L180.769 45.5005L180.813 46.4995L186.497 46.2475L186.453 45.2485ZM181.126 45.6291L179.67 44.3131L179 45.0549L180.456 46.3709L181.126 45.6291ZM179.834 44.6589L179.554 39.0869L178.555 39.1371L178.835 44.7091L179.834 44.6589ZM179.555 39.112V38.888H178.555V39.112H179.555ZM179.552 38.9396L180.084 33.8156L179.09 33.7124L178.558 38.8364L179.552 38.9396ZM180.086 33.7376L179.834 28.9776L178.836 29.0304L179.088 33.7904L180.086 33.7376ZM179.688 29.3576L181.144 27.9016L180.437 27.1944L178.981 28.6504L179.688 29.3576ZM180.77 28.0476L186.874 28.2996L186.915 27.3004L180.811 27.0484L180.77 28.0476ZM186.916 28.2996L192.992 28.0476L192.95 27.0484L186.874 27.3004L186.916 28.2996ZM192.471 27.5732L192.611 30.3452L193.61 30.2948L193.47 27.5228L192.471 27.5732ZM193.088 29.8205L186.956 30.1005L187.002 31.0995L193.134 30.8195L193.088 29.8205ZM186.979 30.1H186.839V31.1H186.979V30.1ZM186.86 30.1004L182.24 29.9044L182.198 30.9035L186.818 31.0996L186.86 30.1004ZM181.719 30.4294L181.887 33.7334L182.886 33.6826L182.718 30.3786L181.719 30.4294ZM181.887 33.708V33.932H182.887V33.708H181.887ZM181.89 33.8791L181.75 35.1951L182.744 35.3009L182.884 33.9849L181.89 33.8791ZM182.296 35.7456L185.432 35.4376L185.334 34.4424L182.198 34.7504L182.296 35.7456ZM185.383 35.44H185.663V34.44H185.383V35.44ZM185.615 35.4377L190.319 35.8857L190.414 34.8903L185.71 34.4423L185.615 35.4377ZM189.869 35.3432L189.617 38.1432L190.613 38.2328L190.865 35.4328L189.869 35.3432ZM190.163 37.6904L185.571 37.2424L185.474 38.2376L190.066 38.6856L190.163 37.6904ZM185.472 37.2426L181.888 37.6066L181.989 38.6014L185.573 38.2374L185.472 37.2426ZM181.441 38.0613L181.357 39.0413L182.353 39.1267L182.437 38.1467L181.441 38.0613ZM181.355 39.1081L181.551 43.1681L182.55 43.1199L182.354 39.0599L181.355 39.1081ZM182.073 43.6435L186.413 43.4475L186.368 42.4485L182.028 42.6445L182.073 43.6435ZM203.748 45.972V46.472H203.833L203.914 46.4434L203.748 45.972ZM202.768 45.972L202.588 46.4386L202.675 46.472H202.768V45.972ZM199.716 44.796L199.395 45.1801L199.459 45.2329L199.536 45.2626L199.716 44.796ZM199.044 44.236L198.625 44.5098L198.666 44.5723L198.723 44.6201L199.044 44.236ZM197.028 41.156L196.759 40.734L196.332 41.0058L196.609 41.4298L197.028 41.156ZM199.408 39.644L199.829 39.3747L199.56 38.9546L199.139 39.222L199.408 39.644ZM201.144 42.36L200.722 42.6293L200.812 42.7693L200.967 42.8279L201.144 42.36ZM203.3 43.172L203.123 43.6399L203.297 43.7053L203.471 43.6416L203.3 43.172ZM206.212 42.108L206.383 42.5776L206.622 42.4902L206.692 42.2454L206.212 42.108ZM206.828 39.952L207.308 40.0894L207.379 39.8436L207.22 39.6427L206.828 39.952ZM205.792 38.636L206.184 38.3267L206.057 38.165L205.853 38.1398L205.792 38.636ZM203.076 38.3L203.137 37.8038L203.106 37.8H203.076V38.3ZM203.02 38.3L202.931 38.7921L202.975 38.8H203.02V38.3ZM199.744 37.712L199.479 38.136L199.56 38.1871L199.655 38.2041L199.744 37.712ZM198.848 37.152L198.438 37.4387L198.496 37.5221L198.583 37.576L198.848 37.152ZM197.084 34.632L196.585 34.6719L196.596 34.8074L196.674 34.9187L197.084 34.632ZM196.972 33.232L196.52 33.0163L196.462 33.1377L196.473 33.2719L196.972 33.232ZM198.512 30.012L198.158 29.6584L198.097 29.719L198.06 29.7963L198.512 30.012ZM199.156 29.368L198.933 28.9201L198.86 28.9565L198.802 29.0144L199.156 29.368ZM202.656 27.632L202.629 27.1327L202.526 27.1381L202.433 27.1841L202.656 27.632ZM203.72 27.576L203.874 27.1004L203.786 27.0718L203.693 27.0767L203.72 27.576ZM206.912 28.612L207.175 28.1869L207.123 28.1551L207.066 28.1364L206.912 28.612ZM207.5 28.976L207.864 28.6332L207.819 28.5854L207.763 28.5509L207.5 28.976ZM209.32 30.908L209.663 31.2714L210.026 30.9285L209.684 30.5652L209.32 30.908ZM207.276 32.84L206.91 33.1812L207.253 33.549L207.619 33.2034L207.276 32.84ZM205.708 31.16L206.073 30.8188L205.985 30.7245L205.862 30.6845L205.708 31.16ZM203.384 30.404L203.538 29.9285L203.346 29.8659L203.164 29.9548L203.384 30.404ZM200.808 31.664L200.588 31.2148L200.433 31.2905L200.358 31.4454L200.808 31.664ZM199.828 33.68L199.378 33.4614L199.248 33.7287L199.421 33.9706L199.828 33.68ZM200.808 35.052L200.401 35.3426L200.519 35.5083L200.719 35.5442L200.808 35.052ZM203.468 35.528L203.379 36.0202L203.394 36.0227L203.408 36.0244L203.468 35.528ZM206.716 35.92L206.965 35.4867L206.877 35.4358L206.775 35.4236L206.716 35.92ZM207.64 36.452L208.033 36.1437L207.973 36.0672L207.889 36.0187L207.64 36.452ZM209.46 38.776L209.949 38.6758L209.926 38.5604L209.853 38.4677L209.46 38.776ZM209.712 40.008L210.194 40.1408L210.225 40.0253L210.201 39.9078L209.712 40.008ZM208.732 43.564L209.101 43.9009L209.182 43.8123L209.214 43.6968L208.732 43.564ZM207.864 44.516L208.03 44.9874L208.149 44.9456L208.233 44.8529L207.864 44.516ZM203.748 45.472H202.768V46.472H203.748V45.472ZM202.947 45.5054L199.895 44.3294L199.536 45.2626L202.588 46.4386L202.947 45.5054ZM200.036 44.4119L199.364 43.8519L198.723 44.6201L199.395 45.1801L200.036 44.4119ZM199.462 43.9622L197.446 40.8822L196.609 41.4298L198.625 44.5098L199.462 43.9622ZM197.296 41.578L199.676 40.066L199.139 39.222L196.759 40.734L197.296 41.578ZM198.986 39.9133L200.722 42.6293L201.565 42.0907L199.829 39.3747L198.986 39.9133ZM200.967 42.8279L203.123 43.6399L203.476 42.7041L201.32 41.8921L200.967 42.8279ZM203.471 43.6416L206.383 42.5776L206.04 41.6384L203.128 42.7024L203.471 43.6416ZM206.692 42.2454L207.308 40.0894L206.347 39.8146L205.731 41.9706L206.692 42.2454ZM207.22 39.6427L206.184 38.3267L205.399 38.9453L206.435 40.2613L207.22 39.6427ZM205.853 38.1398L203.137 37.8038L203.014 38.7962L205.73 39.1322L205.853 38.1398ZM203.076 37.8H203.02V38.8H203.076V37.8ZM203.108 37.8079L199.832 37.2199L199.655 38.2041L202.931 38.7921L203.108 37.8079ZM200.009 37.288L199.113 36.728L198.583 37.576L199.479 38.136L200.009 37.288ZM199.257 36.8653L197.493 34.3453L196.674 34.9187L198.438 37.4387L199.257 36.8653ZM197.582 34.5921L197.47 33.1921L196.473 33.2719L196.585 34.6719L197.582 34.5921ZM197.423 33.4477L198.963 30.2277L198.06 29.7963L196.52 33.0163L197.423 33.4477ZM198.865 30.3656L199.509 29.7216L198.802 29.0144L198.158 29.6584L198.865 30.3656ZM199.378 29.8159L202.878 28.0799L202.433 27.1841L198.933 28.9201L199.378 29.8159ZM202.682 28.1313L203.746 28.0753L203.693 27.0767L202.629 27.1327L202.682 28.1313ZM203.565 28.0516L206.757 29.0876L207.066 28.1364L203.874 27.1004L203.565 28.0516ZM206.648 29.0371L207.236 29.4011L207.763 28.5509L207.175 28.1869L206.648 29.0371ZM207.136 29.3188L208.956 31.2508L209.684 30.5652L207.864 28.6332L207.136 29.3188ZM208.976 30.5446L206.932 32.4766L207.619 33.2034L209.663 31.2714L208.976 30.5446ZM207.641 32.4988L206.073 30.8188L205.342 31.5012L206.91 33.1812L207.641 32.4988ZM205.862 30.6845L203.538 29.9285L203.229 30.8795L205.553 31.6355L205.862 30.6845ZM203.164 29.9548L200.588 31.2148L201.027 32.1131L203.603 30.8531L203.164 29.9548ZM200.358 31.4454L199.378 33.4614L200.277 33.8986L201.257 31.8826L200.358 31.4454ZM199.421 33.9706L200.401 35.3426L201.214 34.7614L200.234 33.3894L199.421 33.9706ZM200.719 35.5442L203.379 36.0202L203.556 35.0358L200.896 34.5598L200.719 35.5442ZM203.408 36.0244L206.656 36.4164L206.775 35.4236L203.527 35.0316L203.408 36.0244ZM206.466 36.3533L207.39 36.8853L207.889 36.0187L206.965 35.4867L206.466 36.3533ZM207.246 36.7603L209.066 39.0843L209.853 38.4677L208.033 36.1437L207.246 36.7603ZM208.97 38.8762L209.222 40.1082L210.201 39.9078L209.949 38.6758L208.97 38.8762ZM209.23 39.8752L208.25 43.4312L209.214 43.6968L210.194 40.1408L209.23 39.8752ZM208.362 43.2271L207.494 44.1791L208.233 44.8529L209.101 43.9009L208.362 43.2271ZM207.697 44.0446L203.581 45.5006L203.914 46.4434L208.03 44.9874L207.697 44.0446ZM226.062 27.548L226.561 27.5127L226.526 27.015L226.028 27.0492L226.062 27.548ZM226.258 30.32L226.295 30.8186L226.792 30.7818L226.757 30.2847L226.258 30.32ZM222.478 30.6V31.1H222.497L222.515 31.0986L222.478 30.6ZM222.226 30.6L222.183 31.0981L222.205 31.1H222.226V30.6ZM220.63 30.46L220.674 29.9619L220.164 29.9171L220.131 30.4285L220.63 30.46ZM220.434 33.568L219.935 33.5365L219.933 33.5739L219.936 33.6112L220.434 33.568ZM220.966 39.7L220.468 39.7432L220.47 39.7628L220.473 39.7822L220.966 39.7ZM220.994 39.868L221.494 39.8905L221.496 39.8378L221.488 39.7858L220.994 39.868ZM220.714 46.084L220.69 46.5834L221.191 46.6085L221.214 46.1065L220.714 46.084ZM217.914 45.944L217.415 45.9211L217.392 46.4185L217.89 46.4434L217.914 45.944ZM218.194 39.84L218.694 39.8629L218.696 39.8287L218.692 39.7945L218.194 39.84ZM217.634 33.708H217.134V33.7308L217.137 33.7535L217.634 33.708ZM217.634 33.484L217.136 33.4505L217.134 33.4672V33.484H217.634ZM217.858 30.152L218.357 30.1855L218.39 29.6924L217.898 29.6535L217.858 30.152ZM216.794 30.068L216.834 29.5696L216.799 29.5668L216.765 29.5689L216.794 30.068ZM212.538 30.32L212.039 30.3502L212.07 30.8486L212.568 30.8191L212.538 30.32ZM212.37 27.548L212.338 27.049L211.841 27.0809L211.871 27.5782L212.37 27.548ZM216.738 27.268V26.768H216.722L216.706 26.769L216.738 27.268ZM216.962 27.268L217.011 26.7704L216.987 26.768H216.962V27.268ZM222.394 27.8L222.346 28.2976L222.387 28.3017L222.429 28.2988L222.394 27.8ZM225.564 27.5833L225.76 30.3553L226.757 30.2847L226.561 27.5127L225.564 27.5833ZM226.222 29.8214L222.442 30.1014L222.515 31.0986L226.295 30.8186L226.222 29.8214ZM222.478 30.1H222.226V31.1H222.478V30.1ZM222.27 30.1019L220.674 29.9619L220.587 30.9581L222.183 31.0981L222.27 30.1019ZM220.131 30.4285L219.935 33.5365L220.933 33.5995L221.129 30.4915L220.131 30.4285ZM219.936 33.6112L220.468 39.7432L221.465 39.6568L220.933 33.5248L219.936 33.6112ZM220.473 39.7822L220.501 39.9502L221.488 39.7858L221.46 39.6178L220.473 39.7822ZM220.495 39.8455L220.215 46.0615L221.214 46.1065L221.494 39.8905L220.495 39.8455ZM220.739 45.5846L217.939 45.4446L217.89 46.4434L220.69 46.5834L220.739 45.5846ZM218.414 45.9669L218.694 39.8629L217.695 39.8171L217.415 45.9211L218.414 45.9669ZM218.692 39.7945L218.132 33.6625L217.137 33.7535L217.697 39.8855L218.692 39.7945ZM218.134 33.708V33.484H217.134V33.708H218.134ZM218.133 33.5175L218.357 30.1855L217.36 30.1185L217.136 33.4505L218.133 33.5175ZM217.898 29.6535L216.834 29.5696L216.755 30.5664L217.819 30.6504L217.898 29.6535ZM216.765 29.5689L212.509 29.8209L212.568 30.8191L216.824 30.5671L216.765 29.5689ZM213.038 30.2898L212.87 27.5178L211.871 27.5782L212.039 30.3502L213.038 30.2898ZM212.402 28.047L216.77 27.767L216.706 26.769L212.338 27.049L212.402 28.047ZM216.738 27.768H216.962V26.768H216.738V27.768ZM216.914 27.7656L222.346 28.2976L222.443 27.3024L217.011 26.7704L216.914 27.7656ZM222.429 28.2988L226.097 28.0468L226.028 27.0492L222.36 27.3012L222.429 28.2988Z" fill="url(#paint2_linear_2109_22)" mask="url(#path-3-outside-1_2109_22)"/>
<defs>
<linearGradient id="paint0_linear_2109_22" x1="72.2252" y1="24" x2="97.4569" y2="24.9651" gradientUnits="userSpaceOnUse">
<stop offset="0.0189512" stop-color="#0064FB"/>
<stop offset="1" stop-color="#1ECDF8"/>
</linearGradient>
<linearGradient id="paint1_linear_2109_22" x1="111.556" y1="24" x2="225.825" y2="44.3955" gradientUnits="userSpaceOnUse">
<stop offset="0.0189512" stop-color="#0064FB"/>
<stop offset="1" stop-color="#1ECDF8"/>
</linearGradient>
<linearGradient id="paint2_linear_2109_22" x1="111.556" y1="24" x2="225.825" y2="44.3955" gradientUnits="userSpaceOnUse">
<stop offset="0.0189512" stop-color="#0064FB"/>
<stop offset="1" stop-color="#1ECDF8"/>
</linearGradient>
</defs>
</svg>
