<svg width="251" height="80" viewBox="0 0 251 80" fill="none" xmlns="http://www.w3.org/2000/svg">
<path d="M8 0.5H192.518C195.005 0.5 197.33 1.73275 198.726 3.79115L242.118 67.7911C245.495 72.7712 241.927 79.5 235.911 79.5H8C3.85786 79.5 0.5 76.1421 0.5 72V8C0.5 3.85787 3.85786 0.5 8 0.5Z" fill="#2E0B6C" stroke="#36107B"/>
<g filter="url(#filter0_d_2109_19)">
<mask id="path-2-outside-1_2109_19" maskUnits="userSpaceOnUse" x="29" y="26" width="149" height="21" fill="black">
<rect fill="white" x="29" y="26" width="149" height="21"/>
<path d="M42.124 39.644L43.832 45.188L41.144 46.028L39.464 40.512L39.128 39.7L38.064 39.84L37.7 39.812L35.964 39.56H34.956L34.424 42.024L34.368 42.22L32.884 46.112L30.28 45.104L31.708 41.324L33.024 35.36L33.052 35.192L35.712 27.492L38.4 27.576L40.808 36.34L42.096 39.532L42.124 39.644ZM37.924 37.012H38.092L36.888 32.644L35.74 36.032L35.572 36.76H36.076L36.3 36.788L37.924 37.012ZM54.5254 34.912L54.8334 34.94L58.1374 35.388L57.7734 38.16L54.5814 37.712L49.7374 38.104L49.5694 40.428L49.8214 45.944L47.0494 46.084L46.7694 40.484V40.316L47.3014 32.644L47.0214 29.06L48.4774 27.548L54.5534 27.8L60.6574 27.548L60.7974 30.32L54.6094 30.6H54.4974L49.9334 30.404L50.1014 32.532V32.756L49.9334 35.276L54.5254 34.912ZM72.7221 34.912L73.0301 34.94L76.3341 35.388L75.9701 38.16L72.7781 37.712L67.9341 38.104L67.7661 40.428L68.0181 45.944L65.2461 46.084L64.9661 40.484V40.316L65.4981 32.644L65.2181 29.06L66.6741 27.548L72.7501 27.8L78.8541 27.548L78.9941 30.32L72.8061 30.6H72.6941L68.1301 30.404L68.2981 32.532V32.756L68.1301 35.276L72.7221 34.912ZM86.2148 46.084L83.4428 45.944L83.6948 40.232L83.1628 33.904V33.708L83.4428 27.464L86.2148 27.604L85.9628 33.764L86.4948 40.092V40.288L86.2148 46.084ZM105.186 46L100.034 45.748L92.9777 46L91.5497 44.488L91.8017 40.96L91.2697 30.852V30.656L91.5497 27.408L94.3217 27.66L94.0697 30.796L94.6017 40.904V41.1L94.4617 43.144L100.006 42.948H100.146L105.326 43.228L105.186 46ZM112.518 46.084L109.746 45.944L109.998 40.232L109.466 33.904V33.708L109.746 27.464L112.518 27.604L112.266 33.764L112.798 40.092V40.288L112.518 46.084ZM127.597 39.644L129.305 45.188L126.617 46.028L124.937 40.512L124.601 39.7L123.537 39.84L123.173 39.812L121.437 39.56H120.429L119.897 42.024L119.841 42.22L118.357 46.112L115.753 45.104L117.181 41.324L118.497 35.36L118.525 35.192L121.185 27.492L123.873 27.576L126.281 36.34L127.569 39.532L127.597 39.644ZM123.397 37.012H123.565L122.361 32.644L121.213 36.032L121.045 36.76H121.549L121.773 36.788L123.397 37.012ZM143.267 27.548L143.463 30.32L139.683 30.6H139.431L137.835 30.46L137.639 33.568L138.171 39.7L138.199 39.868L137.919 46.084L135.119 45.944L135.399 39.84L134.839 33.708V33.484L135.063 30.152L133.999 30.068L129.743 30.32L129.575 27.548L133.943 27.268H134.167L139.599 27.8L143.267 27.548ZM153.756 42.948H153.896L160.476 43.228L160.336 46L153.84 45.748L148.156 46L146.7 44.684L146.42 39.112V38.888L146.952 33.764L146.7 29.004L148.156 27.548L154.26 27.8L160.336 27.548L160.476 30.32L154.344 30.6H154.204L149.584 30.404L149.752 33.708V33.932L149.612 35.248L152.748 34.94H153.028L157.732 35.388L157.48 38.188L152.888 37.74L149.304 38.104L149.22 39.084L149.416 43.144L153.756 42.948ZM171.113 45.972H170.133L167.081 44.796L166.409 44.236L164.393 41.156L166.773 39.644L168.509 42.36L170.665 43.172L173.577 42.108L174.193 39.952L173.157 38.636L170.441 38.3H170.385L167.109 37.712L166.213 37.152L164.449 34.632L164.337 33.232L165.877 30.012L166.521 29.368L170.021 27.632L171.085 27.576L174.277 28.612L174.865 28.976L176.685 30.908L174.641 32.84L173.073 31.16L170.749 30.404L168.173 31.664L167.193 33.68L168.173 35.052L170.833 35.528L174.081 35.92L175.005 36.452L176.825 38.776L177.077 40.008L176.097 43.564L175.229 44.516L171.113 45.972Z"/>
</mask>
<path d="M42.124 39.644L43.832 45.188L41.144 46.028L39.464 40.512L39.128 39.7L38.064 39.84L37.7 39.812L35.964 39.56H34.956L34.424 42.024L34.368 42.22L32.884 46.112L30.28 45.104L31.708 41.324L33.024 35.36L33.052 35.192L35.712 27.492L38.4 27.576L40.808 36.34L42.096 39.532L42.124 39.644ZM37.924 37.012H38.092L36.888 32.644L35.74 36.032L35.572 36.76H36.076L36.3 36.788L37.924 37.012ZM54.5254 34.912L54.8334 34.94L58.1374 35.388L57.7734 38.16L54.5814 37.712L49.7374 38.104L49.5694 40.428L49.8214 45.944L47.0494 46.084L46.7694 40.484V40.316L47.3014 32.644L47.0214 29.06L48.4774 27.548L54.5534 27.8L60.6574 27.548L60.7974 30.32L54.6094 30.6H54.4974L49.9334 30.404L50.1014 32.532V32.756L49.9334 35.276L54.5254 34.912ZM72.7221 34.912L73.0301 34.94L76.3341 35.388L75.9701 38.16L72.7781 37.712L67.9341 38.104L67.7661 40.428L68.0181 45.944L65.2461 46.084L64.9661 40.484V40.316L65.4981 32.644L65.2181 29.06L66.6741 27.548L72.7501 27.8L78.8541 27.548L78.9941 30.32L72.8061 30.6H72.6941L68.1301 30.404L68.2981 32.532V32.756L68.1301 35.276L72.7221 34.912ZM86.2148 46.084L83.4428 45.944L83.6948 40.232L83.1628 33.904V33.708L83.4428 27.464L86.2148 27.604L85.9628 33.764L86.4948 40.092V40.288L86.2148 46.084ZM105.186 46L100.034 45.748L92.9777 46L91.5497 44.488L91.8017 40.96L91.2697 30.852V30.656L91.5497 27.408L94.3217 27.66L94.0697 30.796L94.6017 40.904V41.1L94.4617 43.144L100.006 42.948H100.146L105.326 43.228L105.186 46ZM112.518 46.084L109.746 45.944L109.998 40.232L109.466 33.904V33.708L109.746 27.464L112.518 27.604L112.266 33.764L112.798 40.092V40.288L112.518 46.084ZM127.597 39.644L129.305 45.188L126.617 46.028L124.937 40.512L124.601 39.7L123.537 39.84L123.173 39.812L121.437 39.56H120.429L119.897 42.024L119.841 42.22L118.357 46.112L115.753 45.104L117.181 41.324L118.497 35.36L118.525 35.192L121.185 27.492L123.873 27.576L126.281 36.34L127.569 39.532L127.597 39.644ZM123.397 37.012H123.565L122.361 32.644L121.213 36.032L121.045 36.76H121.549L121.773 36.788L123.397 37.012ZM143.267 27.548L143.463 30.32L139.683 30.6H139.431L137.835 30.46L137.639 33.568L138.171 39.7L138.199 39.868L137.919 46.084L135.119 45.944L135.399 39.84L134.839 33.708V33.484L135.063 30.152L133.999 30.068L129.743 30.32L129.575 27.548L133.943 27.268H134.167L139.599 27.8L143.267 27.548ZM153.756 42.948H153.896L160.476 43.228L160.336 46L153.84 45.748L148.156 46L146.7 44.684L146.42 39.112V38.888L146.952 33.764L146.7 29.004L148.156 27.548L154.26 27.8L160.336 27.548L160.476 30.32L154.344 30.6H154.204L149.584 30.404L149.752 33.708V33.932L149.612 35.248L152.748 34.94H153.028L157.732 35.388L157.48 38.188L152.888 37.74L149.304 38.104L149.22 39.084L149.416 43.144L153.756 42.948ZM171.113 45.972H170.133L167.081 44.796L166.409 44.236L164.393 41.156L166.773 39.644L168.509 42.36L170.665 43.172L173.577 42.108L174.193 39.952L173.157 38.636L170.441 38.3H170.385L167.109 37.712L166.213 37.152L164.449 34.632L164.337 33.232L165.877 30.012L166.521 29.368L170.021 27.632L171.085 27.576L174.277 28.612L174.865 28.976L176.685 30.908L174.641 32.84L173.073 31.16L170.749 30.404L168.173 31.664L167.193 33.68L168.173 35.052L170.833 35.528L174.081 35.92L175.005 36.452L176.825 38.776L177.077 40.008L176.097 43.564L175.229 44.516L171.113 45.972Z" fill="url(#paint0_linear_2109_19)"/>
<path d="M42.124 39.644L41.6389 39.7653L41.6422 39.7783L41.6462 39.7912L42.124 39.644ZM43.832 45.188L43.9811 45.6652L44.4565 45.5167L44.3098 45.0408L43.832 45.188ZM41.144 46.028L40.6657 46.1737L40.8124 46.6555L41.2931 46.5052L41.144 46.028ZM39.464 40.512L39.9423 40.3663L39.9353 40.3432L39.926 40.3208L39.464 40.512ZM39.128 39.7L39.59 39.5088L39.4433 39.1542L39.0628 39.2043L39.128 39.7ZM38.064 39.84L38.0257 40.3385L38.0776 40.3425L38.1292 40.3357L38.064 39.84ZM37.7 39.812L37.6282 40.3068L37.6448 40.3092L37.6617 40.3105L37.7 39.812ZM35.964 39.56L36.0358 39.0652L36.0001 39.06H35.964V39.56ZM34.956 39.56V39.06H34.5524L34.4673 39.4545L34.956 39.56ZM34.424 42.024L34.9048 42.1614L34.9093 42.1456L34.9127 42.1295L34.424 42.024ZM34.368 42.22L34.8352 42.3981L34.8429 42.378L34.8488 42.3574L34.368 42.22ZM32.884 46.112L32.7035 46.5783L33.1722 46.7597L33.3512 46.2901L32.884 46.112ZM30.28 45.104L29.8123 44.9273L29.637 45.3912L30.0995 45.5703L30.28 45.104ZM31.708 41.324L32.1757 41.5007L32.1885 41.467L32.1963 41.4317L31.708 41.324ZM33.024 35.36L33.5123 35.4677L33.5151 35.455L33.5172 35.4422L33.024 35.36ZM33.052 35.192L32.5794 35.0287L32.5657 35.0684L32.5588 35.1098L33.052 35.192ZM35.712 27.492L35.7276 26.9922L35.3596 26.9807L35.2394 27.3287L35.712 27.492ZM38.4 27.576L38.8821 27.4435L38.7844 27.0878L38.4156 27.0762L38.4 27.576ZM40.808 36.34L40.3259 36.4725L40.3335 36.5003L40.3443 36.5271L40.808 36.34ZM42.096 39.532L42.5811 39.4107L42.5727 39.3771L42.5597 39.3449L42.096 39.532ZM37.924 37.012L37.8557 37.5073L37.8897 37.512H37.924V37.012ZM38.092 37.012V37.512H38.7485L38.574 36.8791L38.092 37.012ZM36.888 32.644L37.37 32.5111L36.9372 30.9408L36.4144 32.4835L36.888 32.644ZM35.74 36.032L35.2664 35.8715L35.2584 35.8952L35.2528 35.9196L35.74 36.032ZM35.572 36.76L35.0848 36.6476L34.9435 37.26H35.572V36.76ZM36.076 36.76L36.138 36.2639L36.1071 36.26H36.076V36.76ZM36.3 36.788L36.3683 36.2926L36.362 36.2919L36.3 36.788ZM41.6462 39.7912L43.3542 45.3352L44.3098 45.0408L42.6018 39.4968L41.6462 39.7912ZM43.6829 44.7108L40.9949 45.5508L41.2931 46.5052L43.9811 45.6652L43.6829 44.7108ZM41.6223 45.8823L39.9423 40.3663L38.9857 40.6577L40.6657 46.1737L41.6223 45.8823ZM39.926 40.3208L39.59 39.5088L38.666 39.8912L39.002 40.7032L39.926 40.3208ZM39.0628 39.2043L37.9988 39.3443L38.1292 40.3357L39.1932 40.1957L39.0628 39.2043ZM38.1023 39.3415L37.7383 39.3135L37.6617 40.3105L38.0257 40.3385L38.1023 39.3415ZM37.7718 39.3172L36.0358 39.0652L35.8922 40.0548L37.6282 40.3068L37.7718 39.3172ZM35.964 39.06H34.956V40.06H35.964V39.06ZM34.4673 39.4545L33.9353 41.9185L34.9127 42.1295L35.4447 39.6655L34.4673 39.4545ZM33.9432 41.8866L33.8872 42.0826L34.8488 42.3574L34.9048 42.1614L33.9432 41.8866ZM33.9008 42.0419L32.4168 45.9339L33.3512 46.2901L34.8352 42.3981L33.9008 42.0419ZM33.0645 45.6457L30.4605 44.6377L30.0995 45.5703L32.7035 46.5783L33.0645 45.6457ZM30.7477 45.2807L32.1757 41.5007L31.2403 41.1473L29.8123 44.9273L30.7477 45.2807ZM32.1963 41.4317L33.5123 35.4677L32.5357 35.2523L31.2197 41.2163L32.1963 41.4317ZM33.5172 35.4422L33.5452 35.2742L32.5588 35.1098L32.5308 35.2778L33.5172 35.4422ZM33.5246 35.3553L36.1846 27.6553L35.2394 27.3287L32.5794 35.0287L33.5246 35.3553ZM35.6964 27.9918L38.3844 28.0758L38.4156 27.0762L35.7276 26.9922L35.6964 27.9918ZM37.9179 27.7085L40.3259 36.4725L41.2901 36.2075L38.8821 27.4435L37.9179 27.7085ZM40.3443 36.5271L41.6323 39.7191L42.5597 39.3449L41.2717 36.1529L40.3443 36.5271ZM41.6109 39.6533L41.6389 39.7653L42.6091 39.5227L42.5811 39.4107L41.6109 39.6533ZM37.924 37.512H38.092V36.512H37.924V37.512ZM38.574 36.8791L37.37 32.5111L36.406 32.7769L37.61 37.1449L38.574 36.8791ZM36.4144 32.4835L35.2664 35.8715L36.2136 36.1925L37.3616 32.8045L36.4144 32.4835ZM35.2528 35.9196L35.0848 36.6476L36.0592 36.8724L36.2272 36.1444L35.2528 35.9196ZM35.572 37.26H36.076V36.26H35.572V37.26ZM36.014 37.2561L36.238 37.2841L36.362 36.2919L36.138 36.2639L36.014 37.2561ZM36.2317 37.2833L37.8557 37.5073L37.9923 36.5167L36.3683 36.2927L36.2317 37.2833ZM54.5254 34.912L54.5706 34.4141L54.5283 34.4102L54.4859 34.4136L54.5254 34.912ZM54.8334 34.94L54.9006 34.4445L54.8896 34.4431L54.8786 34.4421L54.8334 34.94ZM58.1374 35.388L58.6331 35.4531L58.6979 34.9594L58.2046 34.8925L58.1374 35.388ZM57.7734 38.16L57.7039 38.6551L58.2034 38.7253L58.2691 38.2251L57.7734 38.16ZM54.5814 37.712L54.6509 37.2169L54.5961 37.2092L54.541 37.2136L54.5814 37.712ZM49.7374 38.104L49.697 37.6056L49.2696 37.6402L49.2387 38.0679L49.7374 38.104ZM49.5694 40.428L49.0707 40.3919L49.0686 40.4214L49.0699 40.4508L49.5694 40.428ZM49.8214 45.944L49.8466 46.4434L50.3436 46.4183L50.3209 45.9212L49.8214 45.944ZM47.0494 46.084L46.55 46.109L46.575 46.6086L47.0746 46.5834L47.0494 46.084ZM46.7694 40.484H46.2694V40.4965L46.27 40.509L46.7694 40.484ZM46.7694 40.316L46.2706 40.2814L46.2694 40.2987V40.316H46.7694ZM47.3014 32.644L47.8002 32.6786L47.8027 32.6418L47.7999 32.6051L47.3014 32.644ZM47.0214 29.06L46.6612 28.7132L46.5054 28.875L46.5229 29.0989L47.0214 29.06ZM48.4774 27.548L48.4981 27.0484L48.2733 27.0391L48.1172 27.2012L48.4774 27.548ZM54.5534 27.8L54.5327 28.2996L54.5533 28.3004L54.574 28.2996L54.5534 27.8ZM60.6574 27.548L61.1567 27.5228L61.1318 27.028L60.6368 27.0484L60.6574 27.548ZM60.7974 30.32L60.82 30.8195L61.3221 30.7968L61.2967 30.2948L60.7974 30.32ZM54.6094 30.6V31.1H54.6207L54.632 31.0995L54.6094 30.6ZM54.4974 30.6L54.4759 31.0995L54.4866 31.1H54.4974V30.6ZM49.9334 30.404L49.9548 29.9045L49.3905 29.8802L49.4349 30.4434L49.9334 30.404ZM50.1014 32.532H50.6014V32.5123L50.5998 32.4926L50.1014 32.532ZM50.1014 32.756L50.6003 32.7893L50.6014 32.7726V32.756H50.1014ZM49.9334 35.276L49.4345 35.2427L49.396 35.8202L49.9729 35.7744L49.9334 35.276ZM54.4801 35.4099L54.7881 35.4379L54.8786 34.4421L54.5706 34.4141L54.4801 35.4099ZM54.7662 35.4355L58.0702 35.8835L58.2046 34.8925L54.9006 34.4445L54.7662 35.4355ZM57.6416 35.3229L57.2776 38.0949L58.2691 38.2251L58.6331 35.4531L57.6416 35.3229ZM57.8429 37.6649L54.6509 37.2169L54.5119 38.2071L57.7039 38.6551L57.8429 37.6649ZM54.541 37.2136L49.697 37.6056L49.7777 38.6024L54.6217 38.2104L54.541 37.2136ZM49.2387 38.0679L49.0707 40.3919L50.0681 40.4641L50.2361 38.1401L49.2387 38.0679ZM49.0699 40.4508L49.3219 45.9668L50.3209 45.9212L50.0689 40.4052L49.0699 40.4508ZM49.7962 45.4446L47.0242 45.5846L47.0746 46.5834L49.8466 46.4434L49.7962 45.4446ZM47.5488 46.059L47.2688 40.459L46.27 40.509L46.55 46.109L47.5488 46.059ZM47.2694 40.484V40.316H46.2694V40.484H47.2694ZM47.2682 40.3506L47.8002 32.6786L46.8026 32.6094L46.2706 40.2814L47.2682 40.3506ZM47.7999 32.6051L47.5199 29.0211L46.5229 29.0989L46.8029 32.6829L47.7999 32.6051ZM47.3815 29.4068L48.8375 27.8948L48.1172 27.2012L46.6612 28.7132L47.3815 29.4068ZM48.4567 28.0476L54.5327 28.2996L54.5741 27.3004L48.4981 27.0484L48.4567 28.0476ZM54.574 28.2996L60.678 28.0476L60.6368 27.0484L54.5328 27.3004L54.574 28.2996ZM60.158 27.5732L60.298 30.3452L61.2967 30.2948L61.1567 27.5228L60.158 27.5732ZM60.7748 29.8205L54.5868 30.1005L54.632 31.0995L60.82 30.8195L60.7748 29.8205ZM54.6094 30.1H54.4974V31.1H54.6094V30.1ZM54.5188 30.1005L49.9548 29.9045L49.9119 30.9035L54.4759 31.0995L54.5188 30.1005ZM49.4349 30.4434L49.6029 32.5714L50.5998 32.4926L50.4318 30.3646L49.4349 30.4434ZM49.6014 32.532V32.756H50.6014V32.532H49.6014ZM49.6025 32.7227L49.4345 35.2427L50.4323 35.3093L50.6003 32.7893L49.6025 32.7227ZM49.9729 35.7744L54.5649 35.4104L54.4859 34.4136L49.8939 34.7776L49.9729 35.7744ZM72.7221 34.912L72.7674 34.4141L72.725 34.4102L72.6826 34.4136L72.7221 34.912ZM73.0301 34.94L73.0973 34.4445L73.0863 34.4431L73.0754 34.4421L73.0301 34.94ZM76.3341 35.388L76.8298 35.4531L76.8947 34.9594L76.4013 34.8925L76.3341 35.388ZM75.9701 38.16L75.9006 38.6551L76.4002 38.7253L76.4658 38.2251L75.9701 38.16ZM72.7781 37.712L72.8476 37.2169L72.7929 37.2092L72.7378 37.2136L72.7781 37.712ZM67.9341 38.104L67.8938 37.6056L67.4663 37.6402L67.4354 38.0679L67.9341 38.104ZM67.7661 40.428L67.2674 40.3919L67.2653 40.4214L67.2666 40.4508L67.7661 40.428ZM68.0181 45.944L68.0433 46.4434L68.5403 46.4183L68.5176 45.9212L68.0181 45.944ZM65.2461 46.084L64.7467 46.109L64.7717 46.6086L65.2713 46.5834L65.2461 46.084ZM64.9661 40.484H64.4661V40.4965L64.4667 40.509L64.9661 40.484ZM64.9661 40.316L64.4673 40.2814L64.4661 40.2987V40.316H64.9661ZM65.4981 32.644L65.9969 32.6786L65.9994 32.6418L65.9966 32.6051L65.4981 32.644ZM65.2181 29.06L64.8579 28.7132L64.7021 28.875L64.7196 29.0989L65.2181 29.06ZM66.6741 27.548L66.6948 27.0484L66.47 27.0391L66.3139 27.2012L66.6741 27.548ZM72.7501 27.8L72.7294 28.2996L72.75 28.3004L72.7707 28.2996L72.7501 27.8ZM78.8541 27.548L79.3535 27.5228L79.3285 27.028L78.8335 27.0484L78.8541 27.548ZM78.9941 30.32L79.0167 30.8195L79.5188 30.7968L79.4935 30.2948L78.9941 30.32ZM72.8061 30.6V31.1H72.8174L72.8287 31.0995L72.8061 30.6ZM72.6941 30.6L72.6726 31.0995L72.6834 31.1H72.6941V30.6ZM68.1301 30.404L68.1515 29.9045L67.5872 29.8802L67.6316 30.4434L68.1301 30.404ZM68.2981 32.532H68.7981V32.5123L68.7965 32.4926L68.2981 32.532ZM68.2981 32.756L68.797 32.7893L68.7981 32.7726V32.756H68.2981ZM68.1301 35.276L67.6312 35.2427L67.5927 35.8202L68.1696 35.7744L68.1301 35.276ZM72.6768 35.4099L72.9848 35.4379L73.0754 34.4421L72.7674 34.4141L72.6768 35.4099ZM72.9629 35.4355L76.2669 35.8835L76.4013 34.8925L73.0973 34.4445L72.9629 35.4355ZM75.8383 35.3229L75.4743 38.0949L76.4658 38.2251L76.8298 35.4531L75.8383 35.3229ZM76.0396 37.6649L72.8476 37.2169L72.7086 38.2071L75.9006 38.6551L76.0396 37.6649ZM72.7378 37.2136L67.8938 37.6056L67.9744 38.6024L72.8184 38.2104L72.7378 37.2136ZM67.4354 38.0679L67.2674 40.3919L68.2648 40.4641L68.4328 38.1401L67.4354 38.0679ZM67.2666 40.4508L67.5186 45.9668L68.5176 45.9212L68.2656 40.4052L67.2666 40.4508ZM67.9929 45.4446L65.2209 45.5846L65.2713 46.5834L68.0433 46.4434L67.9929 45.4446ZM65.7455 46.059L65.4655 40.459L64.4667 40.509L64.7467 46.109L65.7455 46.059ZM65.4661 40.484V40.316H64.4661V40.484H65.4661ZM65.4649 40.3506L65.9969 32.6786L64.9993 32.6094L64.4673 40.2814L65.4649 40.3506ZM65.9966 32.6051L65.7166 29.0211L64.7196 29.0989L64.9996 32.6829L65.9966 32.6051ZM65.5783 29.4068L67.0343 27.8948L66.3139 27.2012L64.8579 28.7132L65.5783 29.4068ZM66.6534 28.0476L72.7294 28.2996L72.7708 27.3004L66.6948 27.0484L66.6534 28.0476ZM72.7707 28.2996L78.8747 28.0476L78.8335 27.0484L72.7295 27.3004L72.7707 28.2996ZM78.3547 27.5732L78.4947 30.3452L79.4935 30.2948L79.3535 27.5228L78.3547 27.5732ZM78.9715 29.8205L72.7835 30.1005L72.8287 31.0995L79.0167 30.8195L78.9715 29.8205ZM72.8061 30.1H72.6941V31.1H72.8061V30.1ZM72.7155 30.1005L68.1515 29.9045L68.1086 30.9035L72.6726 31.0995L72.7155 30.1005ZM67.6316 30.4434L67.7996 32.5714L68.7965 32.4926L68.6285 30.3646L67.6316 30.4434ZM67.7981 32.532V32.756H68.7981V32.532H67.7981ZM67.7992 32.7227L67.6312 35.2427L68.629 35.3093L68.797 32.7893L67.7992 32.7227ZM68.1696 35.7744L72.7616 35.4104L72.6826 34.4136L68.0906 34.7776L68.1696 35.7744ZM86.2148 46.084L86.1896 46.5834L86.6901 46.6086L86.7142 46.1081L86.2148 46.084ZM83.4428 45.944L82.9433 45.922L82.9214 46.4183L83.4176 46.4434L83.4428 45.944ZM83.6948 40.232L84.1943 40.254L84.1957 40.222L84.1931 40.1901L83.6948 40.232ZM83.1628 33.904H82.6628V33.925L82.6646 33.9459L83.1628 33.904ZM83.1628 33.708L82.6633 33.6856L82.6628 33.6968V33.708H83.1628ZM83.4428 27.464L83.468 26.9646L82.9658 26.9393L82.9433 27.4416L83.4428 27.464ZM86.2148 27.604L86.7144 27.6244L86.7346 27.1296L86.24 27.1046L86.2148 27.604ZM85.9628 33.764L85.4632 33.7436L85.462 33.7748L85.4646 33.8059L85.9628 33.764ZM86.4948 40.092H86.9948V40.071L86.9931 40.0501L86.4948 40.092ZM86.4948 40.288L86.9942 40.3121L86.9948 40.3001V40.288H86.4948ZM86.24 45.5846L83.468 45.4446L83.4176 46.4434L86.1896 46.5834L86.24 45.5846ZM83.9423 45.966L84.1943 40.254L83.1953 40.21L82.9433 45.922L83.9423 45.966ZM84.1931 40.1901L83.6611 33.8621L82.6646 33.9459L83.1966 40.2739L84.1931 40.1901ZM83.6628 33.904V33.708H82.6628V33.904H83.6628ZM83.6623 33.7304L83.9423 27.4864L82.9433 27.4416L82.6633 33.6856L83.6623 33.7304ZM83.4176 27.9634L86.1896 28.1034L86.24 27.1046L83.468 26.9646L83.4176 27.9634ZM85.7152 27.5836L85.4632 33.7436L86.4624 33.7844L86.7144 27.6244L85.7152 27.5836ZM85.4646 33.8059L85.9966 40.1339L86.9931 40.0501L86.4611 33.7221L85.4646 33.8059ZM85.9948 40.092V40.288H86.9948V40.092H85.9948ZM85.9954 40.2639L85.7154 46.0599L86.7142 46.1081L86.9942 40.3121L85.9954 40.2639ZM105.186 46L105.161 46.4994L105.66 46.5238L105.685 46.0252L105.186 46ZM100.034 45.748L100.058 45.2486L100.037 45.2476L100.016 45.2483L100.034 45.748ZM92.9777 46L92.6142 46.3433L92.7695 46.5078L92.9955 46.4997L92.9777 46ZM91.5497 44.488L91.051 44.4524L91.0353 44.6716L91.1862 44.8313L91.5497 44.488ZM91.8017 40.96L92.3004 40.9956L92.3026 40.9647L92.301 40.9337L91.8017 40.96ZM91.2697 30.852H90.7697V30.8651L90.7704 30.8783L91.2697 30.852ZM91.2697 30.656L90.7715 30.6131L90.7697 30.6345V30.656H91.2697ZM91.5497 27.408L91.595 26.9101L91.0947 26.8646L91.0515 27.3651L91.5497 27.408ZM94.3217 27.66L94.8201 27.7L94.8597 27.2068L94.367 27.1621L94.3217 27.66ZM94.0697 30.796L93.5713 30.7559L93.5686 30.7891L93.5704 30.8223L94.0697 30.796ZM94.6017 40.904H95.1017V40.8909L95.101 40.8777L94.6017 40.904ZM94.6017 41.1L95.1005 41.1342L95.1017 41.1171V41.1H94.6017ZM94.4617 43.144L93.9629 43.1098L93.925 43.6633L94.4794 43.6437L94.4617 43.144ZM100.006 42.948V42.448H99.9969L99.988 42.4483L100.006 42.948ZM100.146 42.948L100.173 42.4487L100.159 42.448H100.146V42.948ZM105.326 43.228L105.825 43.2532L105.85 42.7556L105.353 42.7287L105.326 43.228ZM105.21 45.5006L100.058 45.2486L100.009 46.2474L105.161 46.4994L105.21 45.5006ZM100.016 45.2483L92.9598 45.5003L92.9955 46.4997L100.052 46.2477L100.016 45.2483ZM93.3412 45.6567L91.9132 44.1447L91.1862 44.8313L92.6142 46.3433L93.3412 45.6567ZM92.0484 44.5236L92.3004 40.9956L91.303 40.9244L91.051 44.4524L92.0484 44.5236ZM92.301 40.9337L91.769 30.8257L90.7704 30.8783L91.3024 40.9863L92.301 40.9337ZM91.7697 30.852V30.656H90.7697V30.852H91.7697ZM91.7678 30.6989L92.0478 27.4509L91.0515 27.3651L90.7715 30.6131L91.7678 30.6989ZM91.5044 27.9059L94.2764 28.1579L94.367 27.1621L91.595 26.9101L91.5044 27.9059ZM93.8233 27.6199L93.5713 30.7559L94.5681 30.836L94.8201 27.7L93.8233 27.6199ZM93.5704 30.8223L94.1024 40.9303L95.101 40.8777L94.569 30.7697L93.5704 30.8223ZM94.1017 40.904V41.1H95.1017V40.904H94.1017ZM94.1029 41.0658L93.9629 43.1098L94.9605 43.1782L95.1005 41.1342L94.1029 41.0658ZM94.4794 43.6437L100.023 43.4477L99.988 42.4483L94.444 42.6443L94.4794 43.6437ZM100.006 43.448H100.146V42.448H100.006V43.448ZM100.119 43.4473L105.299 43.7273L105.353 42.7287L100.173 42.4487L100.119 43.4473ZM104.826 43.2028L104.686 45.9748L105.685 46.0252L105.825 43.2532L104.826 43.2028ZM112.518 46.084L112.493 46.5834L112.994 46.6086L113.018 46.1081L112.518 46.084ZM109.746 45.944L109.247 45.922L109.225 46.4183L109.721 46.4434L109.746 45.944ZM109.998 40.232L110.498 40.254L110.499 40.222L110.497 40.1901L109.998 40.232ZM109.466 33.904H108.966V33.925L108.968 33.9459L109.466 33.904ZM109.466 33.708L108.967 33.6856L108.966 33.6968V33.708H109.466ZM109.746 27.464L109.772 26.9646L109.269 26.9393L109.247 27.4416L109.746 27.464ZM112.518 27.604L113.018 27.6244L113.038 27.1296L112.544 27.1046L112.518 27.604ZM112.266 33.764L111.767 33.7436L111.766 33.7748L111.768 33.8059L112.266 33.764ZM112.798 40.092H113.298V40.071L113.297 40.0501L112.798 40.092ZM112.798 40.288L113.298 40.3121L113.298 40.3001V40.288H112.798ZM112.544 45.5846L109.772 45.4446L109.721 46.4434L112.493 46.5834L112.544 45.5846ZM110.246 45.966L110.498 40.254L109.499 40.21L109.247 45.922L110.246 45.966ZM110.497 40.1901L109.965 33.8621L108.968 33.9459L109.5 40.2739L110.497 40.1901ZM109.966 33.904V33.708H108.966V33.904H109.966ZM109.966 33.7304L110.246 27.4864L109.247 27.4416L108.967 33.6856L109.966 33.7304ZM109.721 27.9634L112.493 28.1034L112.544 27.1046L109.772 26.9646L109.721 27.9634ZM112.019 27.5836L111.767 33.7436L112.766 33.7844L113.018 27.6244L112.019 27.5836ZM111.768 33.8059L112.3 40.1339L113.297 40.0501L112.765 33.7221L111.768 33.8059ZM112.298 40.092V40.288H113.298V40.092H112.298ZM112.299 40.2639L112.019 46.0599L113.018 46.1081L113.298 40.3121L112.299 40.2639ZM127.597 39.644L127.112 39.7653L127.115 39.7783L127.119 39.7912L127.597 39.644ZM129.305 45.188L129.454 45.6652L129.93 45.5167L129.783 45.0408L129.305 45.188ZM126.617 46.028L126.139 46.1737L126.286 46.6555L126.766 46.5052L126.617 46.028ZM124.937 40.512L125.416 40.3663L125.409 40.3432L125.399 40.3208L124.937 40.512ZM124.601 39.7L125.063 39.5088L124.917 39.1542L124.536 39.2043L124.601 39.7ZM123.537 39.84L123.499 40.3385L123.551 40.3425L123.603 40.3357L123.537 39.84ZM123.173 39.812L123.101 40.3068L123.118 40.3092L123.135 40.3105L123.173 39.812ZM121.437 39.56L121.509 39.0652L121.473 39.06H121.437V39.56ZM120.429 39.56V39.06H120.026L119.941 39.4545L120.429 39.56ZM119.897 42.024L120.378 42.1614L120.383 42.1456L120.386 42.1295L119.897 42.024ZM119.841 42.22L120.308 42.3981L120.316 42.378L120.322 42.3574L119.841 42.22ZM118.357 46.112L118.177 46.5783L118.645 46.7597L118.824 46.2901L118.357 46.112ZM115.753 45.104L115.286 44.9273L115.11 45.3912L115.573 45.5703L115.753 45.104ZM117.181 41.324L117.649 41.5007L117.662 41.467L117.67 41.4317L117.181 41.324ZM118.497 35.36L118.986 35.4677L118.988 35.455L118.99 35.4422L118.497 35.36ZM118.525 35.192L118.053 35.0287L118.039 35.0684L118.032 35.1098L118.525 35.192ZM121.185 27.492L121.201 26.9922L120.833 26.9807L120.713 27.3287L121.185 27.492ZM123.873 27.576L124.355 27.4435L124.258 27.0878L123.889 27.0762L123.873 27.576ZM126.281 36.34L125.799 36.4725L125.807 36.5003L125.818 36.5271L126.281 36.34ZM127.569 39.532L128.054 39.4107L128.046 39.3771L128.033 39.3449L127.569 39.532ZM123.397 37.012L123.329 37.5073L123.363 37.512H123.397V37.012ZM123.565 37.012V37.512H124.222L124.047 36.8791L123.565 37.012ZM122.361 32.644L122.843 32.5111L122.41 30.9408L121.888 32.4835L122.361 32.644ZM121.213 36.032L120.74 35.8715L120.732 35.8952L120.726 35.9196L121.213 36.032ZM121.045 36.76L120.558 36.6476L120.417 37.26H121.045V36.76ZM121.549 36.76L121.611 36.2639L121.58 36.26H121.549V36.76ZM121.773 36.788L121.842 36.2926L121.835 36.2919L121.773 36.788ZM127.119 39.7912L128.827 45.3352L129.783 45.0408L128.075 39.4968L127.119 39.7912ZM129.156 44.7108L126.468 45.5508L126.766 46.5052L129.454 45.6652L129.156 44.7108ZM127.096 45.8823L125.416 40.3663L124.459 40.6577L126.139 46.1737L127.096 45.8823ZM125.399 40.3208L125.063 39.5088L124.139 39.8912L124.475 40.7032L125.399 40.3208ZM124.536 39.2043L123.472 39.3443L123.603 40.3357L124.667 40.1957L124.536 39.2043ZM123.576 39.3415L123.212 39.3135L123.135 40.3105L123.499 40.3385L123.576 39.3415ZM123.245 39.3172L121.509 39.0652L121.365 40.0548L123.101 40.3068L123.245 39.3172ZM121.437 39.06H120.429V40.06H121.437V39.06ZM119.941 39.4545L119.409 41.9185L120.386 42.1295L120.918 39.6655L119.941 39.4545ZM119.417 41.8866L119.361 42.0826L120.322 42.3574L120.378 42.1614L119.417 41.8866ZM119.374 42.0419L117.89 45.9339L118.824 46.2901L120.308 42.3981L119.374 42.0419ZM118.538 45.6457L115.934 44.6377L115.573 45.5703L118.177 46.5783L118.538 45.6457ZM116.221 45.2807L117.649 41.5007L116.714 41.1473L115.286 44.9273L116.221 45.2807ZM117.67 41.4317L118.986 35.4677L118.009 35.2523L116.693 41.2163L117.67 41.4317ZM118.99 35.4422L119.018 35.2742L118.032 35.1098L118.004 35.2778L118.99 35.4422ZM118.998 35.3553L121.658 27.6553L120.713 27.3287L118.053 35.0287L118.998 35.3553ZM121.17 27.9918L123.858 28.0758L123.889 27.0762L121.201 26.9922L121.17 27.9918ZM123.391 27.7085L125.799 36.4725L126.763 36.2075L124.355 27.4435L123.391 27.7085ZM125.818 36.5271L127.106 39.7191L128.033 39.3449L126.745 36.1529L125.818 36.5271ZM127.084 39.6533L127.112 39.7653L128.082 39.5227L128.054 39.4107L127.084 39.6533ZM123.397 37.512H123.565V36.512H123.397V37.512ZM124.047 36.8791L122.843 32.5111L121.879 32.7769L123.083 37.1449L124.047 36.8791ZM121.888 32.4835L120.74 35.8715L121.687 36.1925L122.835 32.8045L121.888 32.4835ZM120.726 35.9196L120.558 36.6476L121.532 36.8724L121.7 36.1444L120.726 35.9196ZM121.045 37.26H121.549V36.26H121.045V37.26ZM121.487 37.2561L121.711 37.2841L121.835 36.2919L121.611 36.2639L121.487 37.2561ZM121.705 37.2833L123.329 37.5073L123.466 36.5167L121.842 36.2927L121.705 37.2833ZM143.267 27.548L143.766 27.5127L143.731 27.015L143.233 27.0492L143.267 27.548ZM143.463 30.32L143.5 30.8186L143.997 30.7818L143.962 30.2847L143.463 30.32ZM139.683 30.6V31.1H139.701L139.72 31.0986L139.683 30.6ZM139.431 30.6L139.387 31.0981L139.409 31.1H139.431V30.6ZM137.835 30.46L137.879 29.9619L137.368 29.9171L137.336 30.4285L137.835 30.46ZM137.639 33.568L137.14 33.5365L137.138 33.5739L137.141 33.6112L137.639 33.568ZM138.171 39.7L137.673 39.7432L137.675 39.7628L137.678 39.7822L138.171 39.7ZM138.199 39.868L138.698 39.8905L138.701 39.8378L138.692 39.7858L138.199 39.868ZM137.919 46.084L137.894 46.5834L138.396 46.6085L138.418 46.1065L137.919 46.084ZM135.119 45.944L134.62 45.9211L134.597 46.4185L135.094 46.4434L135.119 45.944ZM135.399 39.84L135.898 39.8629L135.9 39.8287L135.897 39.7945L135.399 39.84ZM134.839 33.708H134.339V33.7308L134.341 33.7535L134.839 33.708ZM134.839 33.484L134.34 33.4505L134.339 33.4672V33.484H134.839ZM135.063 30.152L135.562 30.1855L135.595 29.6924L135.102 29.6535L135.063 30.152ZM133.999 30.068L134.038 29.5696L134.004 29.5668L133.969 29.5689L133.999 30.068ZM129.743 30.32L129.244 30.3502L129.274 30.8486L129.773 30.8191L129.743 30.32ZM129.575 27.548L129.543 27.049L129.046 27.0809L129.076 27.5782L129.575 27.548ZM133.943 27.268V26.768H133.927L133.911 26.769L133.943 27.268ZM134.167 27.268L134.216 26.7704L134.191 26.768H134.167V27.268ZM139.599 27.8L139.55 28.2976L139.592 28.3017L139.633 28.2988L139.599 27.8ZM142.768 27.5833L142.964 30.3553L143.962 30.2847L143.766 27.5127L142.768 27.5833ZM143.426 29.8214L139.646 30.1014L139.72 31.0986L143.5 30.8186L143.426 29.8214ZM139.683 30.1H139.431V31.1H139.683V30.1ZM139.475 30.1019L137.879 29.9619L137.791 30.9581L139.387 31.0981L139.475 30.1019ZM137.336 30.4285L137.14 33.5365L138.138 33.5995L138.334 30.4915L137.336 30.4285ZM137.141 33.6112L137.673 39.7432L138.669 39.6568L138.137 33.5248L137.141 33.6112ZM137.678 39.7822L137.706 39.9502L138.692 39.7858L138.664 39.6178L137.678 39.7822ZM137.7 39.8455L137.42 46.0615L138.418 46.1065L138.698 39.8905L137.7 39.8455ZM137.944 45.5846L135.144 45.4446L135.094 46.4434L137.894 46.5834L137.944 45.5846ZM135.618 45.9669L135.898 39.8629L134.9 39.8171L134.62 45.9211L135.618 45.9669ZM135.897 39.7945L135.337 33.6625L134.341 33.7535L134.901 39.8855L135.897 39.7945ZM135.339 33.708V33.484H134.339V33.708H135.339ZM135.338 33.5175L135.562 30.1855L134.564 30.1185L134.34 33.4505L135.338 33.5175ZM135.102 29.6535L134.038 29.5696L133.96 30.5664L135.024 30.6504L135.102 29.6535ZM133.969 29.5689L129.713 29.8209L129.773 30.8191L134.029 30.5671L133.969 29.5689ZM130.242 30.2898L130.074 27.5178L129.076 27.5782L129.244 30.3502L130.242 30.2898ZM129.607 28.047L133.975 27.767L133.911 26.769L129.543 27.049L129.607 28.047ZM133.943 27.768H134.167V26.768H133.943V27.768ZM134.118 27.7656L139.55 28.2976L139.648 27.3024L134.216 26.7704L134.118 27.7656ZM139.633 28.2988L143.301 28.0468L143.233 27.0492L139.565 27.3012L139.633 28.2988ZM153.756 42.948V42.448H153.745L153.733 42.4485L153.756 42.948ZM153.896 42.948L153.917 42.4485L153.906 42.448H153.896V42.948ZM160.476 43.228L160.975 43.2532L161.001 42.7499L160.497 42.7285L160.476 43.228ZM160.336 46L160.316 46.4996L160.81 46.5188L160.835 46.0252L160.336 46ZM153.84 45.748L153.859 45.2484L153.838 45.2476L153.818 45.2485L153.84 45.748ZM148.156 46L147.821 46.3709L147.973 46.5086L148.178 46.4995L148.156 46ZM146.7 44.684L146.2 44.7091L146.211 44.916L146.365 45.0549L146.7 44.684ZM146.42 39.112H145.92V39.1246L145.92 39.1371L146.42 39.112ZM146.42 38.888L145.923 38.8364L145.92 38.8621V38.888H146.42ZM146.952 33.764L147.449 33.8156L147.453 33.7767L147.451 33.7376L146.952 33.764ZM146.7 29.004L146.346 28.6504L146.189 28.808L146.201 29.0304L146.7 29.004ZM148.156 27.548L148.176 27.0484L147.957 27.0394L147.802 27.1944L148.156 27.548ZM154.26 27.8L154.239 28.2996L154.26 28.3004L154.281 28.2996L154.26 27.8ZM160.336 27.548L160.835 27.5228L160.81 27.0279L160.315 27.0484L160.336 27.548ZM160.476 30.32L160.499 30.8195L161.001 30.7966L160.975 30.2948L160.476 30.32ZM154.344 30.6V31.1H154.355L154.367 31.0995L154.344 30.6ZM154.204 30.6L154.183 31.0996L154.193 31.1H154.204V30.6ZM149.584 30.404L149.605 29.9044L149.057 29.8812L149.084 30.4294L149.584 30.404ZM149.752 33.708H150.252V33.6953L150.251 33.6826L149.752 33.708ZM149.752 33.932L150.249 33.9849L150.252 33.9585V33.932H149.752ZM149.612 35.248L149.115 35.1951L149.05 35.8056L149.661 35.7456L149.612 35.248ZM152.748 34.94V34.44H152.723L152.699 34.4424L152.748 34.94ZM153.028 34.94L153.075 34.4423L153.052 34.44H153.028V34.94ZM157.732 35.388L158.23 35.4328L158.274 34.9374L157.779 34.8903L157.732 35.388ZM157.48 38.188L157.431 38.6856L157.933 38.7346L157.978 38.2328L157.48 38.188ZM152.888 37.74L152.936 37.2424L152.887 37.2375L152.837 37.2426L152.888 37.74ZM149.304 38.104L149.253 37.6066L148.841 37.6484L148.806 38.0613L149.304 38.104ZM149.22 39.084L148.722 39.0413L148.719 39.0747L148.72 39.1081L149.22 39.084ZM149.416 43.144L148.916 43.1681L148.94 43.666L149.438 43.6435L149.416 43.144ZM153.756 43.448H153.896V42.448H153.756V43.448ZM153.875 43.4475L160.455 43.7275L160.497 42.7285L153.917 42.4485L153.875 43.4475ZM159.976 43.2028L159.836 45.9748L160.835 46.0252L160.975 43.2532L159.976 43.2028ZM160.355 45.5004L153.859 45.2484L153.82 46.2476L160.316 46.4996L160.355 45.5004ZM153.818 45.2485L148.134 45.5005L148.178 46.4995L153.862 46.2475L153.818 45.2485ZM148.491 45.6291L147.035 44.3131L146.365 45.0549L147.821 46.3709L148.491 45.6291ZM147.199 44.6589L146.919 39.0869L145.92 39.1371L146.2 44.7091L147.199 44.6589ZM146.92 39.112V38.888H145.92V39.112H146.92ZM146.917 38.9396L147.449 33.8156L146.455 33.7124L145.923 38.8364L146.917 38.9396ZM147.451 33.7376L147.199 28.9776L146.201 29.0304L146.453 33.7904L147.451 33.7376ZM147.053 29.3576L148.509 27.9016L147.802 27.1944L146.346 28.6504L147.053 29.3576ZM148.135 28.0476L154.239 28.2996L154.28 27.3004L148.176 27.0484L148.135 28.0476ZM154.281 28.2996L160.357 28.0476L160.315 27.0484L154.239 27.3004L154.281 28.2996ZM159.836 27.5732L159.976 30.3452L160.975 30.2948L160.835 27.5228L159.836 27.5732ZM160.453 29.8205L154.321 30.1005L154.367 31.0995L160.499 30.8195L160.453 29.8205ZM154.344 30.1H154.204V31.1H154.344V30.1ZM154.225 30.1004L149.605 29.9044L149.563 30.9035L154.183 31.0996L154.225 30.1004ZM149.084 30.4294L149.252 33.7334L150.251 33.6826L150.083 30.3786L149.084 30.4294ZM149.252 33.708V33.932H150.252V33.708H149.252ZM149.255 33.8791L149.115 35.1951L150.109 35.3009L150.249 33.9849L149.255 33.8791ZM149.661 35.7456L152.797 35.4376L152.699 34.4424L149.563 34.7504L149.661 35.7456ZM152.748 35.44H153.028V34.44H152.748V35.44ZM152.98 35.4377L157.684 35.8857L157.779 34.8903L153.075 34.4423L152.98 35.4377ZM157.234 35.3432L156.982 38.1432L157.978 38.2328L158.23 35.4328L157.234 35.3432ZM157.528 37.6904L152.936 37.2424L152.839 38.2376L157.431 38.6856L157.528 37.6904ZM152.837 37.2426L149.253 37.6066L149.354 38.6014L152.938 38.2374L152.837 37.2426ZM148.806 38.0613L148.722 39.0413L149.718 39.1267L149.802 38.1467L148.806 38.0613ZM148.72 39.1081L148.916 43.1681L149.915 43.1199L149.719 39.0599L148.72 39.1081ZM149.438 43.6435L153.778 43.4475L153.733 42.4485L149.393 42.6445L149.438 43.6435ZM171.113 45.972V46.472H171.198L171.279 46.4434L171.113 45.972ZM170.133 45.972L169.953 46.4386L170.04 46.472H170.133V45.972ZM167.081 44.796L166.76 45.1801L166.824 45.2329L166.901 45.2626L167.081 44.796ZM166.409 44.236L165.99 44.5098L166.031 44.5723L166.088 44.6201L166.409 44.236ZM164.393 41.156L164.124 40.734L163.697 41.0058L163.974 41.4298L164.393 41.156ZM166.773 39.644L167.194 39.3747L166.925 38.9546L166.504 39.222L166.773 39.644ZM168.509 42.36L168.087 42.6293L168.177 42.7693L168.332 42.8279L168.509 42.36ZM170.665 43.172L170.488 43.6399L170.662 43.7053L170.836 43.6416L170.665 43.172ZM173.577 42.108L173.748 42.5776L173.987 42.4902L174.057 42.2454L173.577 42.108ZM174.193 39.952L174.673 40.0894L174.744 39.8436L174.585 39.6427L174.193 39.952ZM173.157 38.636L173.549 38.3267L173.422 38.165L173.218 38.1398L173.157 38.636ZM170.441 38.3L170.502 37.8038L170.471 37.8H170.441V38.3ZM170.385 38.3L170.296 38.7921L170.34 38.8H170.385V38.3ZM167.109 37.712L166.844 38.136L166.925 38.1871L167.02 38.2041L167.109 37.712ZM166.213 37.152L165.803 37.4387L165.861 37.5221L165.948 37.576L166.213 37.152ZM164.449 34.632L163.95 34.6719L163.961 34.8074L164.039 34.9187L164.449 34.632ZM164.337 33.232L163.885 33.0163L163.827 33.1377L163.838 33.2719L164.337 33.232ZM165.877 30.012L165.523 29.6584L165.462 29.719L165.425 29.7963L165.877 30.012ZM166.521 29.368L166.298 28.9201L166.225 28.9565L166.167 29.0144L166.521 29.368ZM170.021 27.632L169.994 27.1327L169.891 27.1381L169.798 27.1841L170.021 27.632ZM171.085 27.576L171.239 27.1004L171.151 27.0718L171.058 27.0767L171.085 27.576ZM174.277 28.612L174.54 28.1869L174.488 28.1551L174.431 28.1364L174.277 28.612ZM174.865 28.976L175.229 28.6332L175.184 28.5854L175.128 28.5509L174.865 28.976ZM176.685 30.908L177.028 31.2714L177.391 30.9285L177.049 30.5652L176.685 30.908ZM174.641 32.84L174.275 33.1812L174.618 33.549L174.984 33.2034L174.641 32.84ZM173.073 31.16L173.438 30.8188L173.35 30.7245L173.227 30.6845L173.073 31.16ZM170.749 30.404L170.903 29.9285L170.711 29.8659L170.529 29.9548L170.749 30.404ZM168.173 31.664L167.953 31.2148L167.798 31.2905L167.723 31.4454L168.173 31.664ZM167.193 33.68L166.743 33.4614L166.613 33.7287L166.786 33.9706L167.193 33.68ZM168.173 35.052L167.766 35.3426L167.884 35.5083L168.084 35.5442L168.173 35.052ZM170.833 35.528L170.744 36.0202L170.759 36.0227L170.773 36.0244L170.833 35.528ZM174.081 35.92L174.33 35.4867L174.242 35.4358L174.14 35.4236L174.081 35.92ZM175.005 36.452L175.398 36.1437L175.338 36.0672L175.254 36.0187L175.005 36.452ZM176.825 38.776L177.314 38.6758L177.291 38.5604L177.218 38.4677L176.825 38.776ZM177.077 40.008L177.559 40.1408L177.59 40.0253L177.566 39.9078L177.077 40.008ZM176.097 43.564L176.466 43.9009L176.547 43.8123L176.579 43.6968L176.097 43.564ZM175.229 44.516L175.395 44.9874L175.514 44.9456L175.598 44.8529L175.229 44.516ZM171.113 45.472H170.133V46.472H171.113V45.472ZM170.312 45.5054L167.26 44.3294L166.901 45.2626L169.953 46.4386L170.312 45.5054ZM167.401 44.4119L166.729 43.8519L166.088 44.6201L166.76 45.1801L167.401 44.4119ZM166.827 43.9622L164.811 40.8822L163.974 41.4298L165.99 44.5098L166.827 43.9622ZM164.661 41.578L167.041 40.066L166.504 39.222L164.124 40.734L164.661 41.578ZM166.351 39.9133L168.087 42.6293L168.93 42.0907L167.194 39.3747L166.351 39.9133ZM168.332 42.8279L170.488 43.6399L170.841 42.7041L168.685 41.8921L168.332 42.8279ZM170.836 43.6416L173.748 42.5776L173.405 41.6384L170.493 42.7024L170.836 43.6416ZM174.057 42.2454L174.673 40.0894L173.712 39.8146L173.096 41.9706L174.057 42.2454ZM174.585 39.6427L173.549 38.3267L172.764 38.9453L173.8 40.2613L174.585 39.6427ZM173.218 38.1398L170.502 37.8038L170.379 38.7962L173.095 39.1322L173.218 38.1398ZM170.441 37.8H170.385V38.8H170.441V37.8ZM170.473 37.8079L167.197 37.2199L167.02 38.2041L170.296 38.7921L170.473 37.8079ZM167.374 37.288L166.478 36.728L165.948 37.576L166.844 38.136L167.374 37.288ZM166.622 36.8653L164.858 34.3453L164.039 34.9187L165.803 37.4387L166.622 36.8653ZM164.947 34.5921L164.835 33.1921L163.838 33.2719L163.95 34.6719L164.947 34.5921ZM164.788 33.4477L166.328 30.2277L165.425 29.7963L163.885 33.0163L164.788 33.4477ZM166.23 30.3656L166.874 29.7216L166.167 29.0144L165.523 29.6584L166.23 30.3656ZM166.743 29.8159L170.243 28.0799L169.798 27.1841L166.298 28.9201L166.743 29.8159ZM170.047 28.1313L171.111 28.0753L171.058 27.0767L169.994 27.1327L170.047 28.1313ZM170.93 28.0516L174.122 29.0876L174.431 28.1364L171.239 27.1004L170.93 28.0516ZM174.013 29.0371L174.601 29.4011L175.128 28.5509L174.54 28.1869L174.013 29.0371ZM174.501 29.3188L176.321 31.2508L177.049 30.5652L175.229 28.6332L174.501 29.3188ZM176.341 30.5446L174.297 32.4766L174.984 33.2034L177.028 31.2714L176.341 30.5446ZM175.006 32.4988L173.438 30.8188L172.707 31.5012L174.275 33.1812L175.006 32.4988ZM173.227 30.6845L170.903 29.9285L170.594 30.8795L172.918 31.6355L173.227 30.6845ZM170.529 29.9548L167.953 31.2148L168.392 32.1131L170.968 30.8531L170.529 29.9548ZM167.723 31.4454L166.743 33.4614L167.642 33.8986L168.622 31.8826L167.723 31.4454ZM166.786 33.9706L167.766 35.3426L168.579 34.7614L167.599 33.3894L166.786 33.9706ZM168.084 35.5442L170.744 36.0202L170.921 35.0358L168.261 34.5598L168.084 35.5442ZM170.773 36.0244L174.021 36.4164L174.14 35.4236L170.892 35.0316L170.773 36.0244ZM173.831 36.3533L174.755 36.8853L175.254 36.0187L174.33 35.4867L173.831 36.3533ZM174.611 36.7603L176.431 39.0843L177.218 38.4677L175.398 36.1437L174.611 36.7603ZM176.335 38.8762L176.587 40.1082L177.566 39.9078L177.314 38.6758L176.335 38.8762ZM176.595 39.8752L175.615 43.4312L176.579 43.6968L177.559 40.1408L176.595 39.8752ZM175.727 43.2271L174.859 44.1791L175.598 44.8529L176.466 43.9009L175.727 43.2271ZM175.062 44.0446L170.946 45.5006L171.279 46.4434L175.395 44.9874L175.062 44.0446Z" fill="url(#paint1_linear_2109_19)" mask="url(#path-2-outside-1_2109_19)"/>
</g>
<defs>
<filter id="filter0_d_2109_19" x="26.28" y="27.268" width="154.797" height="26.844" filterUnits="userSpaceOnUse" color-interpolation-filters="sRGB">
<feFlood flood-opacity="0" result="BackgroundImageFix"/>
<feColorMatrix in="SourceAlpha" type="matrix" values="0 0 0 0 0 0 0 0 0 0 0 0 0 0 0 0 0 0 127 0" result="hardAlpha"/>
<feOffset dy="4"/>
<feGaussianBlur stdDeviation="2"/>
<feComposite in2="hardAlpha" operator="out"/>
<feColorMatrix type="matrix" values="0 0 0 0 0 0 0 0 0 0 0 0 0 0 0 0 0 0 0.25 0"/>
<feBlend mode="normal" in2="BackgroundImageFix" result="effect1_dropShadow_2109_19"/>
<feBlend mode="normal" in="SourceGraphic" in2="effect1_dropShadow_2109_19" result="shape"/>
</filter>
<linearGradient id="paint0_linear_2109_19" x1="36.8418" y1="24" x2="175.345" y2="54.4416" gradientUnits="userSpaceOnUse">
<stop offset="0.0189512" stop-color="#0064FB"/>
<stop offset="1" stop-color="#1ECDF8"/>
</linearGradient>
<linearGradient id="paint1_linear_2109_19" x1="36.8418" y1="24" x2="175.345" y2="54.4416" gradientUnits="userSpaceOnUse">
<stop offset="0.0189512" stop-color="#0064FB"/>
<stop offset="1" stop-color="#1ECDF8"/>
</linearGradient>
</defs>
</svg>
