<svg width="1217" height="564" viewBox="0 0 1217 564" fill="none" xmlns="http://www.w3.org/2000/svg">
<path d="M167.773 44.2305C226.691 44.2305 274.446 91.9858 274.446 150.904C274.446 209.822 226.691 257.535 167.815 257.535C108.897 257.535 61.1839 209.78 61.1839 150.904C61.1419 91.9858 108.897 44.2305 167.773 44.2305Z" fill="#8247E5"/>
<mask id="mask0_2018_251" style="mask-type:luminance" maskUnits="userSpaceOnUse" x="97" y="90" width="140" height="123">
<path d="M236.93 90.3496H97.1472V212.843H236.93V90.3496Z" fill="white"/>
</mask>
<g mask="url(#mask0_2018_251)">
<path d="M202.729 127.656C200.17 126.188 196.896 126.188 194.001 127.656L173.606 139.742L159.758 147.422L139.741 159.465C137.181 160.934 133.908 160.934 131.012 159.465L115.36 149.939C112.8 148.471 110.995 145.533 110.995 142.26V123.963C110.995 121.026 112.464 118.13 115.36 116.284L131.012 107.136C133.572 105.667 136.845 105.667 139.741 107.136L155.394 116.662C157.953 118.13 159.758 121.068 159.758 124.341V136.427L173.606 128.37V115.948C173.606 113.011 172.137 110.115 169.242 108.269L140.119 91.0635C137.559 89.5947 134.286 89.5947 131.39 91.0635L101.553 108.647C98.658 110.115 97.1892 113.053 97.1892 115.948V150.317C97.1892 153.255 98.658 156.15 101.553 157.997L131.054 175.202C133.614 176.671 136.887 176.671 139.783 175.202L159.8 163.494L173.648 155.437L193.665 143.729C196.225 142.26 199.498 142.26 202.394 143.729L218.046 152.877C220.606 154.346 222.411 157.283 222.411 160.556V178.853C222.411 181.79 220.942 184.686 218.046 186.532L202.771 195.68C200.212 197.149 196.938 197.149 194.043 195.68L178.348 186.532C175.788 185.063 173.984 182.126 173.984 178.853V167.145L160.136 175.202V187.288C160.136 190.225 161.604 193.121 164.5 194.967L194.001 212.172C196.561 213.641 199.834 213.641 202.729 212.172L232.23 194.967C234.79 193.498 236.595 190.561 236.595 187.288V152.541C236.595 149.604 235.126 146.708 232.23 144.862L202.729 127.656Z" fill="white"/>
</g>
<path d="M433.404 263.546C495.883 263.546 546.491 214.979 546.491 155.095C546.491 95.2102 495.883 46.6436 433.404 46.6436C370.925 46.6436 320.318 95.2102 320.318 155.095C320.318 214.979 370.968 263.546 433.404 263.546Z" fill="#FF060A"/>
<path d="M497.01 135.625C490.771 130.074 482.105 121.618 475.086 115.634L474.653 115.374C473.959 114.854 473.18 114.42 472.356 114.117C455.372 111.081 376.341 96.9014 374.825 97.0748C374.391 97.1182 373.958 97.2916 373.612 97.5085L373.222 97.812C372.745 98.289 372.355 98.8527 372.138 99.5031L372.052 99.7633V101.194V101.411C380.934 125.174 416.073 202.968 423.006 221.267C423.439 222.524 424.219 224.866 425.692 224.996H426.039C426.818 224.996 430.198 220.703 430.198 220.703C430.198 220.703 490.554 150.542 496.663 143.083C497.443 142.172 498.137 141.175 498.743 140.134C498.916 139.31 498.83 138.487 498.527 137.706C498.223 136.926 497.66 136.188 497.01 135.625ZM445.623 143.82L471.36 123.353L486.481 136.709L445.623 143.82ZM435.614 142.476L391.289 107.612L463.041 120.317L435.614 142.476ZM439.6 151.582L484.965 144.557L433.101 204.529L439.6 151.582ZM385.267 111.124L431.931 149.067L425.172 204.572L385.267 111.124Z" fill="white"/>
<g clip-path="url(#clip0_2018_251)">
<path d="M718.428 267.732C780.077 267.732 830.053 217.756 830.053 156.107C830.053 94.4586 780.077 44.4824 718.428 44.4824C656.78 44.4824 606.803 94.4586 606.803 156.107C606.803 217.756 656.78 267.732 718.428 267.732Z" fill="#627EEA"/>
<path d="M721.903 72.3887V134.271L774.206 157.642L721.903 72.3887Z" fill="white" fill-opacity="0.602"/>
<path d="M721.903 72.3887L669.593 157.642L721.903 134.271V72.3887Z" fill="white"/>
<path d="M721.903 197.744V239.792L774.241 167.382L721.903 197.744Z" fill="white" fill-opacity="0.602"/>
<path d="M721.903 239.792V197.737L669.593 167.382L721.903 239.792Z" fill="white"/>
<path d="M721.903 188.012L774.206 157.642L721.903 134.285V188.012Z" fill="white" fill-opacity="0.2"/>
<path d="M669.592 157.642L721.902 188.012V134.285L669.592 157.642Z" fill="white" fill-opacity="0.602"/>
</g>
<path d="M1015.43 267.044C1079.6 267.044 1131.61 215.031 1131.61 150.87C1131.61 86.7091 1079.6 34.6963 1015.43 34.6963C951.274 34.6963 899.261 86.7091 899.261 150.87C899.261 215.031 951.274 267.044 1015.43 267.044Z" fill="#F3BA2F"/>
<path fill-rule="evenodd" clip-rule="evenodd" d="M1045.57 163.224L1063.09 180.698L1015.45 228.286L967.864 180.698L985.388 163.224L1015.45 193.287L1045.57 163.224ZM1015.45 133.111L1033.23 150.887L1015.45 168.663L997.726 150.937V150.887L1000.85 147.765L1002.36 146.254L1015.45 133.111ZM955.526 133.362L973.051 150.887L955.526 168.361L938.002 150.836L955.526 133.362ZM1075.38 133.362L1092.9 150.887L1075.38 168.361L1057.85 150.836L1075.38 133.362ZM1015.45 73.4375L1063.04 121.025L1045.51 138.549L1015.45 108.436L985.388 138.499L967.864 121.025L1015.45 73.4375Z" fill="#131415"/>
<path d="M280.233 511.26C344.201 511.26 394.969 459.533 394.969 396.65C394.969 332.753 343.186 282.041 280.233 282.041C216.266 282.041 165.498 333.767 165.498 396.65C165.498 459.533 217.281 511.26 280.233 511.26Z" fill="#2C374B"/>
<path fill-rule="evenodd" clip-rule="evenodd" d="M343.186 355.067C342.17 354.053 292.418 324.64 286.325 322.611C284.295 321.597 279.218 320.583 276.172 321.597C273.126 322.611 220.327 353.038 218.296 355.067C217.281 356.081 216.266 358.11 215.25 359.124C214.235 361.152 214.235 362.167 214.235 397.665V434.178L221.342 438.235C225.404 440.263 228.45 442.292 228.45 442.292C229.465 442.292 277.187 366.224 277.187 365.209C277.187 364.195 266.018 364.195 262.972 365.209C258.911 366.224 255.865 368.252 253.834 370.281C252.819 371.295 246.726 381.437 238.603 392.594C231.496 403.751 225.404 413.893 225.404 413.893C225.404 413.893 225.404 403.751 225.404 389.551V364.195L226.419 363.181C228.45 361.152 280.233 331.739 282.264 331.739C283.279 331.739 284.295 331.739 296.479 338.839C300.54 340.867 311.709 346.953 320.848 353.038C329.986 358.11 338.109 363.181 339.124 364.195L340.139 365.209V417.95L314.755 378.394C313.74 376.366 312.725 374.337 311.709 373.323C311.709 373.323 310.694 375.352 304.602 385.494C303.587 386.508 302.571 388.537 302.571 389.551L301.556 391.58L302.571 392.594L303.587 393.608C303.587 393.608 303.587 394.622 304.602 394.622L306.633 397.665C306.633 397.665 306.633 398.679 307.648 398.679C308.663 399.694 309.679 401.722 309.679 402.736C309.679 402.736 309.679 402.736 309.679 403.751L331.001 438.235L328.971 439.249C327.955 440.263 326.94 440.263 325.924 440.263L299.525 399.694L298.51 398.679L296.479 402.736L286.325 418.964L306.633 451.42C303.587 453.448 286.325 465.619 285.31 465.619C284.295 465.619 260.941 450.406 261.957 449.391C261.957 449.391 269.064 437.221 277.187 423.021C284.295 410.85 293.433 395.637 299.525 385.494C306.633 373.323 309.679 367.238 309.679 367.238C309.679 367.238 304.602 367.238 298.51 367.238H288.356L265.003 405.779C256.88 419.978 248.757 433.164 244.696 440.263C237.588 441.277 235.557 443.306 235.557 443.306L234.542 445.334L252.819 455.477C262.972 461.562 272.11 466.634 274.141 467.648C277.187 469.676 282.264 469.676 284.295 469.676C286.325 468.662 339.124 438.235 342.17 436.206C343.186 435.192 344.201 434.178 345.216 432.149L346.232 429.107V395.637V362.167L345.216 360.138C345.216 358.11 343.186 356.081 343.186 355.067Z" fill="white"/>
<path d="M338.109 416.935L307.648 370.28L296.479 388.537L325.924 436.206L339.124 430.121L338.109 416.935Z" fill="#24A2EE"/>
<path d="M323.894 442.291L293.433 395.636L280.233 415.921L304.602 454.462L319.832 448.376L323.894 442.291Z" fill="#24A2EE"/>
<path fill-rule="evenodd" clip-rule="evenodd" d="M224.388 364.195L280.233 331.739L336.078 364.195V429.106L280.233 461.562L238.603 438.235L233.527 447.363L279.218 473.733C280.233 474.747 281.249 474.747 282.264 473.733L346.232 437.22C347.247 436.206 348.262 435.192 348.262 434.178V361.152C348.262 360.138 347.247 359.124 346.232 358.109L282.264 321.597C281.249 320.582 280.233 320.582 279.218 321.597L215.25 357.095C214.235 358.109 213.219 359.124 213.219 360.138V433.163C213.219 434.178 214.235 435.192 215.25 436.206L228.45 443.306L234.542 434.178L225.404 429.106V364.195H224.388Z" fill="#98BCDC"/>
<path d="M304.602 364.194H283.279L233.527 445.334L250.788 455.476L304.602 364.194Z" fill="white"/>
<path d="M250.788 372.308C255.865 364.194 270.08 364.194 276.172 365.209L227.435 443.305C225.404 442.291 221.342 440.263 218.296 438.234C214.235 436.206 213.219 436.206 213.219 433.163V429.106C224.388 412.878 245.711 380.422 250.788 372.308Z" fill="white"/>
<path d="M577.666 289.848H577.848C639.411 289.848 689.337 339.735 689.337 401.251V407.453C689.337 468.969 639.411 518.857 577.848 518.857H577.666C516.102 518.857 466.177 468.969 466.177 407.453V401.251C466.177 339.735 516.102 289.848 577.666 289.848Z" fill="#232323"/>
<path d="M625.447 376.034C625.082 376.444 624.625 376.764 624.123 376.946C623.621 377.174 623.074 377.265 622.526 377.265H519.16C515.509 377.265 513.638 372.705 516.194 369.969L533.17 351.957C533.535 351.546 533.992 351.227 534.539 350.999C535.041 350.771 535.589 350.68 536.137 350.68H639.913C643.61 350.68 645.435 355.285 642.834 358.021L625.447 376.034ZM625.447 456.566C624.671 457.341 623.621 457.797 622.526 457.797H519.16C515.509 457.797 513.638 453.328 516.194 450.683L533.17 433.081C533.535 432.671 534.037 432.351 534.539 432.169C535.041 431.941 535.589 431.85 536.137 431.85H639.913C643.61 431.85 645.435 436.364 642.834 439.009L625.447 456.566ZM625.447 392.496C624.671 391.721 623.621 391.265 622.526 391.265H519.16C515.509 391.265 513.638 395.734 516.194 398.379L533.17 415.981C533.535 416.391 534.037 416.71 534.539 416.893C535.041 417.121 535.589 417.212 536.137 417.212H639.913C643.61 417.212 645.435 412.697 642.834 410.052L625.447 392.496Z" fill="url(#paint0_linear_2018_251)"/>
<g clip-path="url(#clip1_2018_251)">
<path d="M890.063 517.84C954.261 517.84 1006.3 465.797 1006.3 401.598C1006.3 337.4 954.261 285.357 890.063 285.357C825.864 285.357 773.822 337.4 773.822 401.598C773.822 465.797 825.864 517.84 890.063 517.84Z" fill="#FF0420"/>
<path d="M856.167 432.472C849.239 432.472 843.566 430.845 839.149 427.59C834.778 424.289 832.593 419.546 832.593 413.455C832.593 412.153 832.733 410.619 833.011 408.759C833.755 404.574 834.825 399.552 836.22 393.647C840.172 377.653 850.401 369.655 866.861 369.655C871.325 369.655 875.37 370.399 878.903 371.934C882.437 373.375 885.227 375.607 887.273 378.583C889.319 381.512 890.342 384.999 890.342 389.044C890.342 390.253 890.202 391.788 889.923 393.647C889.04 398.809 888.017 403.877 886.761 408.759C884.716 416.71 881.228 422.708 876.207 426.66C871.232 430.566 864.536 432.472 856.167 432.472ZM857.422 419.918C860.677 419.918 863.42 418.941 865.698 417.035C868.023 415.129 869.697 412.2 870.674 408.201C872.022 402.714 873.045 397.972 873.742 393.88C873.975 392.671 874.114 391.416 874.114 390.114C874.114 384.813 871.371 382.163 865.838 382.163C862.583 382.163 859.793 383.139 857.469 385.046C855.19 386.952 853.563 389.881 852.586 393.88C851.517 397.786 850.494 402.528 849.425 408.201C849.192 409.363 849.053 410.572 849.053 411.874C849.006 417.268 851.843 419.918 857.422 419.918Z" fill="white"/>
<path d="M894.387 431.635C893.736 431.635 893.271 431.449 892.899 431.031C892.62 430.566 892.527 430.054 892.62 429.45L904.662 372.724C904.755 372.073 905.081 371.562 905.639 371.144C906.15 370.725 906.708 370.539 907.313 370.539H930.514C936.977 370.539 942.139 371.887 946.044 374.538C949.996 377.235 951.996 381.094 951.996 386.162C951.996 387.603 951.81 389.138 951.484 390.719C950.043 397.414 947.114 402.343 942.65 405.551C938.279 408.759 932.281 410.34 924.656 410.34H912.892L908.894 429.45C908.754 430.101 908.475 430.612 907.917 431.031C907.406 431.449 906.848 431.635 906.243 431.635H894.387ZM925.26 398.297C927.725 398.297 929.817 397.646 931.63 396.298C933.49 394.95 934.699 393.043 935.304 390.533C935.49 389.556 935.583 388.673 935.583 387.929C935.583 386.255 935.071 384.953 934.095 384.07C933.118 383.14 931.398 382.675 929.027 382.675H918.565L915.264 398.297H925.26Z" fill="white"/>
</g>
<defs>
<linearGradient id="paint0_linear_2018_251" x1="522.904" y1="459.134" x2="635.74" y2="349.195" gradientUnits="userSpaceOnUse">
<stop stop-color="#CF41E8"/>
<stop offset="1" stop-color="#10F2B0"/>
</linearGradient>
<clipPath id="clip0_2018_251">
<rect width="223.25" height="223.25" fill="white" transform="translate(606.803 44.4824)"/>
</clipPath>
<clipPath id="clip1_2018_251">
<rect width="232.482" height="232.482" fill="white" transform="translate(773.822 285.357)"/>
</clipPath>
</defs>
</svg>
