<svg width="26" height="25" viewBox="0 0 26 25" fill="none" xmlns="http://www.w3.org/2000/svg">
<path d="M7.54151 12.1424C7.8679 14.2788 8.4061 16.083 8.68094 16.8425C8.71827 16.9458 8.72453 17.0577 8.69896 17.1645C8.67338 17.2712 8.61709 17.3682 8.53703 17.4433L8.12567 17.8298C7.13758 18.7591 5.51377 18.0124 5.57859 16.6552L5.71205 13.8454C5.74795 13.0932 6.05667 12.3798 6.58047 11.8386C6.65316 11.7632 6.74547 11.7096 6.84701 11.6837C6.94854 11.6579 7.05527 11.661 7.15516 11.6926C7.25506 11.7241 7.34416 11.783 7.41241 11.8624C7.48067 11.9419 7.52539 12.0389 7.54151 12.1424ZM19.4202 11.8388C19.3472 11.7633 19.2546 11.7097 19.1528 11.684C19.051 11.6583 18.944 11.6616 18.844 11.6936C18.7439 11.7255 18.6548 11.7848 18.5867 11.8647C18.5186 11.9446 18.4742 12.042 18.4585 12.1459C18.1284 14.3125 17.5881 16.0953 17.319 16.8407C17.2816 16.9441 17.2752 17.0562 17.3007 17.1632C17.3262 17.2702 17.3825 17.3674 17.4626 17.4427L17.8747 17.8299C18.8642 18.7605 20.4868 18.0105 20.4218 16.6553L20.2883 13.8455C20.2525 13.0933 19.9438 12.38 19.4202 11.8388ZM11.1461 20.5793L11.1461 19.5494C11.147 19.475 11.1331 19.4012 11.1052 19.3323C11.0773 19.2633 11.036 19.2006 10.9837 19.1477C10.9314 19.0948 10.8691 19.0528 10.8005 19.0241C10.7318 18.9955 10.6582 18.9807 10.5838 18.9807C10.5094 18.9807 10.4358 18.9954 10.3671 19.0241C10.2985 19.0528 10.2362 19.0947 10.1839 19.1476C10.1316 19.2005 10.0903 19.2633 10.0624 19.3322C10.0345 19.4012 10.0206 19.475 10.0214 19.5494L10.0214 20.5793C10.0214 21.0819 10.6305 21.328 10.9815 20.9769C11.0338 20.9248 11.0752 20.8628 11.1035 20.7946C11.1318 20.7263 11.1462 20.6532 11.1461 20.5793ZM16.0184 20.5793L16.0184 19.5493C16.0184 19.4001 15.9591 19.2571 15.8537 19.1516C15.7482 19.0461 15.6051 18.9869 15.456 18.9869C15.3068 18.9869 15.1638 19.0462 15.0583 19.1516C14.9528 19.2571 14.8936 19.4001 14.8936 19.5493L14.8938 20.5794C14.8938 21.0821 15.5029 21.328 15.8538 20.9771C15.9061 20.9249 15.9476 20.8629 15.9759 20.7946C16.0041 20.7263 16.0186 20.6532 16.0185 20.5793L16.0184 20.5793ZM13.5625 22.3278L13.5625 18.8307C13.5616 18.6822 13.502 18.54 13.3966 18.4353C13.2912 18.3305 13.1487 18.2718 13.0001 18.2718C12.8516 18.2718 12.709 18.3305 12.6037 18.4353C12.4983 18.54 12.4387 18.6822 12.4378 18.8307L12.4378 22.3278C12.4378 22.8304 13.0468 23.0765 13.3978 22.7255C13.4501 22.6733 13.4916 22.6113 13.5198 22.5431C13.5481 22.4748 13.5626 22.4017 13.5625 22.3278ZM17.9976 10.159C17.9173 11.2072 17.7679 12.2489 17.5503 13.2774C17.5264 13.3895 17.4647 13.4901 17.3755 13.5621C17.2863 13.6342 17.1751 13.6735 17.0604 13.6734L8.93985 13.6734C8.82518 13.6735 8.71396 13.6342 8.62479 13.5621C8.53562 13.4901 8.47391 13.3895 8.44999 13.2774C8.22734 12.2246 8.07606 11.158 7.99719 10.0849C7.86952 8.32624 8.20293 6.5647 8.96447 4.97435C9.72602 3.384 10.8893 2.01987 12.3395 1.01677L12.68 0.780653C12.7741 0.715587 12.8858 0.680734 13.0001 0.680734C13.1145 0.680733 13.2262 0.715587 13.3203 0.780651L13.6608 1.01677C16.4966 2.97922 18.2784 6.35045 17.9976 10.159ZM13.0001 5.86984C12.5207 5.86984 12.052 6.01201 11.6534 6.27837C11.2548 6.54472 10.9441 6.92331 10.7606 7.36625C10.5771 7.80918 10.5291 8.29658 10.6227 8.76679C10.7162 9.23701 10.9471 9.66894 11.2861 10.0079C11.6251 10.347 12.057 10.5778 12.5272 10.6714C12.9974 10.7649 13.4848 10.7169 13.9278 10.5334C14.3707 10.3499 14.7493 10.0392 15.0157 9.64062C15.282 9.24198 15.4242 8.77332 15.4242 8.29389C15.4235 7.65121 15.1678 7.03506 14.7134 6.58062C14.259 6.12617 13.6428 5.87055 13.0001 5.86984ZM9.49199 14.7981C9.41371 14.798 9.3365 14.8163 9.26657 14.8514C9.19664 14.8866 9.13593 14.9377 9.08934 15.0006C9.04275 15.0635 9.01157 15.1364 8.99831 15.2136C8.98505 15.2907 8.99008 15.3699 9.01299 15.4447C9.08157 15.6656 9.15064 15.8781 9.2255 16.0972C9.34899 16.4581 9.5823 16.7713 9.89274 16.9929C10.2032 17.2146 10.5752 17.3336 10.9566 17.3332L15.0437 17.3332C15.2841 17.3333 15.5223 17.2861 15.7445 17.1942C15.9667 17.1022 16.1685 16.9674 16.3386 16.7973C16.6904 16.4455 16.7783 16.118 16.9873 15.4447C17.0102 15.3699 17.0153 15.2907 17.002 15.2135C16.9887 15.1364 16.9575 15.0634 16.9109 15.0006C16.8643 14.9377 16.8036 14.8866 16.7337 14.8514C16.6638 14.8163 16.5866 14.798 16.5083 14.7981L9.49199 14.7981Z" fill="url(#paint0_linear_130_546)"/>
<defs>
<linearGradient id="paint0_linear_130_546" x1="6.83628" y1="18.6155" x2="19.1639" y2="6.28786" gradientUnits="userSpaceOnUse">
<stop stop-color="#02ED8E"/>
<stop offset="0.5" stop-color="#00DD7B"/>
<stop offset="1" stop-color="#00BB5C"/>
</linearGradient>
</defs>
</svg>
